  0
SECTION
  2
ENTITIES
  0
POLYLINE
  8
0
 66
     1
 10
0.0
 20
0.0
 30
0.0
  0
VERTEX
  8
0
 10
-1944.0000000000000
 20
47.5000000000000
 30
0.0
  0
VERTEX
  8
0
 10
-1944.0000000000000
 20
69.0100000000000
 30
0.0
 42
0.4142135623731
  0
VERTEX
  8
0
 10
-1950.0000000000000
 20
75.0100000000000
 30
0.0
  0
VERTEX
  8
0
 10
-1989.0000000000000
 20
75.0100000000000
 30
0.0
  0
VERTEX
  8
0
 10
-1994.0000000000000
 20
80.0100000000000
 30
0.0
  0
VERTEX
  8
0
 10
-1994.0000000000000
 20
109.0180000000000
 30
0.0
 42
0.4142135623731
  0
VERTEX
  8
0
 10
-2000.0000000000000
 20
115.0180000000000
 30
0.0
  0
VERTEX
  8
0
 10
-2025.9400000000001
 20
115.0180000000000
 30
0.0
  0
VERTEX
  8
0
 10
-2026.9400000000001
 20
116.0180000000000
 30
0.0
  0
VERTEX
  8
0
 10
-2026.9400000000001
 20
149.9835000000000
 30
0.0
  0
VERTEX
  8
0
 10
-2024.0000000000000
 20
149.9835000000000
 30
0.0
 42
0.6681786379193
  0
VERTEX
  8
0
 10
-2019.7573593128807
 20
160.2261406871193
 30
0.0
  0
VERTEX
  8
0
 10
-2024.0000000000000
 20
164.4687813742386
 30
0.0
  0
VERTEX
  8
0
 10
-2024.0000000000000
 20
309.9890000000000
 30
0.0
  0
VERTEX
  8
0
 10
-1944.0000000000000
 20
309.9890000000000
 30
0.0
  0
VERTEX
  8
0
 10
-1944.0000000000000
 20
195.0000000000000
 30
0.0
 42
0.4142135623731
  0
VERTEX
  8
0
 10
-1914.0000000000000
 20
165.0000000000000
 30
0.0
  0
VERTEX
  8
0
 10
-1830.0000000000000
 20
165.0000000000000
 30
0.0
 42
0.4142135623731
  0
VERTEX
  8
0
 10
-1824.0000000000000
 20
171.0000000000000
 30
0.0
  0
VERTEX
  8
0
 10
-1824.0000000000000
 20
210.0000000000000
 30
0.0
  0
VERTEX
  8
0
 10
-1784.0000000000000
 20
210.0000000000000
 30
0.0
  0
VERTEX
  8
0
 10
-1784.0000000000000
 20
170.7750000000000
 30
0.0
 42
0.4142135623731
  0
VERTEX
  8
0
 10
-1778.0000000000000
 20
164.7750000000000
 30
0.0
  0
VERTEX
  8
0
 10
-1681.8108837905756
 20
164.7750000000000
 30
0.0
 42
0.2679491924311
  0
VERTEX
  8
0
 10
-1676.6147313678691
 20
167.7750000000000
 30
0.0
  0
VERTEX
  8
0
 10
-1671.0000000000000
 20
177.5000000000000
 30
0.0
  0
VERTEX
  8
0
 10
-1669.0000000000000
 20
177.5000000000000
 30
0.0
  0
VERTEX
  8
0
 10
-1669.0000000000000
 20
170.7750000000000
 30
0.0
 42
0.4142135623731
  0
VERTEX
  8
0
 10
-1663.0000000000000
 20
164.7750000000000
 30
0.0
  0
VERTEX
  8
0
 10
-1551.6276900810658
 20
164.7750000000000
 30
0.0
 42
0.7477565330876
  0
VERTEX
  8
0
 10
-1545.5000000000000
 20
174.5186269665969
 30
0.0
  0
VERTEX
  8
0
 10
-1545.5000000000000
 20
273.0000000000000
 30
0.0
 42
-0.4142135623731
  0
VERTEX
  8
0
 10
-1543.5000000000000
 20
275.0000000000000
 30
0.0
  0
VERTEX
  8
0
 10
-1486.0000000000000
 20
275.0000000000000
 30
0.0
 42
-0.4142135623731
  0
VERTEX
  8
0
 10
-1484.0000000000000
 20
273.0000000000000
 30
0.0
  0
VERTEX
  8
0
 10
-1484.0000000000000
 20
172.4686269665969
 30
0.0
 42
0.6457513110646
  0
VERTEX
  8
0
 10
-1479.5000000000000
 20
162.5000000000000
 30
0.0
  0
VERTEX
  8
0
 10
-1428.7331114237888
 20
162.5000000000000
 30
0.0
 42
0.2312283038433
  0
VERTEX
  8
0
 10
-1424.0000000000000
 20
164.8125000000000
 30
0.0
  0
VERTEX
  8
0
 10
-1001.9999999999997
 20
164.8125000000000
 30
0.0
  0
VERTEX
  8
0
 10
-997.8714004198456
 20
164.3601002798971
 30
0.0
 42
0.4465539345194
  0
VERTEX
  8
0
 10
-988.9999999999999
 20
172.3125000000000
 30
0.0
  0
VERTEX
  8
0
 10
-988.9999999999999
 20
206.7750000000000
 30
0.0
  0
VERTEX
  8
0
 10
-964.9999999999999
 20
206.7750000000000
 30
0.0
 42
0.4142135623731
  0
VERTEX
  8
0
 10
-958.9999999999999
 20
212.7750000000000
 30
0.0
  0
VERTEX
  8
0
 10
-958.9999999999999
 20
236.5000000000000
 30
0.0
 42
-0.9004040442978
  0
VERTEX
  8
0
 10
-957.0218523992661
 20
236.7079116908178
 30
0.0
  0
VERTEX
  8
0
 10
-951.6695970147260
 20
211.5275298550934
 30
0.0
 42
0.3541185725307
  0
VERTEX
  8
0
 10
-945.8007114103233
 20
206.7750000000000
 30
0.0
  0
VERTEX
  8
0
 10
-914.5999999999998
 20
206.7750000000000
 30
0.0
 42
0.4142135623731
  0
VERTEX
  8
0
 10
-913.9999999999999
 20
207.3750000000000
 30
0.0
  0
VERTEX
  8
0
 10
-913.9999999999999
 20
211.0000000000000
 30
0.0
  0
VERTEX
  8
0
 10
-911.9999999999999
 20
211.0000000000000
 30
0.0
 42
0.3287469393583
  0
VERTEX
  8
0
 10
-906.2685625712217
 20
206.7750000000000
 30
0.0
  0
VERTEX
  8
0
 10
-889.9999999999999
 20
206.7750000000000
 30
0.0
 42
0.4142135623731
  0
VERTEX
  8
0
 10
-883.9999999999999
 20
212.7750000000000
 30
0.0
  0
VERTEX
  8
0
 10
-883.9999999999999
 20
236.5000000000000
 30
0.0
 42
-0.9004040442978
  0
VERTEX
  8
0
 10
-882.0218523992661
 20
236.7079116908178
 30
0.0
  0
VERTEX
  8
0
 10
-879.8579454397767
 20
226.5275298550934
 30
0.0
 42
0.3541185725307
  0
VERTEX
  8
0
 10
-873.9890598353737
 20
221.7750000000000
 30
0.0
  0
VERTEX
  8
0
 10
-836.8035085019827
 20
221.7750000000000
 30
0.0
 42
-0.2096290693995
  0
VERTEX
  8
0
 10
-832.3899262112763
 20
219.8395161290323
 30
0.0
 42
0.4385290096535
  0
VERTEX
  8
0
 10
-795.6100737887235
 20
219.8395161290323
 30
0.0
 42
-0.2096290693995
  0
VERTEX
  8
0
 10
-791.1964914980171
 20
221.7750000000000
 30
0.0
  0
VERTEX
  8
0
 10
-759.0999999999998
 20
221.7750000000000
 30
0.0
 42
0.4142135623731
  0
VERTEX
  8
0
 10
-758.4999999999999
 20
222.3750000000000
 30
0.0
  0
VERTEX
  8
0
 10
-758.4999999999999
 20
224.7750000000000
 30
0.0
  0
VERTEX
  8
0
 10
-754.9999999999999
 20
224.7750000000000
 30
0.0
  0
VERTEX
  8
0
 10
-754.9999999999999
 20
222.3750000000000
 30
0.0
 42
0.4142135623731
  0
VERTEX
  8
0
 10
-754.4000000000000
 20
221.7750000000000
 30
0.0
  0
VERTEX
  8
0
 10
-749.0999999999998
 20
221.7750000000000
 30
0.0
 42
0.4142135623731
  0
VERTEX
  8
0
 10
-748.4999999999999
 20
222.3750000000000
 30
0.0
  0
VERTEX
  8
0
 10
-748.4999999999999
 20
224.7750000000000
 30
0.0
  0
VERTEX
  8
0
 10
-744.9999999999999
 20
224.7750000000000
 30
0.0
  0
VERTEX
  8
0
 10
-744.9999999999999
 20
222.3750000000000
 30
0.0
 42
0.4142135623731
  0
VERTEX
  8
0
 10
-744.4000000000000
 20
221.7750000000000
 30
0.0
  0
VERTEX
  8
0
 10
-739.0999999999998
 20
221.7750000000000
 30
0.0
 42
0.4142135623731
  0
VERTEX
  8
0
 10
-738.4999999999999
 20
222.3750000000000
 30
0.0
  0
VERTEX
  8
0
 10
-738.4999999999999
 20
224.7750000000000
 30
0.0
  0
VERTEX
  8
0
 10
-734.9999999999999
 20
224.7750000000000
 30
0.0
  0
VERTEX
  8
0
 10
-734.9999999999999
 20
222.3750000000000
 30
0.0
 42
0.4142135623731
  0
VERTEX
  8
0
 10
-734.4000000000000
 20
221.7750000000000
 30
0.0
  0
VERTEX
  8
0
 10
-729.0999999999998
 20
221.7750000000000
 30
0.0
 42
0.4142135623731
  0
VERTEX
  8
0
 10
-728.4999999999999
 20
222.3750000000000
 30
0.0
  0
VERTEX
  8
0
 10
-728.4999999999999
 20
224.7750000000000
 30
0.0
  0
VERTEX
  8
0
 10
-724.9999999999999
 20
224.7750000000000
 30
0.0
  0
VERTEX
  8
0
 10
-724.9999999999999
 20
222.3750000000000
 30
0.0
 42
0.4142135623731
  0
VERTEX
  8
0
 10
-724.4000000000000
 20
221.7750000000000
 30
0.0
  0
VERTEX
  8
0
 10
-719.0999999999998
 20
221.7750000000000
 30
0.0
 42
0.4142135623731
  0
VERTEX
  8
0
 10
-718.4999999999999
 20
222.3750000000000
 30
0.0
  0
VERTEX
  8
0
 10
-718.4999999999999
 20
224.7750000000000
 30
0.0
  0
VERTEX
  8
0
 10
-714.9999999999999
 20
224.7750000000000
 30
0.0
  0
VERTEX
  8
0
 10
-714.9999999999999
 20
222.3750000000000
 30
0.0
 42
0.4142135623731
  0
VERTEX
  8
0
 10
-714.4000000000000
 20
221.7750000000000
 30
0.0
  0
VERTEX
  8
0
 10
-684.5999999999998
 20
221.7750000000000
 30
0.0
 42
0.4142135623731
  0
VERTEX
  8
0
 10
-683.9999999999999
 20
222.3750000000000
 30
0.0
  0
VERTEX
  8
0
 10
-683.9999999999999
 20
224.7750000000000
 30
0.0
  0
VERTEX
  8
0
 10
-680.4999999999999
 20
224.7750000000000
 30
0.0
  0
VERTEX
  8
0
 10
-680.4999999999999
 20
222.3750000000000
 30
0.0
 42
0.4142135623731
  0
VERTEX
  8
0
 10
-679.9000000000000
 20
221.7750000000000
 30
0.0
  0
VERTEX
  8
0
 10
-674.5999999999998
 20
221.7750000000000
 30
0.0
 42
0.4142135623731
  0
VERTEX
  8
0
 10
-673.9999999999999
 20
222.3750000000000
 30
0.0
  0
VERTEX
  8
0
 10
-673.9999999999999
 20
224.7750000000000
 30
0.0
  0
VERTEX
  8
0
 10
-670.4999999999999
 20
224.7750000000000
 30
0.0
  0
VERTEX
  8
0
 10
-670.4999999999999
 20
222.3750000000000
 30
0.0
 42
0.4142135623731
  0
VERTEX
  8
0
 10
-669.9000000000000
 20
221.7750000000000
 30
0.0
  0
VERTEX
  8
0
 10
-664.5999999999998
 20
221.7750000000000
 30
0.0
 42
0.4142135623731
  0
VERTEX
  8
0
 10
-663.9999999999999
 20
222.3750000000000
 30
0.0
  0
VERTEX
  8
0
 10
-663.9999999999999
 20
224.7750000000000
 30
0.0
  0
VERTEX
  8
0
 10
-660.4999999999999
 20
224.7750000000000
 30
0.0
  0
VERTEX
  8
0
 10
-660.4999999999999
 20
222.3750000000000
 30
0.0
 42
0.4142135623731
  0
VERTEX
  8
0
 10
-659.9000000000000
 20
221.7750000000000
 30
0.0
  0
VERTEX
  8
0
 10
-654.5999999999998
 20
221.7750000000000
 30
0.0
 42
0.4142135623731
  0
VERTEX
  8
0
 10
-653.9999999999999
 20
222.3750000000000
 30
0.0
  0
VERTEX
  8
0
 10
-653.9999999999999
 20
224.7750000000000
 30
0.0
  0
VERTEX
  8
0
 10
-650.4999999999999
 20
224.7750000000000
 30
0.0
  0
VERTEX
  8
0
 10
-650.4999999999999
 20
222.3750000000000
 30
0.0
 42
0.4142135623731
  0
VERTEX
  8
0
 10
-649.9000000000000
 20
221.7750000000000
 30
0.0
  0
VERTEX
  8
0
 10
-644.5999999999998
 20
221.7750000000000
 30
0.0
 42
0.4142135623731
  0
VERTEX
  8
0
 10
-643.9999999999999
 20
222.3750000000000
 30
0.0
  0
VERTEX
  8
0
 10
-643.9999999999999
 20
224.7750000000000
 30
0.0
  0
VERTEX
  8
0
 10
-640.4999999999999
 20
224.7750000000000
 30
0.0
  0
VERTEX
  8
0
 10
-640.4999999999999
 20
222.3750000000000
 30
0.0
 42
0.4142135623731
  0
VERTEX
  8
0
 10
-639.9000000000000
 20
221.7750000000000
 30
0.0
  0
VERTEX
  8
0
 10
-614.5999999999998
 20
221.7750000000000
 30
0.0
 42
0.4142135623731
  0
VERTEX
  8
0
 10
-613.9999999999999
 20
222.3750000000000
 30
0.0
  0
VERTEX
  8
0
 10
-613.9999999999999
 20
224.7750000000000
 30
0.0
  0
VERTEX
  8
0
 10
-610.4999999999999
 20
224.7750000000000
 30
0.0
  0
VERTEX
  8
0
 10
-610.4999999999999
 20
222.3750000000000
 30
0.0
 42
0.4142135623731
  0
VERTEX
  8
0
 10
-609.9000000000000
 20
221.7750000000000
 30
0.0
  0
VERTEX
  8
0
 10
-604.5999999999998
 20
221.7750000000000
 30
0.0
 42
0.4142135623731
  0
VERTEX
  8
0
 10
-603.9999999999999
 20
222.3750000000000
 30
0.0
  0
VERTEX
  8
0
 10
-603.9999999999999
 20
224.7750000000000
 30
0.0
  0
VERTEX
  8
0
 10
-600.4999999999999
 20
224.7750000000000
 30
0.0
  0
VERTEX
  8
0
 10
-600.4999999999999
 20
222.3750000000000
 30
0.0
 42
0.4142135623731
  0
VERTEX
  8
0
 10
-599.9000000000000
 20
221.7750000000000
 30
0.0
  0
VERTEX
  8
0
 10
-594.5999999999998
 20
221.7750000000000
 30
0.0
 42
0.4142135623731
  0
VERTEX
  8
0
 10
-593.9999999999999
 20
222.3750000000000
 30
0.0
  0
VERTEX
  8
0
 10
-593.9999999999999
 20
224.7750000000000
 30
0.0
  0
VERTEX
  8
0
 10
-590.4999999999999
 20
224.7750000000000
 30
0.0
  0
VERTEX
  8
0
 10
-590.4999999999999
 20
222.3750000000000
 30
0.0
 42
0.4142135623731
  0
VERTEX
  8
0
 10
-589.9000000000000
 20
221.7750000000000
 30
0.0
  0
VERTEX
  8
0
 10
-584.5999999999998
 20
221.7750000000000
 30
0.0
 42
0.4142135623731
  0
VERTEX
  8
0
 10
-583.9999999999999
 20
222.3750000000000
 30
0.0
  0
VERTEX
  8
0
 10
-583.9999999999999
 20
224.7750000000000
 30
0.0
  0
VERTEX
  8
0
 10
-580.4999999999999
 20
224.7750000000000
 30
0.0
  0
VERTEX
  8
0
 10
-580.4999999999999
 20
222.3750000000000
 30
0.0
 42
0.4142135623731
  0
VERTEX
  8
0
 10
-579.9000000000000
 20
221.7750000000000
 30
0.0
  0
VERTEX
  8
0
 10
-574.5999999999998
 20
221.7750000000000
 30
0.0
 42
0.4142135623731
  0
VERTEX
  8
0
 10
-573.9999999999999
 20
222.3750000000000
 30
0.0
  0
VERTEX
  8
0
 10
-573.9999999999999
 20
224.7750000000000
 30
0.0
  0
VERTEX
  8
0
 10
-570.4999999999999
 20
224.7750000000000
 30
0.0
  0
VERTEX
  8
0
 10
-570.4999999999999
 20
222.3750000000000
 30
0.0
 42
0.4142135623731
  0
VERTEX
  8
0
 10
-569.9000000000000
 20
221.7750000000000
 30
0.0
  0
VERTEX
  8
0
 10
-520.0199999999999
 20
221.7750000000000
 30
0.0
 42
0.4142135623731
  0
VERTEX
  8
0
 10
-470.0200000000000
 20
271.7750000000000
 30
0.0
  0
VERTEX
  8
0
 10
-470.0200000000000
 20
314.9750000000000
 30
0.0
  0
VERTEX
  8
0
 10
-466.4200000000001
 20
314.9750000000000
 30
0.0
  0
VERTEX
  8
0
 10
-466.4200000000001
 20
312.5750000000001
 30
0.0
 42
0.4142135623731
  0
VERTEX
  8
0
 10
-465.8200000000002
 20
311.9750000000000
 30
0.0
  0
VERTEX
  8
0
 10
-460.6199999999999
 20
311.9750000000000
 30
0.0
 42
0.4142135623731
  0
VERTEX
  8
0
 10
-460.0200000000000
 20
312.5750000000001
 30
0.0
  0
VERTEX
  8
0
 10
-460.0200000000000
 20
314.9750000000000
 30
0.0
  0
VERTEX
  8
0
 10
-456.5200000000000
 20
314.9750000000000
 30
0.0
  0
VERTEX
  8
0
 10
-456.5200000000000
 20
312.5750000000001
 30
0.0
 42
0.4142135623731
  0
VERTEX
  8
0
 10
-455.9200000000001
 20
311.9750000000000
 30
0.0
  0
VERTEX
  8
0
 10
-450.6199999999999
 20
311.9750000000000
 30
0.0
 42
0.4142135623731
  0
VERTEX
  8
0
 10
-450.0200000000000
 20
312.5750000000001
 30
0.0
  0
VERTEX
  8
0
 10
-450.0200000000000
 20
314.9750000000000
 30
0.0
  0
VERTEX
  8
0
 10
-446.5200000000000
 20
314.9750000000000
 30
0.0
  0
VERTEX
  8
0
 10
-446.5200000000000
 20
312.5750000000001
 30
0.0
 42
0.4142135623731
  0
VERTEX
  8
0
 10
-445.9200000000001
 20
311.9750000000000
 30
0.0
  0
VERTEX
  8
0
 10
-440.6199999999999
 20
311.9750000000000
 30
0.0
 42
0.4142135623731
  0
VERTEX
  8
0
 10
-440.0200000000000
 20
312.5750000000001
 30
0.0
  0
VERTEX
  8
0
 10
-440.0200000000000
 20
314.9750000000000
 30
0.0
  0
VERTEX
  8
0
 10
-436.5200000000000
 20
314.9750000000000
 30
0.0
  0
VERTEX
  8
0
 10
-436.5200000000000
 20
312.5750000000001
 30
0.0
 42
0.4142135623731
  0
VERTEX
  8
0
 10
-435.9200000000001
 20
311.9750000000000
 30
0.0
  0
VERTEX
  8
0
 10
-430.6199999999999
 20
311.9750000000000
 30
0.0
 42
0.4142135623731
  0
VERTEX
  8
0
 10
-430.0200000000000
 20
312.5750000000001
 30
0.0
  0
VERTEX
  8
0
 10
-430.0200000000000
 20
314.9750000000000
 30
0.0
  0
VERTEX
  8
0
 10
-426.5200000000000
 20
314.9750000000000
 30
0.0
  0
VERTEX
  8
0
 10
-426.5200000000000
 20
312.5750000000001
 30
0.0
 42
0.4142135623731
  0
VERTEX
  8
0
 10
-425.9200000000001
 20
311.9750000000000
 30
0.0
  0
VERTEX
  8
0
 10
-420.6199999999999
 20
311.9750000000000
 30
0.0
 42
0.4142135623731
  0
VERTEX
  8
0
 10
-420.0200000000000
 20
312.5750000000001
 30
0.0
  0
VERTEX
  8
0
 10
-420.0200000000000
 20
314.9750000000000
 30
0.0
  0
VERTEX
  8
0
 10
-416.5200000000000
 20
314.9750000000000
 30
0.0
  0
VERTEX
  8
0
 10
-416.5200000000000
 20
312.5750000000001
 30
0.0
 42
0.4142135623731
  0
VERTEX
  8
0
 10
-415.9200000000001
 20
311.9750000000000
 30
0.0
  0
VERTEX
  8
0
 10
-410.6199999999999
 20
311.9750000000000
 30
0.0
 42
0.4142135623731
  0
VERTEX
  8
0
 10
-410.0200000000000
 20
312.5750000000001
 30
0.0
  0
VERTEX
  8
0
 10
-410.0200000000000
 20
314.9750000000000
 30
0.0
  0
VERTEX
  8
0
 10
-406.5200000000000
 20
314.9750000000000
 30
0.0
  0
VERTEX
  8
0
 10
-406.5200000000000
 20
312.5750000000001
 30
0.0
 42
0.4142135623731
  0
VERTEX
  8
0
 10
-405.9200000000001
 20
311.9750000000000
 30
0.0
  0
VERTEX
  8
0
 10
-400.6199999999999
 20
311.9750000000000
 30
0.0
 42
0.4142135623731
  0
VERTEX
  8
0
 10
-400.0200000000000
 20
312.5750000000001
 30
0.0
  0
VERTEX
  8
0
 10
-400.0200000000000
 20
314.9750000000000
 30
0.0
  0
VERTEX
  8
0
 10
-396.5200000000000
 20
314.9750000000000
 30
0.0
  0
VERTEX
  8
0
 10
-396.5200000000000
 20
312.5750000000001
 30
0.0
 42
0.4142135623731
  0
VERTEX
  8
0
 10
-395.9200000000001
 20
311.9750000000000
 30
0.0
  0
VERTEX
  8
0
 10
-390.6199999999999
 20
311.9750000000000
 30
0.0
 42
0.4142135623731
  0
VERTEX
  8
0
 10
-390.0200000000000
 20
312.5750000000001
 30
0.0
  0
VERTEX
  8
0
 10
-390.0200000000000
 20
314.9750000000000
 30
0.0
  0
VERTEX
  8
0
 10
-386.5200000000000
 20
314.9750000000000
 30
0.0
  0
VERTEX
  8
0
 10
-386.5200000000000
 20
312.5750000000001
 30
0.0
 42
0.4142135623731
  0
VERTEX
  8
0
 10
-385.9200000000001
 20
311.9750000000000
 30
0.0
  0
VERTEX
  8
0
 10
-380.6199999999999
 20
311.9750000000000
 30
0.0
 42
0.4142135623731
  0
VERTEX
  8
0
 10
-380.0200000000000
 20
312.5750000000001
 30
0.0
  0
VERTEX
  8
0
 10
-380.0200000000000
 20
314.9750000000000
 30
0.0
  0
VERTEX
  8
0
 10
-376.5200000000000
 20
314.9750000000000
 30
0.0
  0
VERTEX
  8
0
 10
-376.5200000000000
 20
312.5750000000001
 30
0.0
 42
0.4142135623731
  0
VERTEX
  8
0
 10
-375.9200000000001
 20
311.9750000000000
 30
0.0
  0
VERTEX
  8
0
 10
-370.6199999999999
 20
311.9750000000000
 30
0.0
 42
0.4142135623731
  0
VERTEX
  8
0
 10
-370.0200000000000
 20
312.5750000000001
 30
0.0
  0
VERTEX
  8
0
 10
-370.0200000000000
 20
314.9750000000000
 30
0.0
  0
VERTEX
  8
0
 10
-366.5200000000000
 20
314.9750000000000
 30
0.0
  0
VERTEX
  8
0
 10
-366.5200000000000
 20
312.5750000000001
 30
0.0
 42
0.4142135623731
  0
VERTEX
  8
0
 10
-365.9200000000001
 20
311.9750000000000
 30
0.0
  0
VERTEX
  8
0
 10
-360.6199999999999
 20
311.9750000000000
 30
0.0
 42
0.4142135623731
  0
VERTEX
  8
0
 10
-360.0200000000000
 20
312.5750000000001
 30
0.0
  0
VERTEX
  8
0
 10
-360.0200000000000
 20
314.9750000000000
 30
0.0
  0
VERTEX
  8
0
 10
-356.5200000000000
 20
314.9750000000000
 30
0.0
  0
VERTEX
  8
0
 10
-356.5200000000000
 20
312.5750000000001
 30
0.0
 42
0.4142135623731
  0
VERTEX
  8
0
 10
-355.9200000000001
 20
311.9750000000000
 30
0.0
  0
VERTEX
  8
0
 10
-319.1199999999999
 20
311.9750000000000
 30
0.0
 42
0.4142135623731
  0
VERTEX
  8
0
 10
-318.5200000000000
 20
312.5750000000001
 30
0.0
  0
VERTEX
  8
0
 10
-318.5200000000000
 20
314.9750000000000
 30
0.0
  0
VERTEX
  8
0
 10
-315.0200000000000
 20
314.9750000000000
 30
0.0
  0
VERTEX
  8
0
 10
-315.0200000000000
 20
312.5750000000001
 30
0.0
 42
0.4142135623731
  0
VERTEX
  8
0
 10
-314.4200000000001
 20
311.9750000000000
 30
0.0
  0
VERTEX
  8
0
 10
-309.1199999999999
 20
311.9750000000000
 30
0.0
 42
0.4142135623731
  0
VERTEX
  8
0
 10
-308.5200000000000
 20
312.5750000000001
 30
0.0
  0
VERTEX
  8
0
 10
-308.5200000000000
 20
314.9750000000000
 30
0.0
  0
VERTEX
  8
0
 10
-305.0200000000000
 20
314.9750000000000
 30
0.0
  0
VERTEX
  8
0
 10
-305.0200000000000
 20
312.5750000000001
 30
0.0
 42
0.4142135623731
  0
VERTEX
  8
0
 10
-304.4200000000001
 20
311.9750000000000
 30
0.0
  0
VERTEX
  8
0
 10
-299.1199999999999
 20
311.9750000000000
 30
0.0
 42
0.4142135623731
  0
VERTEX
  8
0
 10
-298.5200000000000
 20
312.5750000000001
 30
0.0
  0
VERTEX
  8
0
 10
-298.5200000000000
 20
314.9750000000000
 30
0.0
  0
VERTEX
  8
0
 10
-295.0200000000000
 20
314.9750000000000
 30
0.0
  0
VERTEX
  8
0
 10
-295.0200000000000
 20
312.5750000000001
 30
0.0
 42
0.4142135623731
  0
VERTEX
  8
0
 10
-294.4200000000001
 20
311.9750000000000
 30
0.0
  0
VERTEX
  8
0
 10
-289.1199999999999
 20
311.9750000000000
 30
0.0
 42
0.4142135623731
  0
VERTEX
  8
0
 10
-288.5200000000000
 20
312.5750000000001
 30
0.0
  0
VERTEX
  8
0
 10
-288.5200000000000
 20
314.9750000000000
 30
0.0
  0
VERTEX
  8
0
 10
-285.0200000000000
 20
314.9750000000000
 30
0.0
  0
VERTEX
  8
0
 10
-285.0200000000000
 20
312.5750000000001
 30
0.0
 42
0.4142135623731
  0
VERTEX
  8
0
 10
-284.4200000000001
 20
311.9750000000000
 30
0.0
  0
VERTEX
  8
0
 10
-279.1199999999999
 20
311.9750000000000
 30
0.0
 42
0.4142135623731
  0
VERTEX
  8
0
 10
-278.5200000000000
 20
312.5750000000001
 30
0.0
  0
VERTEX
  8
0
 10
-278.5200000000000
 20
314.9750000000000
 30
0.0
  0
VERTEX
  8
0
 10
-275.0200000000000
 20
314.9750000000000
 30
0.0
  0
VERTEX
  8
0
 10
-275.0200000000000
 20
312.5750000000001
 30
0.0
 42
0.4142135623731
  0
VERTEX
  8
0
 10
-274.4200000000001
 20
311.9750000000000
 30
0.0
  0
VERTEX
  8
0
 10
-269.1199999999999
 20
311.9750000000000
 30
0.0
 42
0.4142135623731
  0
VERTEX
  8
0
 10
-268.5200000000000
 20
312.5750000000001
 30
0.0
  0
VERTEX
  8
0
 10
-268.5200000000000
 20
314.9750000000000
 30
0.0
  0
VERTEX
  8
0
 10
-265.0200000000000
 20
314.9750000000000
 30
0.0
  0
VERTEX
  8
0
 10
-265.0200000000000
 20
312.5750000000001
 30
0.0
 42
0.4142135623731
  0
VERTEX
  8
0
 10
-264.4200000000001
 20
311.9750000000000
 30
0.0
  0
VERTEX
  8
0
 10
-259.1199999999999
 20
311.9750000000000
 30
0.0
 42
0.4142135623731
  0
VERTEX
  8
0
 10
-258.5200000000000
 20
312.5750000000001
 30
0.0
  0
VERTEX
  8
0
 10
-258.5200000000000
 20
314.9750000000000
 30
0.0
  0
VERTEX
  8
0
 10
-255.0200000000000
 20
314.9750000000000
 30
0.0
  0
VERTEX
  8
0
 10
-255.0200000000000
 20
312.5750000000001
 30
0.0
 42
0.4142135623731
  0
VERTEX
  8
0
 10
-254.4200000000001
 20
311.9750000000000
 30
0.0
  0
VERTEX
  8
0
 10
-249.1199999999999
 20
311.9750000000000
 30
0.0
 42
0.4142135623731
  0
VERTEX
  8
0
 10
-248.5200000000000
 20
312.5750000000001
 30
0.0
  0
VERTEX
  8
0
 10
-248.5200000000000
 20
314.9750000000000
 30
0.0
  0
VERTEX
  8
0
 10
-245.0200000000000
 20
314.9750000000000
 30
0.0
  0
VERTEX
  8
0
 10
-245.0200000000000
 20
312.5750000000001
 30
0.0
 42
0.4142135623731
  0
VERTEX
  8
0
 10
-244.4200000000001
 20
311.9750000000000
 30
0.0
  0
VERTEX
  8
0
 10
-239.1199999999999
 20
311.9750000000000
 30
0.0
 42
0.4142135623731
  0
VERTEX
  8
0
 10
-238.5200000000000
 20
312.5750000000001
 30
0.0
  0
VERTEX
  8
0
 10
-238.5200000000000
 20
314.9750000000000
 30
0.0
  0
VERTEX
  8
0
 10
-235.0200000000000
 20
314.9750000000000
 30
0.0
  0
VERTEX
  8
0
 10
-235.0200000000000
 20
312.5750000000001
 30
0.0
 42
0.4142135623731
  0
VERTEX
  8
0
 10
-234.4200000000001
 20
311.9750000000000
 30
0.0
  0
VERTEX
  8
0
 10
-229.1199999999999
 20
311.9750000000000
 30
0.0
 42
0.4142135623731
  0
VERTEX
  8
0
 10
-228.5200000000000
 20
312.5750000000001
 30
0.0
  0
VERTEX
  8
0
 10
-228.5200000000000
 20
314.9750000000000
 30
0.0
  0
VERTEX
  8
0
 10
-225.0200000000000
 20
314.9750000000000
 30
0.0
  0
VERTEX
  8
0
 10
-225.0200000000000
 20
312.5750000000001
 30
0.0
 42
0.4142135623731
  0
VERTEX
  8
0
 10
-224.4200000000001
 20
311.9750000000000
 30
0.0
  0
VERTEX
  8
0
 10
-219.1199999999999
 20
311.9750000000000
 30
0.0
 42
0.4142135623731
  0
VERTEX
  8
0
 10
-218.5200000000000
 20
312.5750000000001
 30
0.0
  0
VERTEX
  8
0
 10
-218.5200000000000
 20
314.9750000000000
 30
0.0
  0
VERTEX
  8
0
 10
-215.0200000000000
 20
314.9750000000000
 30
0.0
  0
VERTEX
  8
0
 10
-215.0200000000000
 20
312.5750000000001
 30
0.0
 42
0.4142135623731
  0
VERTEX
  8
0
 10
-214.4200000000001
 20
311.9750000000000
 30
0.0
  0
VERTEX
  8
0
 10
-209.1199999999999
 20
311.9750000000000
 30
0.0
 42
0.4142135623731
  0
VERTEX
  8
0
 10
-208.5200000000000
 20
312.5750000000001
 30
0.0
  0
VERTEX
  8
0
 10
-208.5200000000000
 20
314.9750000000000
 30
0.0
  0
VERTEX
  8
0
 10
-205.0200000000000
 20
314.9750000000000
 30
0.0
  0
VERTEX
  8
0
 10
-205.0200000000000
 20
312.5750000000001
 30
0.0
 42
0.4142135623731
  0
VERTEX
  8
0
 10
-204.4200000000001
 20
311.9750000000000
 30
0.0
  0
VERTEX
  8
0
 10
-199.1199999999999
 20
311.9750000000000
 30
0.0
 42
0.4142135623731
  0
VERTEX
  8
0
 10
-198.5200000000000
 20
312.5750000000001
 30
0.0
  0
VERTEX
  8
0
 10
-198.5200000000000
 20
314.9750000000000
 30
0.0
  0
VERTEX
  8
0
 10
-195.0200000000000
 20
314.9750000000000
 30
0.0
  0
VERTEX
  8
0
 10
-195.0200000000000
 20
312.5750000000001
 30
0.0
 42
0.4142135623731
  0
VERTEX
  8
0
 10
-194.4200000000001
 20
311.9750000000000
 30
0.0
  0
VERTEX
  8
0
 10
-189.1199999999999
 20
311.9750000000000
 30
0.0
 42
0.4142135623731
  0
VERTEX
  8
0
 10
-188.5200000000000
 20
312.5750000000001
 30
0.0
  0
VERTEX
  8
0
 10
-188.5200000000000
 20
314.9750000000000
 30
0.0
  0
VERTEX
  8
0
 10
-185.0200000000000
 20
314.9750000000000
 30
0.0
  0
VERTEX
  8
0
 10
-185.0200000000000
 20
312.5750000000001
 30
0.0
 42
0.4142135623731
  0
VERTEX
  8
0
 10
-184.4200000000001
 20
311.9750000000000
 30
0.0
  0
VERTEX
  8
0
 10
-179.1199999999999
 20
311.9750000000000
 30
0.0
 42
0.4142135623731
  0
VERTEX
  8
0
 10
-178.5200000000000
 20
312.5750000000001
 30
0.0
  0
VERTEX
  8
0
 10
-178.5200000000000
 20
314.9750000000000
 30
0.0
  0
VERTEX
  8
0
 10
-175.0200000000000
 20
314.9750000000000
 30
0.0
  0
VERTEX
  8
0
 10
-175.0200000000000
 20
312.5750000000001
 30
0.0
 42
0.4142135623731
  0
VERTEX
  8
0
 10
-174.4200000000001
 20
311.9750000000000
 30
0.0
  0
VERTEX
  8
0
 10
-169.1199999999999
 20
311.9750000000000
 30
0.0
 42
0.4142135623731
  0
VERTEX
  8
0
 10
-168.5200000000000
 20
312.5750000000001
 30
0.0
  0
VERTEX
  8
0
 10
-168.5200000000000
 20
314.9750000000000
 30
0.0
  0
VERTEX
  8
0
 10
-165.0200000000000
 20
314.9750000000000
 30
0.0
  0
VERTEX
  8
0
 10
-165.0200000000000
 20
312.5750000000001
 30
0.0
 42
0.4142135623731
  0
VERTEX
  8
0
 10
-164.4200000000001
 20
311.9750000000000
 30
0.0
  0
VERTEX
  8
0
 10
-159.1199999999999
 20
311.9750000000000
 30
0.0
 42
0.4142135623731
  0
VERTEX
  8
0
 10
-158.5200000000000
 20
312.5750000000001
 30
0.0
  0
VERTEX
  8
0
 10
-158.5200000000000
 20
314.9750000000000
 30
0.0
  0
VERTEX
  8
0
 10
-155.0200000000000
 20
314.9750000000000
 30
0.0
  0
VERTEX
  8
0
 10
-155.0200000000000
 20
312.5750000000001
 30
0.0
 42
0.4142135623731
  0
VERTEX
  8
0
 10
-154.4200000000001
 20
311.9750000000000
 30
0.0
  0
VERTEX
  8
0
 10
-149.1199999999999
 20
311.9750000000000
 30
0.0
 42
0.4142135623731
  0
VERTEX
  8
0
 10
-148.5200000000000
 20
312.5750000000001
 30
0.0
  0
VERTEX
  8
0
 10
-148.5200000000000
 20
314.9750000000000
 30
0.0
  0
VERTEX
  8
0
 10
-145.0200000000000
 20
314.9750000000000
 30
0.0
  0
VERTEX
  8
0
 10
-145.0200000000000
 20
312.5750000000001
 30
0.0
 42
0.4142135623731
  0
VERTEX
  8
0
 10
-144.4200000000001
 20
311.9750000000000
 30
0.0
  0
VERTEX
  8
0
 10
-139.1199999999999
 20
311.9750000000000
 30
0.0
 42
0.4142135623731
  0
VERTEX
  8
0
 10
-138.5200000000000
 20
312.5750000000001
 30
0.0
  0
VERTEX
  8
0
 10
-138.5200000000000
 20
314.9750000000000
 30
0.0
  0
VERTEX
  8
0
 10
-135.0200000000000
 20
314.9750000000000
 30
0.0
  0
VERTEX
  8
0
 10
-135.0200000000000
 20
312.5750000000001
 30
0.0
 42
0.4142135623731
  0
VERTEX
  8
0
 10
-134.4200000000001
 20
311.9750000000000
 30
0.0
  0
VERTEX
  8
0
 10
-129.1199999999999
 20
311.9750000000000
 30
0.0
 42
0.4142135623731
  0
VERTEX
  8
0
 10
-128.5200000000000
 20
312.5750000000001
 30
0.0
  0
VERTEX
  8
0
 10
-128.5200000000000
 20
314.9750000000000
 30
0.0
  0
VERTEX
  8
0
 10
-125.0200000000000
 20
314.9750000000000
 30
0.0
  0
VERTEX
  8
0
 10
-125.0200000000000
 20
312.5750000000001
 30
0.0
 42
0.4142135623731
  0
VERTEX
  8
0
 10
-124.4200000000001
 20
311.9750000000000
 30
0.0
  0
VERTEX
  8
0
 10
-119.1199999999999
 20
311.9750000000000
 30
0.0
 42
0.4142135623731
  0
VERTEX
  8
0
 10
-118.5200000000000
 20
312.5750000000001
 30
0.0
  0
VERTEX
  8
0
 10
-118.5200000000000
 20
314.9750000000000
 30
0.0
  0
VERTEX
  8
0
 10
-115.0200000000000
 20
314.9750000000000
 30
0.0
  0
VERTEX
  8
0
 10
-115.0200000000000
 20
312.5750000000001
 30
0.0
 42
0.4142135623731
  0
VERTEX
  8
0
 10
-114.4200000000001
 20
311.9750000000000
 30
0.0
  0
VERTEX
  8
0
 10
-109.1199999999999
 20
311.9750000000000
 30
0.0
 42
0.4142135623731
  0
VERTEX
  8
0
 10
-108.5200000000000
 20
312.5750000000001
 30
0.0
  0
VERTEX
  8
0
 10
-108.5200000000000
 20
314.9750000000000
 30
0.0
  0
VERTEX
  8
0
 10
-105.0200000000000
 20
314.9750000000000
 30
0.0
  0
VERTEX
  8
0
 10
-105.0200000000000
 20
312.5750000000001
 30
0.0
 42
0.4142135623731
  0
VERTEX
  8
0
 10
-104.4200000000001
 20
311.9750000000000
 30
0.0
  0
VERTEX
  8
0
 10
-99.1199999999999
 20
311.9750000000000
 30
0.0
 42
0.4142135623731
  0
VERTEX
  8
0
 10
-98.5200000000000
 20
312.5750000000001
 30
0.0
  0
VERTEX
  8
0
 10
-98.5200000000000
 20
314.9750000000000
 30
0.0
  0
VERTEX
  8
0
 10
-95.0200000000000
 20
314.9750000000000
 30
0.0
  0
VERTEX
  8
0
 10
-95.0200000000000
 20
312.5750000000001
 30
0.0
 42
0.4142135623731
  0
VERTEX
  8
0
 10
-94.4200000000001
 20
311.9750000000000
 30
0.0
  0
VERTEX
  8
0
 10
-89.1199999999999
 20
311.9750000000000
 30
0.0
 42
0.4142135623731
  0
VERTEX
  8
0
 10
-88.5200000000000
 20
312.5750000000001
 30
0.0
  0
VERTEX
  8
0
 10
-88.5200000000000
 20
314.9750000000000
 30
0.0
  0
VERTEX
  8
0
 10
-85.0200000000000
 20
314.9750000000000
 30
0.0
  0
VERTEX
  8
0
 10
-85.0200000000000
 20
312.5750000000001
 30
0.0
 42
0.4142135623731
  0
VERTEX
  8
0
 10
-84.4200000000001
 20
311.9750000000000
 30
0.0
  0
VERTEX
  8
0
 10
-79.1199999999999
 20
311.9750000000000
 30
0.0
 42
0.4142135623731
  0
VERTEX
  8
0
 10
-78.5200000000000
 20
312.5750000000001
 30
0.0
  0
VERTEX
  8
0
 10
-78.5200000000000
 20
314.9750000000000
 30
0.0
  0
VERTEX
  8
0
 10
-75.0200000000000
 20
314.9750000000000
 30
0.0
  0
VERTEX
  8
0
 10
-75.0200000000000
 20
312.5750000000001
 30
0.0
 42
0.4142135623731
  0
VERTEX
  8
0
 10
-74.4200000000001
 20
311.9750000000000
 30
0.0
  0
VERTEX
  8
0
 10
-69.1199999999999
 20
311.9750000000000
 30
0.0
 42
0.4142135623731
  0
VERTEX
  8
0
 10
-68.5200000000000
 20
312.5750000000001
 30
0.0
  0
VERTEX
  8
0
 10
-68.5200000000000
 20
314.9750000000000
 30
0.0
  0
VERTEX
  8
0
 10
-65.0200000000000
 20
314.9750000000000
 30
0.0
  0
VERTEX
  8
0
 10
-65.0200000000000
 20
312.5750000000001
 30
0.0
 42
0.4142135623731
  0
VERTEX
  8
0
 10
-64.4200000000001
 20
311.9750000000000
 30
0.0
  0
VERTEX
  8
0
 10
-59.1199999999999
 20
311.9750000000000
 30
0.0
 42
0.4142135623731
  0
VERTEX
  8
0
 10
-58.5200000000000
 20
312.5750000000001
 30
0.0
  0
VERTEX
  8
0
 10
-58.5200000000000
 20
314.9750000000000
 30
0.0
  0
VERTEX
  8
0
 10
-55.0200000000000
 20
314.9750000000000
 30
0.0
  0
VERTEX
  8
0
 10
-55.0200000000000
 20
312.5750000000001
 30
0.0
 42
0.4142135623731
  0
VERTEX
  8
0
 10
-54.4200000000001
 20
311.9750000000000
 30
0.0
  0
VERTEX
  8
0
 10
-49.1199999999999
 20
311.9750000000000
 30
0.0
 42
0.4142135623731
  0
VERTEX
  8
0
 10
-48.5200000000000
 20
312.5750000000001
 30
0.0
  0
VERTEX
  8
0
 10
-48.5200000000000
 20
314.9750000000000
 30
0.0
  0
VERTEX
  8
0
 10
-45.0200000000000
 20
314.9750000000000
 30
0.0
  0
VERTEX
  8
0
 10
-45.0200000000000
 20
312.5750000000001
 30
0.0
 42
0.4142135623731
  0
VERTEX
  8
0
 10
-44.4200000000001
 20
311.9750000000000
 30
0.0
  0
VERTEX
  8
0
 10
-27.0000000000000
 20
311.9750000000000
 30
0.0
 42
0.4142135623731
  0
VERTEX
  8
0
 10
-12.0000000000000
 20
326.9750000000000
 30
0.0
  0
VERTEX
  8
0
 10
-12.0000000000000
 20
382.2739283670929
 30
0.0
 42
-0.5890450164205
  0
VERTEX
  8
0
 10
-9.7051211036503
 20
383.5460005113275
 30
0.0
  0
VERTEX
  8
0
 10
-3.8247981605830
 20
379.8715669248756
 30
0.0
 42
0.5890450164206
  0
VERTEX
  8
0
 10
0.0000000000000
 20
381.9916871652666
 30
0.0
  0
VERTEX
  8
0
 10
0.0000000000000
 20
428.0483128347333
 30
0.0
 42
0.5890450164205
  0
VERTEX
  8
0
 10
-3.8247981605830
 20
430.1684330751244
 30
0.0
  0
VERTEX
  8
0
 10
-9.7051211036503
 20
426.4939994886724
 30
0.0
 42
-0.5890450164205
  0
VERTEX
  8
0
 10
-12.0000000000000
 20
427.7660716329071
 30
0.0
  0
VERTEX
  8
0
 10
-12.0000000000000
 20
431.5147186257614
 30
0.0
 42
-0.1989123673797
  0
VERTEX
  8
0
 10
-10.2426406871193
 20
435.7573593128806
 30
0.0
  0
VERTEX
  8
0
 10
-1.7573593128807
 20
444.2426406871192
 30
0.0
 42
0.1989123673797
  0
VERTEX
  8
0
 10
0.0000000000000
 20
448.4852813742385
 30
0.0
  0
VERTEX
  8
0
 10
0.0000000000000
 20
498.9350000000000
 30
0.0
  0
VERTEX
  8
0
 10
11.0000000000000
 20
509.9350000000001
 30
0.0
  0
VERTEX
  8
0
 10
20.9535000000000
 20
509.9350000000000
 30
0.0
 42
0.4142135623731
  0
VERTEX
  8
0
 10
21.9535000000000
 20
510.9350000000000
 30
0.0
  0
VERTEX
  8
0
 10
21.9535000000000
 20
513.4750000000000
 30
0.0
  0
VERTEX
  8
0
 10
23.4535000000000
 20
514.9750000000000
 30
0.0
  0
VERTEX
  8
0
 10
26.9720000000000
 20
514.9750000000000
 30
0.0
  0
VERTEX
  8
0
 10
29.9720000000000
 20
511.9750000000000
 30
0.0
  0
VERTEX
  8
0
 10
29.9720000000000
 20
485.6950000000000
 30
0.0
  0
VERTEX
  8
0
 10
28.2720000000000
 20
483.9950000000000
 30
0.0
  0
VERTEX
  8
0
 10
21.8970000000000
 20
483.9950000000000
 30
0.0
 42
0.4142135623731
  0
VERTEX
  8
0
 10
20.3970000000000
 20
482.4950000000000
 30
0.0
  0
VERTEX
  8
0
 10
20.3970000000000
 20
472.4750000000000
 30
0.0
 42
0.4142135623731
  0
VERTEX
  8
0
 10
28.3970000000000
 20
464.4750000000000
 30
0.0
  0
VERTEX
  8
0
 10
47.5685000000000
 20
464.4750000000000
 30
0.0
 42
0.4142135623731
  0
VERTEX
  8
0
 10
55.5685000000000
 20
472.4750000000000
 30
0.0
  0
VERTEX
  8
0
 10
55.5685000000000
 20
482.4950000000000
 30
0.0
 42
0.4142135623731
  0
VERTEX
  8
0
 10
54.0685000000000
 20
483.9950000000000
 30
0.0
  0
VERTEX
  8
0
 10
47.6935000000000
 20
483.9950000000000
 30
0.0
  0
VERTEX
  8
0
 10
45.9935000000000
 20
485.6950000000001
 30
0.0
  0
VERTEX
  8
0
 10
45.9935000000000
 20
511.9750000000000
 30
0.0
  0
VERTEX
  8
0
 10
48.9935000000000
 20
514.9750000000000
 30
0.0
  0
VERTEX
  8
0
 10
52.4385000000000
 20
514.9750000000000
 30
0.0
  0
VERTEX
  8
0
 10
53.9385000000000
 20
513.4750000000000
 30
0.0
  0
VERTEX
  8
0
 10
53.9385000000000
 20
510.9350000000000
 30
0.0
 42
0.4142135623731
  0
VERTEX
  8
0
 10
54.9385000000000
 20
509.9350000000000
 30
0.0
  0
VERTEX
  8
0
 10
64.9770000000000
 20
509.9350000000000
 30
0.0
  0
VERTEX
  8
0
 10
75.9770000000000
 20
498.9350000000000
 30
0.0
  0
VERTEX
  8
0
 10
75.9770000000000
 20
359.4543069110032
 30
0.0
 42
-0.1858059700617
  0
VERTEX
  8
0
 10
74.4286129032258
 20
355.4314792289077
 30
0.0
 42
0.1858059700617
  0
VERTEX
  8
0
 10
67.9770000000000
 20
338.6696972201767
 30
0.0
  0
VERTEX
  8
0
 10
67.9770000000000
 20
244.9750000000000
 30
0.0
 42
0.4142135623731
  0
VERTEX
  8
0
 10
75.9770000000000
 20
236.9750000000000
 30
0.0
  0
VERTEX
  8
0
 10
89.3985000000000
 20
236.9750000000000
 30
0.0
 42
0.4142135623731
  0
VERTEX
  8
0
 10
89.9985000000000
 20
237.5750000000000
 30
0.0
  0
VERTEX
  8
0
 10
89.9985000000000
 20
239.9750000000000
 30
0.0
  0
VERTEX
  8
0
 10
96.9985000000000
 20
239.9750000000000
 30
0.0
  0
VERTEX
  8
0
 10
96.9985000000000
 20
237.5750000000000
 30
0.0
 42
0.4142135623731
  0
VERTEX
  8
0
 10
97.5985000000000
 20
236.9750000000000
 30
0.0
  0
VERTEX
  8
0
 10
104.3985000000000
 20
236.9750000000000
 30
0.0
 42
0.4142135623731
  0
VERTEX
  8
0
 10
104.9985000000000
 20
237.5750000000000
 30
0.0
  0
VERTEX
  8
0
 10
104.9985000000000
 20
239.9750000000000
 30
0.0
  0
VERTEX
  8
0
 10
111.9985000000000
 20
239.9750000000000
 30
0.0
  0
VERTEX
  8
0
 10
111.9985000000000
 20
237.5750000000000
 30
0.0
 42
0.4142135623731
  0
VERTEX
  8
0
 10
112.5985000000000
 20
236.9750000000000
 30
0.0
  0
VERTEX
  8
0
 10
119.3985000000000
 20
236.9750000000000
 30
0.0
 42
0.4142135623731
  0
VERTEX
  8
0
 10
119.9985000000000
 20
237.5750000000000
 30
0.0
  0
VERTEX
  8
0
 10
119.9985000000000
 20
239.9750000000000
 30
0.0
  0
VERTEX
  8
0
 10
126.9985000000000
 20
239.9750000000000
 30
0.0
  0
VERTEX
  8
0
 10
126.9985000000000
 20
237.5750000000000
 30
0.0
 42
0.4142135623731
  0
VERTEX
  8
0
 10
127.5985000000000
 20
236.9750000000000
 30
0.0
  0
VERTEX
  8
0
 10
134.3985000000000
 20
236.9750000000000
 30
0.0
 42
0.4142135623731
  0
VERTEX
  8
0
 10
134.9985000000000
 20
237.5750000000000
 30
0.0
  0
VERTEX
  8
0
 10
134.9985000000000
 20
239.9750000000000
 30
0.0
  0
VERTEX
  8
0
 10
141.9985000000000
 20
239.9750000000000
 30
0.0
  0
VERTEX
  8
0
 10
141.9985000000000
 20
237.5750000000000
 30
0.0
 42
0.4142135623731
  0
VERTEX
  8
0
 10
142.5985000000000
 20
236.9750000000000
 30
0.0
  0
VERTEX
  8
0
 10
149.3985000000000
 20
236.9750000000000
 30
0.0
 42
0.4142135623731
  0
VERTEX
  8
0
 10
149.9985000000000
 20
237.5750000000000
 30
0.0
  0
VERTEX
  8
0
 10
149.9985000000000
 20
239.9750000000000
 30
0.0
  0
VERTEX
  8
0
 10
156.9985000000000
 20
239.9750000000000
 30
0.0
  0
VERTEX
  8
0
 10
156.9985000000000
 20
237.5750000000000
 30
0.0
 42
0.4142135623731
  0
VERTEX
  8
0
 10
157.5985000000000
 20
236.9750000000000
 30
0.0
  0
VERTEX
  8
0
 10
167.5000000000000
 20
236.9750000000000
 30
0.0
 42
0.4142135623731
  0
VERTEX
  8
0
 10
175.5000000000000
 20
244.9750000000000
 30
0.0
  0
VERTEX
  8
0
 10
175.5000000000000
 20
506.9350000000000
 30
0.0
  0
VERTEX
  8
0
 10
178.5000000000000
 20
509.9350000000001
 30
0.0
  0
VERTEX
  8
0
 10
180.9999999999999
 20
509.9350000000001
 30
0.0
  0
VERTEX
  8
0
 10
190.9535000000000
 20
509.9350000000000
 30
0.0
 42
0.4142135623731
  0
VERTEX
  8
0
 10
191.9535000000000
 20
510.9350000000000
 30
0.0
  0
VERTEX
  8
0
 10
191.9535000000000
 20
513.4750000000000
 30
0.0
  0
VERTEX
  8
0
 10
193.4535000000000
 20
514.9750000000000
 30
0.0
  0
VERTEX
  8
0
 10
196.9720000000000
 20
514.9750000000000
 30
0.0
  0
VERTEX
  8
0
 10
199.9720000000000
 20
511.9750000000000
 30
0.0
  0
VERTEX
  8
0
 10
199.9720000000000
 20
485.6950000000000
 30
0.0
  0
VERTEX
  8
0
 10
198.2720000000000
 20
483.9950000000000
 30
0.0
  0
VERTEX
  8
0
 10
191.8970000000000
 20
483.9950000000000
 30
0.0
 42
0.4142135623731
  0
VERTEX
  8
0
 10
190.3970000000000
 20
482.4950000000000
 30
0.0
  0
VERTEX
  8
0
 10
190.3970000000000
 20
472.4750000000000
 30
0.0
 42
0.4142135623731
  0
VERTEX
  8
0
 10
198.3970000000000
 20
464.4750000000000
 30
0.0
  0
VERTEX
  8
0
 10
217.5685000000000
 20
464.4750000000000
 30
0.0
 42
0.4142135623731
  0
VERTEX
  8
0
 10
225.5685000000000
 20
472.4750000000000
 30
0.0
  0
VERTEX
  8
0
 10
225.5685000000000
 20
482.4950000000000
 30
0.0
 42
0.4142135623731
  0
VERTEX
  8
0
 10
224.0685000000000
 20
483.9950000000000
 30
0.0
  0
VERTEX
  8
0
 10
217.6935000000000
 20
483.9950000000000
 30
0.0
  0
VERTEX
  8
0
 10
215.9935000000000
 20
485.6950000000001
 30
0.0
  0
VERTEX
  8
0
 10
215.9935000000000
 20
511.9750000000000
 30
0.0
  0
VERTEX
  8
0
 10
218.9935000000000
 20
514.9750000000000
 30
0.0
  0
VERTEX
  8
0
 10
222.4385000000000
 20
514.9750000000000
 30
0.0
  0
VERTEX
  8
0
 10
223.9385000000000
 20
513.4750000000000
 30
0.0
  0
VERTEX
  8
0
 10
223.9385000000000
 20
510.9350000000000
 30
0.0
 42
0.4142135623731
  0
VERTEX
  8
0
 10
224.9385000000000
 20
509.9350000000000
 30
0.0
  0
VERTEX
  8
0
 10
234.9770000000000
 20
509.9350000000000
 30
0.0
  0
VERTEX
  8
0
 10
237.4770000000000
 20
509.9350000000000
 30
0.0
  0
VERTEX
  8
0
 10
240.4770000000000
 20
506.9350000000000
 30
0.0
  0
VERTEX
  8
0
 10
240.4770000000000
 20
244.9750000000000
 30
0.0
 42
0.4142135623731
  0
VERTEX
  8
0
 10
248.4770000000000
 20
236.9750000000000
 30
0.0
  0
VERTEX
  8
0
 10
251.8985000000000
 20
236.9750000000000
 30
0.0
 42
0.4142135623731
  0
VERTEX
  8
0
 10
252.4985000000000
 20
237.5750000000000
 30
0.0
  0
VERTEX
  8
0
 10
252.4985000000000
 20
239.9750000000000
 30
0.0
  0
VERTEX
  8
0
 10
259.4985000000000
 20
239.9750000000000
 30
0.0
  0
VERTEX
  8
0
 10
259.4985000000000
 20
237.5750000000000
 30
0.0
 42
0.4142135623731
  0
VERTEX
  8
0
 10
260.0985000000000
 20
236.9750000000000
 30
0.0
  0
VERTEX
  8
0
 10
266.8985000000000
 20
236.9750000000000
 30
0.0
 42
0.4142135623731
  0
VERTEX
  8
0
 10
267.4985000000000
 20
237.5750000000000
 30
0.0
  0
VERTEX
  8
0
 10
267.4985000000000
 20
239.9750000000000
 30
0.0
  0
VERTEX
  8
0
 10
274.4985000000000
 20
239.9750000000000
 30
0.0
  0
VERTEX
  8
0
 10
274.4985000000000
 20
237.5750000000000
 30
0.0
 42
0.4142135623731
  0
VERTEX
  8
0
 10
275.0985000000000
 20
236.9750000000000
 30
0.0
  0
VERTEX
  8
0
 10
281.8985000000000
 20
236.9750000000000
 30
0.0
 42
0.4142135623731
  0
VERTEX
  8
0
 10
282.4985000000000
 20
237.5750000000000
 30
0.0
  0
VERTEX
  8
0
 10
282.4985000000000
 20
239.9750000000000
 30
0.0
  0
VERTEX
  8
0
 10
289.4985000000000
 20
239.9750000000000
 30
0.0
  0
VERTEX
  8
0
 10
289.4985000000000
 20
237.5750000000000
 30
0.0
 42
0.4142135623731
  0
VERTEX
  8
0
 10
290.0985000000000
 20
236.9750000000000
 30
0.0
  0
VERTEX
  8
0
 10
296.8985000000000
 20
236.9750000000000
 30
0.0
 42
0.4142135623731
  0
VERTEX
  8
0
 10
297.4985000000000
 20
237.5750000000000
 30
0.0
  0
VERTEX
  8
0
 10
297.4985000000000
 20
239.9750000000000
 30
0.0
  0
VERTEX
  8
0
 10
304.4985000000000
 20
239.9750000000000
 30
0.0
  0
VERTEX
  8
0
 10
304.4985000000000
 20
237.5750000000000
 30
0.0
 42
0.4142135623731
  0
VERTEX
  8
0
 10
305.0985000000000
 20
236.9750000000000
 30
0.0
  0
VERTEX
  8
0
 10
311.8985000000000
 20
236.9750000000000
 30
0.0
 42
0.4142135623731
  0
VERTEX
  8
0
 10
312.4985000000000
 20
237.5750000000000
 30
0.0
  0
VERTEX
  8
0
 10
312.4985000000000
 20
239.9750000000000
 30
0.0
  0
VERTEX
  8
0
 10
319.4985000000000
 20
239.9750000000000
 30
0.0
  0
VERTEX
  8
0
 10
319.4985000000000
 20
237.5750000000000
 30
0.0
 42
0.4142135623731
  0
VERTEX
  8
0
 10
320.0985000000001
 20
236.9750000000000
 30
0.0
  0
VERTEX
  8
0
 10
330.9915000000000
 20
236.9750000000000
 30
0.0
 42
0.4142135623731
  0
VERTEX
  8
0
 10
338.9915000000000
 20
244.9750000000000
 30
0.0
  0
VERTEX
  8
0
 10
338.9915000000000
 20
506.9350000000000
 30
0.0
  0
VERTEX
  8
0
 10
341.9915000000000
 20
509.9350000000001
 30
0.0
  0
VERTEX
  8
0
 10
344.4915000000000
 20
509.9350000000001
 30
0.0
  0
VERTEX
  8
0
 10
354.4450000000001
 20
509.9350000000000
 30
0.0
 42
0.4142135623731
  0
VERTEX
  8
0
 10
355.4450000000001
 20
510.9350000000000
 30
0.0
  0
VERTEX
  8
0
 10
355.4450000000001
 20
513.4750000000000
 30
0.0
  0
VERTEX
  8
0
 10
356.9450000000001
 20
514.9750000000000
 30
0.0
  0
VERTEX
  8
0
 10
360.4635000000000
 20
514.9750000000000
 30
0.0
  0
VERTEX
  8
0
 10
363.4635000000000
 20
511.9750000000000
 30
0.0
  0
VERTEX
  8
0
 10
363.4635000000000
 20
485.6950000000000
 30
0.0
  0
VERTEX
  8
0
 10
361.7635000000000
 20
483.9950000000000
 30
0.0
  0
VERTEX
  8
0
 10
355.3885000000000
 20
483.9950000000000
 30
0.0
 42
0.4142135623731
  0
VERTEX
  8
0
 10
353.8885000000000
 20
482.4950000000000
 30
0.0
  0
VERTEX
  8
0
 10
353.8885000000000
 20
472.4750000000000
 30
0.0
 42
0.4142135623731
  0
VERTEX
  8
0
 10
361.8885000000000
 20
464.4750000000000
 30
0.0
  0
VERTEX
  8
0
 10
381.0600000000000
 20
464.4750000000000
 30
0.0
 42
0.4142135623731
  0
VERTEX
  8
0
 10
389.0600000000000
 20
472.4750000000000
 30
0.0
  0
VERTEX
  8
0
 10
389.0600000000000
 20
482.4950000000000
 30
0.0
 42
0.4142135623731
  0
VERTEX
  8
0
 10
387.5600000000000
 20
483.9950000000000
 30
0.0
  0
VERTEX
  8
0
 10
381.1850000000000
 20
483.9950000000000
 30
0.0
  0
VERTEX
  8
0
 10
379.4850000000000
 20
485.6950000000001
 30
0.0
  0
VERTEX
  8
0
 10
379.4850000000000
 20
511.9750000000000
 30
0.0
  0
VERTEX
  8
0
 10
382.4850000000000
 20
514.9750000000000
 30
0.0
  0
VERTEX
  8
0
 10
385.9300000000000
 20
514.9750000000000
 30
0.0
  0
VERTEX
  8
0
 10
387.4300000000000
 20
513.4750000000000
 30
0.0
  0
VERTEX
  8
0
 10
387.4300000000000
 20
510.9350000000000
 30
0.0
 42
0.4142135623731
  0
VERTEX
  8
0
 10
388.4300000000000
 20
509.9350000000000
 30
0.0
  0
VERTEX
  8
0
 10
398.4685000000000
 20
509.9350000000000
 30
0.0
  0
VERTEX
  8
0
 10
400.9685000000000
 20
509.9350000000000
 30
0.0
  0
VERTEX
  8
0
 10
403.9685000000000
 20
506.9350000000000
 30
0.0
  0
VERTEX
  8
0
 10
403.9685000000000
 20
244.9750000000000
 30
0.0
 42
0.4142135623731
  0
VERTEX
  8
0
 10
411.9685000000000
 20
236.9750000000000
 30
0.0
  0
VERTEX
  8
0
 10
415.8900000000000
 20
236.9750000000000
 30
0.0
 42
0.4142135623731
  0
VERTEX
  8
0
 10
416.4900000000000
 20
237.5750000000000
 30
0.0
  0
VERTEX
  8
0
 10
416.4900000000000
 20
239.9750000000000
 30
0.0
  0
VERTEX
  8
0
 10
423.4900000000000
 20
239.9750000000000
 30
0.0
  0
VERTEX
  8
0
 10
423.4900000000000
 20
237.5750000000000
 30
0.0
 42
0.4142135623731
  0
VERTEX
  8
0
 10
424.0900000000000
 20
236.9750000000000
 30
0.0
  0
VERTEX
  8
0
 10
430.8900000000000
 20
236.9750000000000
 30
0.0
 42
0.4142135623731
  0
VERTEX
  8
0
 10
431.4900000000000
 20
237.5750000000000
 30
0.0
  0
VERTEX
  8
0
 10
431.4900000000000
 20
239.9750000000000
 30
0.0
  0
VERTEX
  8
0
 10
438.4900000000000
 20
239.9750000000000
 30
0.0
  0
VERTEX
  8
0
 10
438.4900000000000
 20
237.5750000000000
 30
0.0
 42
0.4142135623731
  0
VERTEX
  8
0
 10
439.0900000000000
 20
236.9750000000000
 30
0.0
  0
VERTEX
  8
0
 10
445.8900000000000
 20
236.9750000000000
 30
0.0
 42
0.4142135623731
  0
VERTEX
  8
0
 10
446.4900000000000
 20
237.5750000000000
 30
0.0
  0
VERTEX
  8
0
 10
446.4900000000000
 20
239.9750000000000
 30
0.0
  0
VERTEX
  8
0
 10
453.4900000000000
 20
239.9750000000000
 30
0.0
  0
VERTEX
  8
0
 10
453.4900000000000
 20
237.5750000000000
 30
0.0
 42
0.4142135623731
  0
VERTEX
  8
0
 10
454.0900000000000
 20
236.9750000000000
 30
0.0
  0
VERTEX
  8
0
 10
460.8900000000000
 20
236.9750000000000
 30
0.0
 42
0.4142135623731
  0
VERTEX
  8
0
 10
461.4900000000000
 20
237.5750000000000
 30
0.0
  0
VERTEX
  8
0
 10
461.4900000000000
 20
239.9750000000000
 30
0.0
  0
VERTEX
  8
0
 10
468.4900000000000
 20
239.9750000000000
 30
0.0
  0
VERTEX
  8
0
 10
468.4900000000000
 20
237.5750000000000
 30
0.0
 42
0.4142135623731
  0
VERTEX
  8
0
 10
469.0900000000000
 20
236.9750000000000
 30
0.0
  0
VERTEX
  8
0
 10
475.8900000000000
 20
236.9750000000000
 30
0.0
 42
0.4142135623731
  0
VERTEX
  8
0
 10
476.4900000000000
 20
237.5750000000000
 30
0.0
  0
VERTEX
  8
0
 10
476.4900000000000
 20
239.9750000000000
 30
0.0
  0
VERTEX
  8
0
 10
483.4900000000000
 20
239.9750000000000
 30
0.0
  0
VERTEX
  8
0
 10
483.4900000000000
 20
237.5750000000000
 30
0.0
 42
0.4142135623731
  0
VERTEX
  8
0
 10
484.0900000000000
 20
236.9750000000000
 30
0.0
  0
VERTEX
  8
0
 10
494.9880000000001
 20
236.9750000000000
 30
0.0
 42
0.4142135623731
  0
VERTEX
  8
0
 10
502.9880000000001
 20
244.9750000000000
 30
0.0
  0
VERTEX
  8
0
 10
502.9880000000001
 20
506.9350000000000
 30
0.0
  0
VERTEX
  8
0
 10
505.9880000000001
 20
509.9350000000001
 30
0.0
  0
VERTEX
  8
0
 10
508.4879999999999
 20
509.9350000000001
 30
0.0
  0
VERTEX
  8
0
 10
518.4415000000000
 20
509.9350000000000
 30
0.0
 42
0.4142135623731
  0
VERTEX
  8
0
 10
519.4415000000000
 20
510.9350000000000
 30
0.0
  0
VERTEX
  8
0
 10
519.4415000000000
 20
513.4750000000000
 30
0.0
  0
VERTEX
  8
0
 10
520.9415000000000
 20
514.9750000000000
 30
0.0
  0
VERTEX
  8
0
 10
524.4600000000000
 20
514.9750000000000
 30
0.0
  0
VERTEX
  8
0
 10
527.4600000000000
 20
511.9750000000000
 30
0.0
  0
VERTEX
  8
0
 10
527.4600000000000
 20
485.6950000000000
 30
0.0
  0
VERTEX
  8
0
 10
525.7600000000000
 20
483.9950000000000
 30
0.0
  0
VERTEX
  8
0
 10
519.3850000000000
 20
483.9950000000000
 30
0.0
 42
0.4142135623731
  0
VERTEX
  8
0
 10
517.8850000000000
 20
482.4950000000000
 30
0.0
  0
VERTEX
  8
0
 10
517.8850000000000
 20
472.4750000000000
 30
0.0
 42
0.4142135623731
  0
VERTEX
  8
0
 10
525.8850000000000
 20
464.4750000000000
 30
0.0
  0
VERTEX
  8
0
 10
545.0564999999999
 20
464.4750000000000
 30
0.0
 42
0.4142135623731
  0
VERTEX
  8
0
 10
553.0564999999999
 20
472.4750000000000
 30
0.0
  0
VERTEX
  8
0
 10
553.0564999999999
 20
482.4950000000000
 30
0.0
 42
0.4142135623731
  0
VERTEX
  8
0
 10
551.5564999999999
 20
483.9950000000000
 30
0.0
  0
VERTEX
  8
0
 10
545.1814999999999
 20
483.9950000000000
 30
0.0
  0
VERTEX
  8
0
 10
543.4815000000000
 20
485.6950000000001
 30
0.0
  0
VERTEX
  8
0
 10
543.4815000000000
 20
511.9750000000000
 30
0.0
  0
VERTEX
  8
0
 10
546.4815000000000
 20
514.9750000000000
 30
0.0
  0
VERTEX
  8
0
 10
549.9265000000000
 20
514.9750000000000
 30
0.0
  0
VERTEX
  8
0
 10
551.4265000000000
 20
513.4750000000000
 30
0.0
  0
VERTEX
  8
0
 10
551.4265000000000
 20
510.9350000000000
 30
0.0
 42
0.4142135623731
  0
VERTEX
  8
0
 10
552.4265000000000
 20
509.9350000000000
 30
0.0
  0
VERTEX
  8
0
 10
562.4649999999999
 20
509.9350000000000
 30
0.0
  0
VERTEX
  8
0
 10
564.9650000000000
 20
509.9350000000000
 30
0.0
  0
VERTEX
  8
0
 10
567.9650000000000
 20
506.9350000000000
 30
0.0
  0
VERTEX
  8
0
 10
567.9650000000000
 20
244.9750000000000
 30
0.0
 42
0.4142135623731
  0
VERTEX
  8
0
 10
575.9650000000000
 20
236.9750000000000
 30
0.0
  0
VERTEX
  8
0
 10
579.8865000000000
 20
236.9750000000000
 30
0.0
 42
0.4142135623731
  0
VERTEX
  8
0
 10
580.4865000000000
 20
237.5750000000000
 30
0.0
  0
VERTEX
  8
0
 10
580.4865000000000
 20
239.9750000000000
 30
0.0
  0
VERTEX
  8
0
 10
587.4865000000000
 20
239.9750000000000
 30
0.0
  0
VERTEX
  8
0
 10
587.4865000000000
 20
237.5750000000000
 30
0.0
 42
0.4142135623731
  0
VERTEX
  8
0
 10
588.0865000000000
 20
236.9750000000000
 30
0.0
  0
VERTEX
  8
0
 10
594.8865000000000
 20
236.9750000000000
 30
0.0
 42
0.4142135623731
  0
VERTEX
  8
0
 10
595.4865000000000
 20
237.5750000000000
 30
0.0
  0
VERTEX
  8
0
 10
595.4865000000000
 20
239.9750000000000
 30
0.0
  0
VERTEX
  8
0
 10
602.4865000000000
 20
239.9750000000000
 30
0.0
  0
VERTEX
  8
0
 10
602.4865000000000
 20
237.5750000000000
 30
0.0
 42
0.4142135623731
  0
VERTEX
  8
0
 10
603.0865000000000
 20
236.9750000000000
 30
0.0
  0
VERTEX
  8
0
 10
609.8865000000000
 20
236.9750000000000
 30
0.0
 42
0.4142135623731
  0
VERTEX
  8
0
 10
610.4865000000000
 20
237.5750000000000
 30
0.0
  0
VERTEX
  8
0
 10
610.4865000000000
 20
239.9750000000000
 30
0.0
  0
VERTEX
  8
0
 10
617.4865000000000
 20
239.9750000000000
 30
0.0
  0
VERTEX
  8
0
 10
617.4865000000000
 20
237.5750000000000
 30
0.0
 42
0.4142135623731
  0
VERTEX
  8
0
 10
618.0865000000000
 20
236.9750000000000
 30
0.0
  0
VERTEX
  8
0
 10
624.8865000000000
 20
236.9750000000000
 30
0.0
 42
0.4142135623731
  0
VERTEX
  8
0
 10
625.4865000000000
 20
237.5750000000000
 30
0.0
  0
VERTEX
  8
0
 10
625.4865000000000
 20
239.9750000000000
 30
0.0
  0
VERTEX
  8
0
 10
632.4865000000000
 20
239.9750000000000
 30
0.0
  0
VERTEX
  8
0
 10
632.4865000000000
 20
237.5750000000000
 30
0.0
 42
0.4142135623731
  0
VERTEX
  8
0
 10
633.0865000000000
 20
236.9750000000000
 30
0.0
  0
VERTEX
  8
0
 10
639.8865000000000
 20
236.9750000000000
 30
0.0
 42
0.4142135623731
  0
VERTEX
  8
0
 10
640.4865000000000
 20
237.5750000000000
 30
0.0
  0
VERTEX
  8
0
 10
640.4865000000000
 20
239.9750000000000
 30
0.0
  0
VERTEX
  8
0
 10
647.4865000000000
 20
239.9750000000000
 30
0.0
  0
VERTEX
  8
0
 10
647.4865000000000
 20
237.5750000000000
 30
0.0
 42
0.4142135623731
  0
VERTEX
  8
0
 10
648.0865000000000
 20
236.9750000000000
 30
0.0
  0
VERTEX
  8
0
 10
658.9830000000001
 20
236.9750000000000
 30
0.0
 42
0.4142135623731
  0
VERTEX
  8
0
 10
666.9830000000001
 20
244.9750000000000
 30
0.0
  0
VERTEX
  8
0
 10
666.9830000000001
 20
502.9350000000000
 30
0.0
  0
VERTEX
  8
0
 10
673.9830000000001
 20
509.9350000000001
 30
0.0
  0
VERTEX
  8
0
 10
682.4365000000000
 20
509.9350000000000
 30
0.0
 42
0.4142135623731
  0
VERTEX
  8
0
 10
683.4365000000000
 20
510.9350000000000
 30
0.0
  0
VERTEX
  8
0
 10
683.4365000000000
 20
513.4750000000000
 30
0.0
  0
VERTEX
  8
0
 10
684.9365000000000
 20
514.9750000000000
 30
0.0
  0
VERTEX
  8
0
 10
688.4549999999999
 20
514.9750000000000
 30
0.0
  0
VERTEX
  8
0
 10
691.4549999999999
 20
511.9750000000000
 30
0.0
  0
VERTEX
  8
0
 10
691.4549999999999
 20
485.6950000000000
 30
0.0
  0
VERTEX
  8
0
 10
689.7550000000000
 20
483.9950000000000
 30
0.0
  0
VERTEX
  8
0
 10
683.3800000000000
 20
483.9950000000000
 30
0.0
 42
0.4142135623731
  0
VERTEX
  8
0
 10
681.8800000000000
 20
482.4950000000000
 30
0.0
  0
VERTEX
  8
0
 10
681.8800000000000
 20
472.4750000000000
 30
0.0
 42
0.4142135623731
  0
VERTEX
  8
0
 10
689.8800000000000
 20
464.4750000000000
 30
0.0
  0
VERTEX
  8
0
 10
709.0515000000000
 20
464.4750000000000
 30
0.0
 42
0.4142135623731
  0
VERTEX
  8
0
 10
717.0515000000000
 20
472.4750000000000
 30
0.0
  0
VERTEX
  8
0
 10
717.0515000000000
 20
482.4950000000000
 30
0.0
 42
0.4142135623731
  0
VERTEX
  8
0
 10
715.5515000000000
 20
483.9950000000000
 30
0.0
  0
VERTEX
  8
0
 10
709.1765000000000
 20
483.9950000000000
 30
0.0
  0
VERTEX
  8
0
 10
707.4765000000000
 20
485.6950000000001
 30
0.0
  0
VERTEX
  8
0
 10
707.4765000000000
 20
511.9750000000000
 30
0.0
  0
VERTEX
  8
0
 10
710.4765000000000
 20
514.9750000000000
 30
0.0
  0
VERTEX
  8
0
 10
713.9214999999999
 20
514.9750000000000
 30
0.0
  0
VERTEX
  8
0
 10
715.4214999999999
 20
513.4750000000000
 30
0.0
  0
VERTEX
  8
0
 10
715.4214999999999
 20
510.9350000000000
 30
0.0
 42
0.4142135623731
  0
VERTEX
  8
0
 10
716.4214999999999
 20
509.9350000000000
 30
0.0
  0
VERTEX
  8
0
 10
724.9600000000000
 20
509.9350000000000
 30
0.0
  0
VERTEX
  8
0
 10
731.9600000000000
 20
502.9350000000000
 30
0.0
  0
VERTEX
  8
0
 10
731.9600000000000
 20
244.9750000000000
 30
0.0
 42
0.4142135623731
  0
VERTEX
  8
0
 10
739.9600000000000
 20
236.9750000000000
 30
0.0
  0
VERTEX
  8
0
 10
745.8815000000000
 20
236.9750000000000
 30
0.0
 42
0.4142135623731
  0
VERTEX
  8
0
 10
746.4815000000000
 20
237.5750000000000
 30
0.0
  0
VERTEX
  8
0
 10
746.4815000000000
 20
239.9750000000000
 30
0.0
  0
VERTEX
  8
0
 10
753.4815000000000
 20
239.9750000000000
 30
0.0
  0
VERTEX
  8
0
 10
753.4815000000000
 20
237.5750000000000
 30
0.0
 42
0.4142135623731
  0
VERTEX
  8
0
 10
754.0815000000000
 20
236.9750000000000
 30
0.0
  0
VERTEX
  8
0
 10
760.8815000000000
 20
236.9750000000000
 30
0.0
 42
0.4142135623731
  0
VERTEX
  8
0
 10
761.4815000000000
 20
237.5750000000000
 30
0.0
  0
VERTEX
  8
0
 10
761.4815000000000
 20
239.9750000000000
 30
0.0
  0
VERTEX
  8
0
 10
768.4815000000000
 20
239.9750000000000
 30
0.0
  0
VERTEX
  8
0
 10
768.4815000000000
 20
237.5750000000000
 30
0.0
 42
0.4142135623731
  0
VERTEX
  8
0
 10
769.0815000000000
 20
236.9750000000000
 30
0.0
  0
VERTEX
  8
0
 10
775.8815000000000
 20
236.9750000000000
 30
0.0
 42
0.4142135623731
  0
VERTEX
  8
0
 10
776.4815000000000
 20
237.5750000000000
 30
0.0
  0
VERTEX
  8
0
 10
776.4815000000000
 20
239.9750000000000
 30
0.0
  0
VERTEX
  8
0
 10
783.4815000000000
 20
239.9750000000000
 30
0.0
  0
VERTEX
  8
0
 10
783.4815000000000
 20
237.5750000000000
 30
0.0
 42
0.4142135623731
  0
VERTEX
  8
0
 10
784.0815000000000
 20
236.9750000000000
 30
0.0
  0
VERTEX
  8
0
 10
790.8815000000000
 20
236.9750000000000
 30
0.0
 42
0.4142135623731
  0
VERTEX
  8
0
 10
791.4815000000000
 20
237.5750000000000
 30
0.0
  0
VERTEX
  8
0
 10
791.4815000000000
 20
239.9750000000000
 30
0.0
  0
VERTEX
  8
0
 10
798.4815000000000
 20
239.9750000000000
 30
0.0
  0
VERTEX
  8
0
 10
798.4815000000000
 20
237.5750000000000
 30
0.0
 42
0.4142135623731
  0
VERTEX
  8
0
 10
799.0815000000000
 20
236.9750000000000
 30
0.0
  0
VERTEX
  8
0
 10
812.4780000000001
 20
236.9750000000000
 30
0.0
 42
0.4142135623731
  0
VERTEX
  8
0
 10
820.4780000000001
 20
244.9750000000000
 30
0.0
  0
VERTEX
  8
0
 10
820.4780000000001
 20
502.9350000000000
 30
0.0
  0
VERTEX
  8
0
 10
827.4780000000001
 20
509.9350000000001
 30
0.0
  0
VERTEX
  8
0
 10
835.9315000000000
 20
509.9350000000000
 30
0.0
 42
0.4142135623731
  0
VERTEX
  8
0
 10
836.9315000000000
 20
510.9350000000000
 30
0.0
  0
VERTEX
  8
0
 10
836.9315000000000
 20
513.4750000000000
 30
0.0
  0
VERTEX
  8
0
 10
838.4315000000000
 20
514.9750000000000
 30
0.0
  0
VERTEX
  8
0
 10
841.9500000000001
 20
514.9750000000000
 30
0.0
  0
VERTEX
  8
0
 10
844.9500000000001
 20
511.9750000000000
 30
0.0
  0
VERTEX
  8
0
 10
844.9500000000001
 20
485.6950000000000
 30
0.0
  0
VERTEX
  8
0
 10
843.2500000000000
 20
483.9950000000000
 30
0.0
  0
VERTEX
  8
0
 10
836.8750000000000
 20
483.9950000000000
 30
0.0
 42
0.4142135623731
  0
VERTEX
  8
0
 10
835.3750000000000
 20
482.4950000000000
 30
0.0
  0
VERTEX
  8
0
 10
835.3750000000000
 20
472.4750000000000
 30
0.0
 42
0.4142135623731
  0
VERTEX
  8
0
 10
843.3750000000000
 20
464.4750000000000
 30
0.0
  0
VERTEX
  8
0
 10
862.5464999999999
 20
464.4750000000000
 30
0.0
 42
0.4142135623731
  0
VERTEX
  8
0
 10
870.5464999999999
 20
472.4750000000000
 30
0.0
  0
VERTEX
  8
0
 10
870.5464999999999
 20
482.4950000000000
 30
0.0
 42
0.4142135623731
  0
VERTEX
  8
0
 10
869.0464999999999
 20
483.9950000000000
 30
0.0
  0
VERTEX
  8
0
 10
862.6714999999999
 20
483.9950000000000
 30
0.0
  0
VERTEX
  8
0
 10
860.9715000000000
 20
485.6950000000001
 30
0.0
  0
VERTEX
  8
0
 10
860.9715000000000
 20
511.9750000000000
 30
0.0
  0
VERTEX
  8
0
 10
863.9715000000000
 20
514.9750000000000
 30
0.0
  0
VERTEX
  8
0
 10
867.4165000000000
 20
514.9750000000000
 30
0.0
  0
VERTEX
  8
0
 10
868.9165000000000
 20
513.4750000000000
 30
0.0
  0
VERTEX
  8
0
 10
868.9165000000000
 20
510.9350000000000
 30
0.0
 42
0.4142135623731
  0
VERTEX
  8
0
 10
869.9165000000000
 20
509.9350000000000
 30
0.0
  0
VERTEX
  8
0
 10
878.4550000000000
 20
509.9350000000000
 30
0.0
  0
VERTEX
  8
0
 10
885.4550000000000
 20
502.9350000000000
 30
0.0
  0
VERTEX
  8
0
 10
885.4550000000000
 20
244.9750000000000
 30
0.0
 42
0.4142135623731
  0
VERTEX
  8
0
 10
893.4550000000000
 20
236.9750000000000
 30
0.0
  0
VERTEX
  8
0
 10
897.3765000000000
 20
236.9750000000000
 30
0.0
 42
0.4142135623731
  0
VERTEX
  8
0
 10
897.9765000000000
 20
237.5750000000000
 30
0.0
  0
VERTEX
  8
0
 10
897.9765000000000
 20
239.9750000000000
 30
0.0
  0
VERTEX
  8
0
 10
904.9765000000000
 20
239.9750000000000
 30
0.0
  0
VERTEX
  8
0
 10
904.9765000000000
 20
237.5750000000000
 30
0.0
 42
0.4142135623731
  0
VERTEX
  8
0
 10
905.5765000000000
 20
236.9750000000000
 30
0.0
  0
VERTEX
  8
0
 10
912.3765000000000
 20
236.9750000000000
 30
0.0
 42
0.4142135623731
  0
VERTEX
  8
0
 10
912.9765000000000
 20
237.5750000000000
 30
0.0
  0
VERTEX
  8
0
 10
912.9765000000000
 20
239.9750000000000
 30
0.0
  0
VERTEX
  8
0
 10
919.9765000000000
 20
239.9750000000000
 30
0.0
  0
VERTEX
  8
0
 10
919.9765000000000
 20
237.5750000000000
 30
0.0
 42
0.4142135623731
  0
VERTEX
  8
0
 10
920.5765000000000
 20
236.9750000000000
 30
0.0
  0
VERTEX
  8
0
 10
927.3765000000000
 20
236.9750000000000
 30
0.0
 42
0.4142135623731
  0
VERTEX
  8
0
 10
927.9765000000000
 20
237.5750000000000
 30
0.0
  0
VERTEX
  8
0
 10
927.9765000000000
 20
239.9750000000000
 30
0.0
  0
VERTEX
  8
0
 10
934.9765000000000
 20
239.9750000000000
 30
0.0
  0
VERTEX
  8
0
 10
934.9765000000000
 20
237.5750000000000
 30
0.0
 42
0.4142135623731
  0
VERTEX
  8
0
 10
935.5765000000000
 20
236.9750000000000
 30
0.0
  0
VERTEX
  8
0
 10
942.3765000000000
 20
236.9750000000000
 30
0.0
 42
0.4142135623731
  0
VERTEX
  8
0
 10
942.9765000000000
 20
237.5750000000000
 30
0.0
  0
VERTEX
  8
0
 10
942.9765000000000
 20
239.9750000000000
 30
0.0
  0
VERTEX
  8
0
 10
949.9765000000000
 20
239.9750000000000
 30
0.0
  0
VERTEX
  8
0
 10
949.9765000000000
 20
237.5750000000000
 30
0.0
 42
0.4142135623731
  0
VERTEX
  8
0
 10
950.5765000000000
 20
236.9750000000000
 30
0.0
  0
VERTEX
  8
0
 10
957.3765000000000
 20
236.9750000000000
 30
0.0
 42
0.4142135623731
  0
VERTEX
  8
0
 10
957.9765000000000
 20
237.5750000000000
 30
0.0
  0
VERTEX
  8
0
 10
957.9765000000000
 20
239.9750000000000
 30
0.0
  0
VERTEX
  8
0
 10
964.9765000000000
 20
239.9750000000000
 30
0.0
  0
VERTEX
  8
0
 10
964.9765000000000
 20
237.5750000000000
 30
0.0
 42
0.4142135623731
  0
VERTEX
  8
0
 10
965.5765000000000
 20
236.9750000000000
 30
0.0
  0
VERTEX
  8
0
 10
976.4705000000000
 20
236.9750000000000
 30
0.0
 42
0.4142135623731
  0
VERTEX
  8
0
 10
984.4705000000000
 20
244.9750000000000
 30
0.0
  0
VERTEX
  8
0
 10
984.4705000000000
 20
502.9350000000000
 30
0.0
  0
VERTEX
  8
0
 10
991.4705000000000
 20
509.9350000000001
 30
0.0
  0
VERTEX
  8
0
 10
999.9240000000000
 20
509.9350000000000
 30
0.0
 42
0.4142135623731
  0
VERTEX
  8
0
 10
1000.9240000000000
 20
510.9350000000000
 30
0.0
  0
VERTEX
  8
0
 10
1000.9240000000000
 20
513.4750000000000
 30
0.0
  0
VERTEX
  8
0
 10
1002.4240000000000
 20
514.9750000000000
 30
0.0
  0
VERTEX
  8
0
 10
1005.9424999999999
 20
514.9750000000000
 30
0.0
  0
VERTEX
  8
0
 10
1008.9424999999999
 20
511.9750000000000
 30
0.0
  0
VERTEX
  8
0
 10
1008.9424999999999
 20
485.6950000000000
 30
0.0
  0
VERTEX
  8
0
 10
1007.2424999999999
 20
483.9950000000000
 30
0.0
  0
VERTEX
  8
0
 10
1000.8674999999999
 20
483.9950000000000
 30
0.0
 42
0.4142135623731
  0
VERTEX
  8
0
 10
999.3675000000000
 20
482.4950000000000
 30
0.0
  0
VERTEX
  8
0
 10
999.3675000000000
 20
472.4750000000000
 30
0.0
 42
0.4142135623731
  0
VERTEX
  8
0
 10
1007.3674999999999
 20
464.4750000000000
 30
0.0
  0
VERTEX
  8
0
 10
1026.5390000000000
 20
464.4750000000000
 30
0.0
 42
0.4142135623731
  0
VERTEX
  8
0
 10
1034.5390000000000
 20
472.4750000000000
 30
0.0
  0
VERTEX
  8
0
 10
1034.5390000000000
 20
482.4950000000000
 30
0.0
 42
0.4142135623731
  0
VERTEX
  8
0
 10
1033.0390000000000
 20
483.9950000000000
 30
0.0
  0
VERTEX
  8
0
 10
1026.6640000000000
 20
483.9950000000000
 30
0.0
  0
VERTEX
  8
0
 10
1024.9639999999999
 20
485.6950000000001
 30
0.0
  0
VERTEX
  8
0
 10
1024.9639999999999
 20
511.9750000000000
 30
0.0
  0
VERTEX
  8
0
 10
1027.9639999999999
 20
514.9750000000000
 30
0.0
  0
VERTEX
  8
0
 10
1031.4089999999999
 20
514.9750000000000
 30
0.0
  0
VERTEX
  8
0
 10
1032.9089999999999
 20
513.4750000000000
 30
0.0
  0
VERTEX
  8
0
 10
1032.9089999999999
 20
510.9350000000000
 30
0.0
 42
0.4142135623731
  0
VERTEX
  8
0
 10
1033.9089999999999
 20
509.9350000000000
 30
0.0
  0
VERTEX
  8
0
 10
1042.4475000000000
 20
509.9350000000000
 30
0.0
  0
VERTEX
  8
0
 10
1049.4475000000000
 20
502.9349999999999
 30
0.0
  0
VERTEX
  8
0
 10
1049.4475000000000
 20
244.9750000000000
 30
0.0
 42
0.4142135623731
  0
VERTEX
  8
0
 10
1057.4475000000000
 20
236.9750000000000
 30
0.0
  0
VERTEX
  8
0
 10
1061.3690000000001
 20
236.9750000000000
 30
0.0
 42
0.4142135623731
  0
VERTEX
  8
0
 10
1061.9690000000001
 20
237.5750000000000
 30
0.0
  0
VERTEX
  8
0
 10
1061.9690000000001
 20
239.9750000000000
 30
0.0
  0
VERTEX
  8
0
 10
1068.9690000000001
 20
239.9750000000000
 30
0.0
  0
VERTEX
  8
0
 10
1068.9690000000001
 20
237.5750000000000
 30
0.0
 42
0.4142135623731
  0
VERTEX
  8
0
 10
1069.5690000000000
 20
236.9750000000000
 30
0.0
  0
VERTEX
  8
0
 10
1076.3690000000001
 20
236.9750000000000
 30
0.0
 42
0.4142135623731
  0
VERTEX
  8
0
 10
1076.9690000000001
 20
237.5750000000000
 30
0.0
  0
VERTEX
  8
0
 10
1076.9690000000001
 20
239.9750000000000
 30
0.0
  0
VERTEX
  8
0
 10
1083.9690000000001
 20
239.9750000000000
 30
0.0
  0
VERTEX
  8
0
 10
1083.9690000000001
 20
237.5750000000000
 30
0.0
 42
0.4142135623731
  0
VERTEX
  8
0
 10
1084.5690000000000
 20
236.9750000000000
 30
0.0
  0
VERTEX
  8
0
 10
1091.3690000000001
 20
236.9750000000000
 30
0.0
 42
0.4142135623731
  0
VERTEX
  8
0
 10
1091.9690000000001
 20
237.5750000000000
 30
0.0
  0
VERTEX
  8
0
 10
1091.9690000000001
 20
239.9750000000000
 30
0.0
  0
VERTEX
  8
0
 10
1098.9690000000001
 20
239.9750000000000
 30
0.0
  0
VERTEX
  8
0
 10
1098.9690000000001
 20
237.5750000000000
 30
0.0
 42
0.4142135623731
  0
VERTEX
  8
0
 10
1099.5690000000000
 20
236.9750000000000
 30
0.0
  0
VERTEX
  8
0
 10
1106.3690000000001
 20
236.9750000000000
 30
0.0
 42
0.4142135623731
  0
VERTEX
  8
0
 10
1106.9690000000001
 20
237.5750000000000
 30
0.0
  0
VERTEX
  8
0
 10
1106.9690000000001
 20
239.9750000000000
 30
0.0
  0
VERTEX
  8
0
 10
1113.9690000000001
 20
239.9750000000000
 30
0.0
  0
VERTEX
  8
0
 10
1113.9690000000001
 20
237.5750000000000
 30
0.0
 42
0.4142135623731
  0
VERTEX
  8
0
 10
1114.5690000000000
 20
236.9750000000000
 30
0.0
  0
VERTEX
  8
0
 10
1121.3690000000001
 20
236.9750000000000
 30
0.0
 42
0.4142135623731
  0
VERTEX
  8
0
 10
1121.9690000000001
 20
237.5750000000000
 30
0.0
  0
VERTEX
  8
0
 10
1121.9690000000001
 20
239.9750000000000
 30
0.0
  0
VERTEX
  8
0
 10
1128.9690000000001
 20
239.9750000000000
 30
0.0
  0
VERTEX
  8
0
 10
1128.9690000000001
 20
237.5750000000000
 30
0.0
 42
0.4142135623731
  0
VERTEX
  8
0
 10
1129.5690000000000
 20
236.9750000000000
 30
0.0
  0
VERTEX
  8
0
 10
1140.4704999999999
 20
236.9750000000000
 30
0.0
 42
0.4142135623731
  0
VERTEX
  8
0
 10
1148.4704999999999
 20
244.9750000000000
 30
0.0
  0
VERTEX
  8
0
 10
1148.4704999999999
 20
504.5350000000000
 30
0.0
  0
VERTEX
  8
0
 10
1155.8704999999998
 20
511.9350000000000
 30
0.0
  0
VERTEX
  8
0
 10
1167.4240000000000
 20
511.9350000000000
 30
0.0
 42
0.4142135623731
  0
VERTEX
  8
0
 10
1168.9240000000000
 20
513.4350000000000
 30
0.0
  0
VERTEX
  8
0
 10
1168.9240000000000
 20
515.9750000000000
 30
0.0
  0
VERTEX
  8
0
 10
1170.4240000000000
 20
517.4750000000000
 30
0.0
  0
VERTEX
  8
0
 10
1174.9379999999999
 20
517.4750000000000
 30
0.0
  0
VERTEX
  8
0
 10
1177.4379999999999
 20
514.9750000000000
 30
0.0
  0
VERTEX
  8
0
 10
1177.4379999999999
 20
478.6950000000000
 30
0.0
  0
VERTEX
  8
0
 10
1175.7379999999998
 20
476.9950000000000
 30
0.0
  0
VERTEX
  8
0
 10
1168.3629999999998
 20
476.9950000000000
 30
0.0
 42
0.4142135623731
  0
VERTEX
  8
0
 10
1166.3629999999998
 20
474.9950000000000
 30
0.0
  0
VERTEX
  8
0
 10
1166.3629999999998
 20
458.4750000000000
 30
0.0
 42
0.4142135623731
  0
VERTEX
  8
0
 10
1171.3629999999998
 20
453.4750000000000
 30
0.0
  0
VERTEX
  8
0
 10
1205.5390000000000
 20
453.4750000000000
 30
0.0
 42
0.4142135623731
  0
VERTEX
  8
0
 10
1210.5390000000000
 20
458.4750000000000
 30
0.0
  0
VERTEX
  8
0
 10
1210.5390000000000
 20
474.9950000000000
 30
0.0
 42
0.4142135623731
  0
VERTEX
  8
0
 10
1208.5390000000000
 20
476.9950000000000
 30
0.0
  0
VERTEX
  8
0
 10
1201.1640000000000
 20
476.9950000000000
 30
0.0
  0
VERTEX
  8
0
 10
1199.4639999999999
 20
478.6950000000002
 30
0.0
  0
VERTEX
  8
0
 10
1199.4639999999999
 20
515.4750000000000
 30
0.0
  0
VERTEX
  8
0
 10
1201.4639999999999
 20
517.4750000000000
 30
0.0
  0
VERTEX
  8
0
 10
1206.4089999999999
 20
517.4750000000000
 30
0.0
  0
VERTEX
  8
0
 10
1207.9089999999999
 20
515.9750000000000
 30
0.0
  0
VERTEX
  8
0
 10
1207.9089999999999
 20
513.4350000000000
 30
0.0
 42
0.4142135623731
  0
VERTEX
  8
0
 10
1209.4089999999999
 20
511.9350000000000
 30
0.0
  0
VERTEX
  8
0
 10
1221.0474999999999
 20
511.9350000000000
 30
0.0
  0
VERTEX
  8
0
 10
1228.4475000000000
 20
504.5350000000000
 30
0.0
  0
VERTEX
  8
0
 10
1228.4475000000000
 20
244.9750000000000
 30
0.0
 42
0.4142135623731
  0
VERTEX
  8
0
 10
1236.4475000000000
 20
236.9750000000000
 30
0.0
  0
VERTEX
  8
0
 10
1245.3690000000001
 20
236.9750000000000
 30
0.0
 42
0.4142135623731
  0
VERTEX
  8
0
 10
1245.9690000000001
 20
237.5750000000000
 30
0.0
  0
VERTEX
  8
0
 10
1245.9690000000001
 20
239.9750000000000
 30
0.0
  0
VERTEX
  8
0
 10
1252.9690000000001
 20
239.9750000000000
 30
0.0
  0
VERTEX
  8
0
 10
1252.9690000000001
 20
237.5750000000000
 30
0.0
 42
0.4142135623731
  0
VERTEX
  8
0
 10
1253.5690000000000
 20
236.9750000000000
 30
0.0
  0
VERTEX
  8
0
 10
1260.3690000000001
 20
236.9750000000000
 30
0.0
 42
0.4142135623731
  0
VERTEX
  8
0
 10
1260.9690000000001
 20
237.5750000000000
 30
0.0
  0
VERTEX
  8
0
 10
1260.9690000000001
 20
239.9750000000000
 30
0.0
  0
VERTEX
  8
0
 10
1267.9690000000001
 20
239.9750000000000
 30
0.0
  0
VERTEX
  8
0
 10
1267.9690000000001
 20
237.5750000000000
 30
0.0
 42
0.4142135623731
  0
VERTEX
  8
0
 10
1268.5690000000000
 20
236.9750000000000
 30
0.0
  0
VERTEX
  8
0
 10
1275.3690000000001
 20
236.9750000000000
 30
0.0
 42
0.4142135623731
  0
VERTEX
  8
0
 10
1275.9690000000001
 20
237.5750000000000
 30
0.0
  0
VERTEX
  8
0
 10
1275.9690000000001
 20
239.9750000000000
 30
0.0
  0
VERTEX
  8
0
 10
1282.9690000000001
 20
239.9750000000000
 30
0.0
  0
VERTEX
  8
0
 10
1282.9690000000001
 20
237.5750000000000
 30
0.0
 42
0.4142135623731
  0
VERTEX
  8
0
 10
1283.5690000000000
 20
236.9750000000000
 30
0.0
  0
VERTEX
  8
0
 10
1290.3690000000001
 20
236.9750000000000
 30
0.0
 42
0.4142135623731
  0
VERTEX
  8
0
 10
1290.9690000000001
 20
237.5750000000000
 30
0.0
  0
VERTEX
  8
0
 10
1290.9690000000001
 20
239.9750000000000
 30
0.0
  0
VERTEX
  8
0
 10
1297.9690000000001
 20
239.9750000000000
 30
0.0
  0
VERTEX
  8
0
 10
1297.9690000000001
 20
237.5750000000000
 30
0.0
 42
0.4142135623731
  0
VERTEX
  8
0
 10
1298.5690000000000
 20
236.9750000000000
 30
0.0
  0
VERTEX
  8
0
 10
1305.3690000000001
 20
236.9750000000000
 30
0.0
 42
0.4142135623731
  0
VERTEX
  8
0
 10
1305.9690000000001
 20
237.5750000000000
 30
0.0
  0
VERTEX
  8
0
 10
1305.9690000000001
 20
239.9750000000000
 30
0.0
  0
VERTEX
  8
0
 10
1312.9690000000001
 20
239.9750000000000
 30
0.0
  0
VERTEX
  8
0
 10
1312.9690000000001
 20
237.5750000000000
 30
0.0
 42
0.4142135623731
  0
VERTEX
  8
0
 10
1313.5690000000000
 20
236.9750000000000
 30
0.0
  0
VERTEX
  8
0
 10
1329.4254999999998
 20
236.9750000000000
 30
0.0
 42
0.4142135623731
  0
VERTEX
  8
0
 10
1337.4254999999998
 20
244.9750000000000
 30
0.0
  0
VERTEX
  8
0
 10
1337.4254999999998
 20
504.5350000000000
 30
0.0
  0
VERTEX
  8
0
 10
1344.8254999999997
 20
511.9350000000000
 30
0.0
  0
VERTEX
  8
0
 10
1356.3789999999999
 20
511.9350000000000
 30
0.0
 42
0.4142135623731
  0
VERTEX
  8
0
 10
1357.8789999999999
 20
513.4350000000000
 30
0.0
  0
VERTEX
  8
0
 10
1357.8789999999999
 20
515.9750000000000
 30
0.0
  0
VERTEX
  8
0
 10
1359.3789999999999
 20
517.4750000000000
 30
0.0
  0
VERTEX
  8
0
 10
1363.8929999999998
 20
517.4750000000000
 30
0.0
  0
VERTEX
  8
0
 10
1366.3929999999998
 20
514.9750000000000
 30
0.0
  0
VERTEX
  8
0
 10
1366.3929999999998
 20
478.6950000000000
 30
0.0
  0
VERTEX
  8
0
 10
1364.6929999999998
 20
476.9950000000000
 30
0.0
  0
VERTEX
  8
0
 10
1357.3179999999998
 20
476.9950000000000
 30
0.0
 42
0.4142135623731
  0
VERTEX
  8
0
 10
1355.3179999999998
 20
474.9950000000000
 30
0.0
  0
VERTEX
  8
0
 10
1355.3179999999998
 20
458.4750000000000
 30
0.0
 42
0.4142135623731
  0
VERTEX
  8
0
 10
1360.3179999999998
 20
453.4750000000000
 30
0.0
  0
VERTEX
  8
0
 10
1394.4939999999999
 20
453.4750000000000
 30
0.0
 42
0.4142135623731
  0
VERTEX
  8
0
 10
1399.4939999999999
 20
458.4750000000000
 30
0.0
  0
VERTEX
  8
0
 10
1399.4939999999999
 20
474.9950000000000
 30
0.0
 42
0.4142135623731
  0
VERTEX
  8
0
 10
1397.4939999999999
 20
476.9950000000000
 30
0.0
  0
VERTEX
  8
0
 10
1390.1189999999999
 20
476.9950000000000
 30
0.0
  0
VERTEX
  8
0
 10
1388.4189999999999
 20
478.6950000000002
 30
0.0
  0
VERTEX
  8
0
 10
1388.4189999999999
 20
515.4750000000000
 30
0.0
  0
VERTEX
  8
0
 10
1390.4189999999999
 20
517.4750000000000
 30
0.0
  0
VERTEX
  8
0
 10
1395.3639999999998
 20
517.4750000000000
 30
0.0
  0
VERTEX
  8
0
 10
1396.8639999999998
 20
515.9750000000000
 30
0.0
  0
VERTEX
  8
0
 10
1396.8639999999998
 20
513.4350000000000
 30
0.0
 42
0.4142135623731
  0
VERTEX
  8
0
 10
1398.3639999999998
 20
511.9350000000000
 30
0.0
  0
VERTEX
  8
0
 10
1410.0024999999998
 20
511.9350000000000
 30
0.0
  0
VERTEX
  8
0
 10
1417.4024999999999
 20
504.5349999999997
 30
0.0
  0
VERTEX
  8
0
 10
1417.4024999999999
 20
244.9750000000000
 30
0.0
 42
0.4142135623731
  0
VERTEX
  8
0
 10
1425.4024999999999
 20
236.9750000000000
 30
0.0
  0
VERTEX
  8
0
 10
1444.3285000000001
 20
236.9750000000000
 30
0.0
 42
0.4142135623731
  0
VERTEX
  8
0
 10
1444.9285000000000
 20
237.5750000000000
 30
0.0
  0
VERTEX
  8
0
 10
1444.9285000000000
 20
239.9750000000000
 30
0.0
  0
VERTEX
  8
0
 10
1451.9285000000000
 20
239.9750000000000
 30
0.0
  0
VERTEX
  8
0
 10
1451.9285000000000
 20
237.5750000000000
 30
0.0
 42
0.4142135623731
  0
VERTEX
  8
0
 10
1452.5284999999999
 20
236.9750000000000
 30
0.0
  0
VERTEX
  8
0
 10
1459.3285000000001
 20
236.9750000000000
 30
0.0
 42
0.4142135623731
  0
VERTEX
  8
0
 10
1459.9285000000000
 20
237.5750000000000
 30
0.0
  0
VERTEX
  8
0
 10
1459.9285000000000
 20
239.9750000000000
 30
0.0
  0
VERTEX
  8
0
 10
1466.9285000000000
 20
239.9750000000000
 30
0.0
  0
VERTEX
  8
0
 10
1466.9285000000000
 20
237.5750000000000
 30
0.0
 42
0.4142135623731
  0
VERTEX
  8
0
 10
1467.5284999999999
 20
236.9750000000000
 30
0.0
  0
VERTEX
  8
0
 10
1474.3285000000001
 20
236.9750000000000
 30
0.0
 42
0.4142135623731
  0
VERTEX
  8
0
 10
1474.9285000000000
 20
237.5750000000000
 30
0.0
  0
VERTEX
  8
0
 10
1474.9285000000000
 20
239.9750000000000
 30
0.0
  0
VERTEX
  8
0
 10
1481.9285000000000
 20
239.9750000000000
 30
0.0
  0
VERTEX
  8
0
 10
1481.9285000000000
 20
237.5750000000000
 30
0.0
 42
0.4142135623731
  0
VERTEX
  8
0
 10
1482.5284999999999
 20
236.9750000000000
 30
0.0
  0
VERTEX
  8
0
 10
1489.3285000000001
 20
236.9750000000000
 30
0.0
 42
0.4142135623731
  0
VERTEX
  8
0
 10
1489.9285000000000
 20
237.5750000000000
 30
0.0
  0
VERTEX
  8
0
 10
1489.9285000000000
 20
239.9750000000000
 30
0.0
  0
VERTEX
  8
0
 10
1496.9285000000000
 20
239.9750000000000
 30
0.0
  0
VERTEX
  8
0
 10
1496.9285000000000
 20
237.5750000000000
 30
0.0
 42
0.4142135623731
  0
VERTEX
  8
0
 10
1497.5284999999999
 20
236.9750000000000
 30
0.0
  0
VERTEX
  8
0
 10
1504.3285000000001
 20
236.9750000000000
 30
0.0
 42
0.4142135623731
  0
VERTEX
  8
0
 10
1504.9285000000000
 20
237.5750000000000
 30
0.0
  0
VERTEX
  8
0
 10
1504.9285000000000
 20
239.9750000000000
 30
0.0
  0
VERTEX
  8
0
 10
1511.9285000000000
 20
239.9750000000000
 30
0.0
  0
VERTEX
  8
0
 10
1511.9285000000000
 20
237.5750000000000
 30
0.0
 42
0.4142135623731
  0
VERTEX
  8
0
 10
1512.5284999999999
 20
236.9750000000000
 30
0.0
  0
VERTEX
  8
0
 10
1528.4120000000000
 20
236.9750000000000
 30
0.0
 42
0.4142135623731
  0
VERTEX
  8
0
 10
1536.4120000000000
 20
244.9750000000000
 30
0.0
  0
VERTEX
  8
0
 10
1536.4120000000000
 20
500.5350000000000
 30
0.0
  0
VERTEX
  8
0
 10
1547.8119999999999
 20
511.9350000000000
 30
0.0
  0
VERTEX
  8
0
 10
1559.3645000000001
 20
511.9350000000000
 30
0.0
 42
0.4142135623731
  0
VERTEX
  8
0
 10
1560.8645000000001
 20
513.4350000000000
 30
0.0
  0
VERTEX
  8
0
 10
1560.8645000000001
 20
515.9750000000000
 30
0.0
  0
VERTEX
  8
0
 10
1562.3645000000001
 20
517.4750000000000
 30
0.0
  0
VERTEX
  8
0
 10
1566.8785000000000
 20
517.4750000000000
 30
0.0
  0
VERTEX
  8
0
 10
1569.3785000000000
 20
514.9750000000000
 30
0.0
  0
VERTEX
  8
0
 10
1569.3785000000000
 20
478.6950000000000
 30
0.0
  0
VERTEX
  8
0
 10
1567.6785000000000
 20
476.9950000000000
 30
0.0
  0
VERTEX
  8
0
 10
1560.3035000000000
 20
476.9950000000000
 30
0.0
 42
0.4142135623731
  0
VERTEX
  8
0
 10
1558.3035000000000
 20
474.9950000000000
 30
0.0
  0
VERTEX
  8
0
 10
1558.3035000000000
 20
458.4750000000000
 30
0.0
 42
0.4142135623731
  0
VERTEX
  8
0
 10
1563.3035000000000
 20
453.4750000000000
 30
0.0
  0
VERTEX
  8
0
 10
1597.4795000000001
 20
453.4750000000000
 30
0.0
 42
0.4142135623731
  0
VERTEX
  8
0
 10
1602.4795000000001
 20
458.4750000000000
 30
0.0
  0
VERTEX
  8
0
 10
1602.4795000000001
 20
474.9950000000000
 30
0.0
 42
0.4142135623731
  0
VERTEX
  8
0
 10
1600.4795000000001
 20
476.9950000000000
 30
0.0
  0
VERTEX
  8
0
 10
1593.1045000000001
 20
476.9950000000000
 30
0.0
  0
VERTEX
  8
0
 10
1591.4045000000001
 20
478.6950000000002
 30
0.0
  0
VERTEX
  8
0
 10
1591.4045000000001
 20
515.4750000000000
 30
0.0
  0
VERTEX
  8
0
 10
1593.4045000000001
 20
517.4750000000000
 30
0.0
  0
VERTEX
  8
0
 10
1598.3495000000000
 20
517.4750000000000
 30
0.0
  0
VERTEX
  8
0
 10
1599.8495000000000
 20
515.9750000000000
 30
0.0
  0
VERTEX
  8
0
 10
1599.8495000000000
 20
513.4350000000000
 30
0.0
 42
0.4142135623731
  0
VERTEX
  8
0
 10
1601.3495000000000
 20
511.9350000000000
 30
0.0
  0
VERTEX
  8
0
 10
1612.9849999999999
 20
511.9350000000000
 30
0.0
  0
VERTEX
  8
0
 10
1624.3850000000000
 20
500.5349999999998
 30
0.0
  0
VERTEX
  8
0
 10
1624.3850000000000
 20
244.9750000000000
 30
0.0
 42
0.4142135623731
  0
VERTEX
  8
0
 10
1632.3850000000000
 20
236.9750000000000
 30
0.0
  0
VERTEX
  8
0
 10
1650.3110000000001
 20
236.9750000000000
 30
0.0
 42
0.4142135623731
  0
VERTEX
  8
0
 10
1650.9110000000001
 20
237.5750000000000
 30
0.0
  0
VERTEX
  8
0
 10
1650.9110000000001
 20
239.9750000000000
 30
0.0
  0
VERTEX
  8
0
 10
1657.9110000000001
 20
239.9750000000000
 30
0.0
  0
VERTEX
  8
0
 10
1657.9110000000001
 20
237.5750000000000
 30
0.0
 42
0.4142135623731
  0
VERTEX
  8
0
 10
1658.5110000000000
 20
236.9750000000000
 30
0.0
  0
VERTEX
  8
0
 10
1665.3110000000001
 20
236.9750000000000
 30
0.0
 42
0.4142135623731
  0
VERTEX
  8
0
 10
1665.9110000000001
 20
237.5750000000000
 30
0.0
  0
VERTEX
  8
0
 10
1665.9110000000001
 20
239.9750000000000
 30
0.0
  0
VERTEX
  8
0
 10
1672.9110000000001
 20
239.9750000000000
 30
0.0
  0
VERTEX
  8
0
 10
1672.9110000000001
 20
237.5750000000000
 30
0.0
 42
0.4142135623731
  0
VERTEX
  8
0
 10
1673.5110000000000
 20
236.9750000000000
 30
0.0
  0
VERTEX
  8
0
 10
1680.3110000000001
 20
236.9750000000000
 30
0.0
 42
0.4142135623731
  0
VERTEX
  8
0
 10
1680.9110000000001
 20
237.5750000000000
 30
0.0
  0
VERTEX
  8
0
 10
1680.9110000000001
 20
239.9750000000000
 30
0.0
  0
VERTEX
  8
0
 10
1687.9110000000001
 20
239.9750000000000
 30
0.0
  0
VERTEX
  8
0
 10
1687.9110000000001
 20
237.5750000000000
 30
0.0
 42
0.4142135623731
  0
VERTEX
  8
0
 10
1688.5110000000000
 20
236.9750000000000
 30
0.0
  0
VERTEX
  8
0
 10
1695.3110000000001
 20
236.9750000000000
 30
0.0
 42
0.4142135623731
  0
VERTEX
  8
0
 10
1695.9110000000001
 20
237.5750000000000
 30
0.0
  0
VERTEX
  8
0
 10
1695.9110000000001
 20
239.9750000000000
 30
0.0
  0
VERTEX
  8
0
 10
1702.9110000000001
 20
239.9750000000000
 30
0.0
  0
VERTEX
  8
0
 10
1702.9110000000001
 20
237.5750000000000
 30
0.0
 42
0.4142135623731
  0
VERTEX
  8
0
 10
1703.5110000000000
 20
236.9750000000000
 30
0.0
  0
VERTEX
  8
0
 10
1710.3110000000001
 20
236.9750000000000
 30
0.0
 42
0.4142135623731
  0
VERTEX
  8
0
 10
1710.9110000000001
 20
237.5750000000000
 30
0.0
  0
VERTEX
  8
0
 10
1710.9110000000001
 20
239.9750000000000
 30
0.0
  0
VERTEX
  8
0
 10
1717.9110000000001
 20
239.9750000000000
 30
0.0
  0
VERTEX
  8
0
 10
1717.9110000000001
 20
237.5750000000000
 30
0.0
 42
0.4142135623731
  0
VERTEX
  8
0
 10
1718.5110000000000
 20
236.9750000000000
 30
0.0
  0
VERTEX
  8
0
 10
1729.4120000000000
 20
236.9750000000000
 30
0.0
 42
0.4142135623731
  0
VERTEX
  8
0
 10
1737.4120000000000
 20
244.9750000000000
 30
0.0
  0
VERTEX
  8
0
 10
1737.4120000000000
 20
500.9350000000000
 30
0.0
  0
VERTEX
  8
0
 10
1748.4120000000000
 20
511.9350000000000
 30
0.0
  0
VERTEX
  8
0
 10
1760.3645000000001
 20
511.9350000000000
 30
0.0
 42
0.4142135623731
  0
VERTEX
  8
0
 10
1761.8645000000001
 20
513.4350000000000
 30
0.0
  0
VERTEX
  8
0
 10
1761.8645000000001
 20
515.9750000000000
 30
0.0
  0
VERTEX
  8
0
 10
1763.3645000000001
 20
517.4750000000000
 30
0.0
  0
VERTEX
  8
0
 10
1767.8785000000000
 20
517.4750000000000
 30
0.0
  0
VERTEX
  8
0
 10
1770.3785000000000
 20
514.9750000000000
 30
0.0
  0
VERTEX
  8
0
 10
1770.3785000000000
 20
478.6950000000000
 30
0.0
  0
VERTEX
  8
0
 10
1768.6785000000000
 20
476.9950000000000
 30
0.0
  0
VERTEX
  8
0
 10
1761.3035000000000
 20
476.9950000000000
 30
0.0
 42
0.4142135623731
  0
VERTEX
  8
0
 10
1759.3035000000000
 20
474.9950000000000
 30
0.0
  0
VERTEX
  8
0
 10
1759.3035000000000
 20
458.4750000000000
 30
0.0
 42
0.4142135623731
  0
VERTEX
  8
0
 10
1764.3035000000000
 20
453.4750000000000
 30
0.0
  0
VERTEX
  8
0
 10
1798.4795000000001
 20
453.4750000000000
 30
0.0
 42
0.4142135623731
  0
VERTEX
  8
0
 10
1803.4795000000001
 20
458.4750000000000
 30
0.0
  0
VERTEX
  8
0
 10
1803.4795000000001
 20
474.9950000000000
 30
0.0
 42
0.4142135623731
  0
VERTEX
  8
0
 10
1801.4795000000001
 20
476.9950000000000
 30
0.0
  0
VERTEX
  8
0
 10
1794.1045000000001
 20
476.9950000000000
 30
0.0
  0
VERTEX
  8
0
 10
1792.4045000000001
 20
478.6950000000002
 30
0.0
  0
VERTEX
  8
0
 10
1792.4045000000001
 20
515.4750000000000
 30
0.0
  0
VERTEX
  8
0
 10
1794.4045000000001
 20
517.4750000000000
 30
0.0
  0
VERTEX
  8
0
 10
1799.3495000000000
 20
517.4750000000000
 30
0.0
  0
VERTEX
  8
0
 10
1800.8495000000000
 20
515.9750000000000
 30
0.0
  0
VERTEX
  8
0
 10
1800.8495000000000
 20
513.4350000000000
 30
0.0
 42
0.4142135623731
  0
VERTEX
  8
0
 10
1802.3495000000000
 20
511.9350000000000
 30
0.0
  0
VERTEX
  8
0
 10
1814.3850000000000
 20
511.9350000000000
 30
0.0
  0
VERTEX
  8
0
 10
1825.3850000000000
 20
500.9349999999999
 30
0.0
  0
VERTEX
  8
0
 10
1825.3850000000000
 20
244.9750000000000
 30
0.0
 42
0.4142135623731
  0
VERTEX
  8
0
 10
1833.3850000000000
 20
236.9750000000000
 30
0.0
  0
VERTEX
  8
0
 10
1858.3160000000000
 20
236.9750000000000
 30
0.0
 42
0.4142135623731
  0
VERTEX
  8
0
 10
1858.9159999999999
 20
237.5750000000000
 30
0.0
  0
VERTEX
  8
0
 10
1858.9159999999999
 20
239.9750000000000
 30
0.0
  0
VERTEX
  8
0
 10
1865.9159999999999
 20
239.9750000000000
 30
0.0
  0
VERTEX
  8
0
 10
1865.9159999999999
 20
237.5750000000000
 30
0.0
 42
0.4142135623731
  0
VERTEX
  8
0
 10
1866.5159999999998
 20
236.9750000000000
 30
0.0
  0
VERTEX
  8
0
 10
1873.3160000000000
 20
236.9750000000000
 30
0.0
 42
0.4142135623731
  0
VERTEX
  8
0
 10
1873.9159999999999
 20
237.5750000000000
 30
0.0
  0
VERTEX
  8
0
 10
1873.9159999999999
 20
239.9750000000000
 30
0.0
  0
VERTEX
  8
0
 10
1880.9159999999999
 20
239.9750000000000
 30
0.0
  0
VERTEX
  8
0
 10
1880.9159999999999
 20
237.5750000000000
 30
0.0
 42
0.4142135623731
  0
VERTEX
  8
0
 10
1881.5159999999998
 20
236.9750000000000
 30
0.0
  0
VERTEX
  8
0
 10
1888.3160000000000
 20
236.9750000000000
 30
0.0
 42
0.4142135623731
  0
VERTEX
  8
0
 10
1888.9159999999999
 20
237.5750000000000
 30
0.0
  0
VERTEX
  8
0
 10
1888.9159999999999
 20
239.9750000000000
 30
0.0
  0
VERTEX
  8
0
 10
1895.9159999999999
 20
239.9750000000000
 30
0.0
  0
VERTEX
  8
0
 10
1895.9159999999999
 20
237.5750000000000
 30
0.0
 42
0.4142135623731
  0
VERTEX
  8
0
 10
1896.5159999999998
 20
236.9750000000000
 30
0.0
  0
VERTEX
  8
0
 10
1903.3160000000000
 20
236.9750000000000
 30
0.0
 42
0.4142135623731
  0
VERTEX
  8
0
 10
1903.9159999999999
 20
237.5750000000000
 30
0.0
  0
VERTEX
  8
0
 10
1903.9159999999999
 20
239.9750000000000
 30
0.0
  0
VERTEX
  8
0
 10
1910.9159999999999
 20
239.9750000000000
 30
0.0
  0
VERTEX
  8
0
 10
1910.9159999999999
 20
237.5750000000000
 30
0.0
 42
0.4142135623731
  0
VERTEX
  8
0
 10
1911.5159999999998
 20
236.9750000000000
 30
0.0
  0
VERTEX
  8
0
 10
1918.3160000000000
 20
236.9750000000000
 30
0.0
 42
0.4142135623731
  0
VERTEX
  8
0
 10
1918.9159999999999
 20
237.5750000000000
 30
0.0
  0
VERTEX
  8
0
 10
1918.9159999999999
 20
239.9750000000000
 30
0.0
  0
VERTEX
  8
0
 10
1925.9159999999999
 20
239.9750000000000
 30
0.0
  0
VERTEX
  8
0
 10
1925.9159999999999
 20
237.5750000000000
 30
0.0
 42
0.4142135623731
  0
VERTEX
  8
0
 10
1926.5159999999998
 20
236.9750000000000
 30
0.0
  0
VERTEX
  8
0
 10
1943.3870000000002
 20
236.9750000000000
 30
0.0
 42
0.4142135623731
  0
VERTEX
  8
0
 10
1951.3870000000002
 20
244.9750000000000
 30
0.0
  0
VERTEX
  8
0
 10
1951.3870000000002
 20
480.9999999999999
 30
0.0
  0
VERTEX
  8
0
 10
1966.3600000000001
 20
511.9750000000000
 30
0.0
  0
VERTEX
  8
0
 10
2046.3600000000001
 20
511.9750000000000
 30
0.0
  0
VERTEX
  8
0
 10
2061.3600000000001
 20
481.0000000000002
 30
0.0
  0
VERTEX
  8
0
 10
2061.3600000000001
 20
454.4852813742385
 30
0.0
 42
0.1989123673797
  0
VERTEX
  8
0
 10
2063.1173593128810
 20
450.2426406871192
 30
0.0
  0
VERTEX
  8
0
 10
2071.6026406871192
 20
441.7573593128806
 30
0.0
 42
-0.1989123673797
  0
VERTEX
  8
0
 10
2073.3600000000001
 20
437.5147186257613
 30
0.0
  0
VERTEX
  8
0
 10
2073.3600000000001
 20
427.7660716329072
 30
0.0
 42
-0.5890450164206
  0
VERTEX
  8
0
 10
2071.0651211036502
 20
426.4939994886726
 30
0.0
  0
VERTEX
  8
0
 10
2065.1847981605833
 20
430.1684330751245
 30
0.0
 42
0.5890450164206
  0
VERTEX
  8
0
 10
2061.3600000000001
 20
428.0483128347335
 30
0.0
  0
VERTEX
  8
0
 10
2061.3600000000001
 20
381.9916871652667
 30
0.0
 42
0.5890450164206
  0
VERTEX
  8
0
 10
2065.1847981605833
 20
379.8715669248757
 30
0.0
  0
VERTEX
  8
0
 10
2071.0651211036502
 20
383.5460005113276
 30
0.0
 42
-0.5890450164206
  0
VERTEX
  8
0
 10
2073.3600000000001
 20
382.2739283670929
 30
0.0
  0
VERTEX
  8
0
 10
2073.3600000000001
 20
244.4750000000000
 30
0.0
 42
0.4142135623731
  0
VERTEX
  8
0
 10
2103.3600000000001
 20
214.4750000000000
 30
0.0
  0
VERTEX
  8
0
 10
2286.7960000000003
 20
214.4750000000000
 30
0.0
 42
0.4142135623731
  0
VERTEX
  8
0
 10
2287.3960000000002
 20
215.0750000000000
 30
0.0
  0
VERTEX
  8
0
 10
2287.3960000000002
 20
217.4750000000000
 30
0.0
  0
VERTEX
  8
0
 10
2295.3960000000002
 20
217.4750000000000
 30
0.0
  0
VERTEX
  8
0
 10
2295.3960000000002
 20
215.0750000000000
 30
0.0
 42
0.4142135623731
  0
VERTEX
  8
0
 10
2295.9960000000001
 20
214.4750000000000
 30
0.0
  0
VERTEX
  8
0
 10
2306.7960000000003
 20
214.4750000000000
 30
0.0
 42
0.4142135623731
  0
VERTEX
  8
0
 10
2307.3960000000002
 20
215.0750000000000
 30
0.0
  0
VERTEX
  8
0
 10
2307.3960000000002
 20
217.4750000000000
 30
0.0
  0
VERTEX
  8
0
 10
2315.3960000000002
 20
217.4750000000000
 30
0.0
  0
VERTEX
  8
0
 10
2315.3960000000002
 20
215.0750000000000
 30
0.0
 42
0.4142135623731
  0
VERTEX
  8
0
 10
2315.9960000000001
 20
214.4750000000000
 30
0.0
  0
VERTEX
  8
0
 10
2326.7960000000003
 20
214.4750000000000
 30
0.0
 42
0.4142135623731
  0
VERTEX
  8
0
 10
2327.3960000000002
 20
215.0750000000000
 30
0.0
  0
VERTEX
  8
0
 10
2327.3960000000002
 20
217.4750000000000
 30
0.0
  0
VERTEX
  8
0
 10
2335.3960000000002
 20
217.4750000000000
 30
0.0
  0
VERTEX
  8
0
 10
2335.3960000000002
 20
215.0750000000000
 30
0.0
 42
0.4142135623731
  0
VERTEX
  8
0
 10
2335.9960000000001
 20
214.4750000000000
 30
0.0
  0
VERTEX
  8
0
 10
2346.7960000000003
 20
214.4750000000000
 30
0.0
 42
0.4142135623731
  0
VERTEX
  8
0
 10
2347.3960000000002
 20
215.0750000000000
 30
0.0
  0
VERTEX
  8
0
 10
2347.3960000000002
 20
217.4750000000000
 30
0.0
  0
VERTEX
  8
0
 10
2355.3960000000002
 20
217.4750000000000
 30
0.0
  0
VERTEX
  8
0
 10
2355.3960000000002
 20
215.0750000000000
 30
0.0
 42
0.4142135623731
  0
VERTEX
  8
0
 10
2355.9960000000001
 20
214.4750000000000
 30
0.0
  0
VERTEX
  8
0
 10
2366.7960000000003
 20
214.4750000000000
 30
0.0
 42
0.4142135623731
  0
VERTEX
  8
0
 10
2367.3960000000002
 20
215.0750000000000
 30
0.0
  0
VERTEX
  8
0
 10
2367.3960000000002
 20
217.4750000000000
 30
0.0
  0
VERTEX
  8
0
 10
2375.3960000000002
 20
217.4750000000000
 30
0.0
  0
VERTEX
  8
0
 10
2375.3960000000002
 20
215.0750000000000
 30
0.0
 42
0.4142135623731
  0
VERTEX
  8
0
 10
2375.9960000000001
 20
214.4750000000000
 30
0.0
  0
VERTEX
  8
0
 10
2386.7960000000003
 20
214.4750000000000
 30
0.0
 42
0.4142135623731
  0
VERTEX
  8
0
 10
2387.3960000000002
 20
215.0750000000000
 30
0.0
  0
VERTEX
  8
0
 10
2387.3960000000002
 20
217.4750000000000
 30
0.0
  0
VERTEX
  8
0
 10
2395.3960000000002
 20
217.4750000000000
 30
0.0
  0
VERTEX
  8
0
 10
2395.3960000000002
 20
215.0750000000000
 30
0.0
 42
0.4142135623731
  0
VERTEX
  8
0
 10
2395.9960000000001
 20
214.4750000000000
 30
0.0
  0
VERTEX
  8
0
 10
2406.7960000000003
 20
214.4750000000000
 30
0.0
 42
0.4142135623731
  0
VERTEX
  8
0
 10
2407.3960000000002
 20
215.0750000000000
 30
0.0
  0
VERTEX
  8
0
 10
2407.3960000000002
 20
217.4750000000000
 30
0.0
  0
VERTEX
  8
0
 10
2415.3960000000002
 20
217.4750000000000
 30
0.0
  0
VERTEX
  8
0
 10
2415.3960000000002
 20
215.0750000000000
 30
0.0
 42
0.4142135623731
  0
VERTEX
  8
0
 10
2415.9960000000001
 20
214.4750000000000
 30
0.0
  0
VERTEX
  8
0
 10
2426.7960000000003
 20
214.4750000000000
 30
0.0
 42
0.4142135623731
  0
VERTEX
  8
0
 10
2427.3960000000002
 20
215.0750000000000
 30
0.0
  0
VERTEX
  8
0
 10
2427.3960000000002
 20
217.4750000000000
 30
0.0
  0
VERTEX
  8
0
 10
2435.3960000000002
 20
217.4750000000000
 30
0.0
  0
VERTEX
  8
0
 10
2435.3960000000002
 20
215.0750000000000
 30
0.0
 42
0.4142135623731
  0
VERTEX
  8
0
 10
2435.9960000000001
 20
214.4750000000000
 30
0.0
  0
VERTEX
  8
0
 10
2446.7960000000003
 20
214.4750000000000
 30
0.0
 42
0.4142135623731
  0
VERTEX
  8
0
 10
2447.3960000000002
 20
215.0750000000000
 30
0.0
  0
VERTEX
  8
0
 10
2447.3960000000002
 20
217.4750000000000
 30
0.0
  0
VERTEX
  8
0
 10
2455.3960000000002
 20
217.4750000000000
 30
0.0
  0
VERTEX
  8
0
 10
2455.3960000000002
 20
215.0750000000000
 30
0.0
 42
0.4142135623731
  0
VERTEX
  8
0
 10
2455.9960000000001
 20
214.4750000000000
 30
0.0
  0
VERTEX
  8
0
 10
2477.7960000000003
 20
214.4750000000000
 30
0.0
 42
0.4142135623731
  0
VERTEX
  8
0
 10
2478.3960000000002
 20
215.0750000000000
 30
0.0
  0
VERTEX
  8
0
 10
2478.3960000000002
 20
217.4750000000000
 30
0.0
  0
VERTEX
  8
0
 10
2486.3960000000002
 20
217.4750000000000
 30
0.0
  0
VERTEX
  8
0
 10
2486.3960000000002
 20
215.0750000000000
 30
0.0
 42
0.4142135623731
  0
VERTEX
  8
0
 10
2486.9960000000001
 20
214.4750000000000
 30
0.0
  0
VERTEX
  8
0
 10
2497.7960000000003
 20
214.4750000000000
 30
0.0
 42
0.4142135623731
  0
VERTEX
  8
0
 10
2498.3960000000002
 20
215.0750000000000
 30
0.0
  0
VERTEX
  8
0
 10
2498.3960000000002
 20
217.4750000000000
 30
0.0
  0
VERTEX
  8
0
 10
2506.3960000000002
 20
217.4750000000000
 30
0.0
  0
VERTEX
  8
0
 10
2506.3960000000002
 20
215.0750000000000
 30
0.0
 42
0.4142135623731
  0
VERTEX
  8
0
 10
2506.9960000000001
 20
214.4750000000000
 30
0.0
  0
VERTEX
  8
0
 10
2517.7960000000003
 20
214.4750000000000
 30
0.0
 42
0.4142135623731
  0
VERTEX
  8
0
 10
2518.3960000000002
 20
215.0750000000000
 30
0.0
  0
VERTEX
  8
0
 10
2518.3960000000002
 20
217.4750000000000
 30
0.0
  0
VERTEX
  8
0
 10
2526.3960000000002
 20
217.4750000000000
 30
0.0
  0
VERTEX
  8
0
 10
2526.3960000000002
 20
215.0750000000000
 30
0.0
 42
0.4142135623731
  0
VERTEX
  8
0
 10
2526.9960000000001
 20
214.4750000000000
 30
0.0
  0
VERTEX
  8
0
 10
2537.7960000000003
 20
214.4750000000000
 30
0.0
 42
0.4142135623731
  0
VERTEX
  8
0
 10
2538.3960000000002
 20
215.0750000000000
 30
0.0
  0
VERTEX
  8
0
 10
2538.3960000000002
 20
217.4750000000000
 30
0.0
  0
VERTEX
  8
0
 10
2546.3960000000002
 20
217.4750000000000
 30
0.0
  0
VERTEX
  8
0
 10
2546.3960000000002
 20
215.0750000000000
 30
0.0
 42
0.4142135623731
  0
VERTEX
  8
0
 10
2546.9960000000001
 20
214.4750000000000
 30
0.0
  0
VERTEX
  8
0
 10
2557.7960000000003
 20
214.4750000000000
 30
0.0
 42
0.4142135623731
  0
VERTEX
  8
0
 10
2558.3960000000002
 20
215.0750000000000
 30
0.0
  0
VERTEX
  8
0
 10
2558.3960000000002
 20
217.4750000000000
 30
0.0
  0
VERTEX
  8
0
 10
2566.3960000000002
 20
217.4750000000000
 30
0.0
  0
VERTEX
  8
0
 10
2566.3960000000002
 20
215.0750000000000
 30
0.0
 42
0.4142135623731
  0
VERTEX
  8
0
 10
2566.9960000000001
 20
214.4750000000000
 30
0.0
  0
VERTEX
  8
0
 10
2577.7960000000003
 20
214.4750000000000
 30
0.0
 42
0.4142135623731
  0
VERTEX
  8
0
 10
2578.3960000000002
 20
215.0750000000000
 30
0.0
  0
VERTEX
  8
0
 10
2578.3960000000002
 20
217.4750000000000
 30
0.0
  0
VERTEX
  8
0
 10
2586.3960000000002
 20
217.4750000000000
 30
0.0
  0
VERTEX
  8
0
 10
2586.3960000000002
 20
215.0750000000000
 30
0.0
 42
0.4142135623731
  0
VERTEX
  8
0
 10
2586.9960000000001
 20
214.4750000000000
 30
0.0
  0
VERTEX
  8
0
 10
2614.2960000000003
 20
214.4750000000000
 30
0.0
 42
0.4142135623731
  0
VERTEX
  8
0
 10
2614.8960000000002
 20
215.0750000000000
 30
0.0
  0
VERTEX
  8
0
 10
2614.8960000000002
 20
217.4750000000000
 30
0.0
  0
VERTEX
  8
0
 10
2622.8960000000002
 20
217.4750000000000
 30
0.0
  0
VERTEX
  8
0
 10
2622.8960000000002
 20
215.0750000000000
 30
0.0
 42
0.4142135623731
  0
VERTEX
  8
0
 10
2623.4960000000001
 20
214.4750000000000
 30
0.0
  0
VERTEX
  8
0
 10
2634.2960000000003
 20
214.4750000000000
 30
0.0
 42
0.4142135623731
  0
VERTEX
  8
0
 10
2634.8960000000002
 20
215.0750000000000
 30
0.0
  0
VERTEX
  8
0
 10
2634.8960000000002
 20
217.4750000000000
 30
0.0
  0
VERTEX
  8
0
 10
2642.8960000000002
 20
217.4750000000000
 30
0.0
  0
VERTEX
  8
0
 10
2642.8960000000002
 20
215.0750000000000
 30
0.0
 42
0.4142135623731
  0
VERTEX
  8
0
 10
2643.4960000000001
 20
214.4750000000000
 30
0.0
  0
VERTEX
  8
0
 10
2654.2960000000003
 20
214.4750000000000
 30
0.0
 42
0.4142135623731
  0
VERTEX
  8
0
 10
2654.8960000000002
 20
215.0750000000000
 30
0.0
  0
VERTEX
  8
0
 10
2654.8960000000002
 20
217.4750000000000
 30
0.0
  0
VERTEX
  8
0
 10
2662.8960000000002
 20
217.4750000000000
 30
0.0
  0
VERTEX
  8
0
 10
2662.8960000000002
 20
215.0750000000000
 30
0.0
 42
0.4142135623731
  0
VERTEX
  8
0
 10
2663.4960000000001
 20
214.4750000000000
 30
0.0
  0
VERTEX
  8
0
 10
2674.2960000000003
 20
214.4750000000000
 30
0.0
 42
0.4142135623731
  0
VERTEX
  8
0
 10
2674.8960000000002
 20
215.0750000000000
 30
0.0
  0
VERTEX
  8
0
 10
2674.8960000000002
 20
217.4750000000000
 30
0.0
  0
VERTEX
  8
0
 10
2682.8960000000002
 20
217.4750000000000
 30
0.0
  0
VERTEX
  8
0
 10
2682.8960000000002
 20
215.0750000000000
 30
0.0
 42
0.4142135623731
  0
VERTEX
  8
0
 10
2683.4960000000001
 20
214.4750000000000
 30
0.0
  0
VERTEX
  8
0
 10
2694.2960000000003
 20
214.4750000000000
 30
0.0
 42
0.4142135623731
  0
VERTEX
  8
0
 10
2694.8960000000002
 20
215.0750000000000
 30
0.0
  0
VERTEX
  8
0
 10
2694.8960000000002
 20
217.4750000000000
 30
0.0
  0
VERTEX
  8
0
 10
2702.8960000000002
 20
217.4750000000000
 30
0.0
  0
VERTEX
  8
0
 10
2702.8960000000002
 20
215.0750000000000
 30
0.0
 42
0.4142135623731
  0
VERTEX
  8
0
 10
2703.4960000000001
 20
214.4750000000000
 30
0.0
  0
VERTEX
  8
0
 10
2714.2960000000003
 20
214.4750000000000
 30
0.0
 42
0.4142135623731
  0
VERTEX
  8
0
 10
2714.8960000000002
 20
215.0750000000000
 30
0.0
  0
VERTEX
  8
0
 10
2714.8960000000002
 20
217.4750000000000
 30
0.0
  0
VERTEX
  8
0
 10
2722.8960000000002
 20
217.4750000000000
 30
0.0
  0
VERTEX
  8
0
 10
2722.8960000000002
 20
214.4750000000000
 30
0.0
  0
VERTEX
  8
0
 10
2799.3333969351829
 20
214.4750000000000
 30
0.0
 42
0.3541185725307
  0
VERTEX
  8
0
 10
2805.2022825395857
 20
219.2275298550934
 30
0.0
  0
VERTEX
  8
0
 10
2808.9178523992664
 20
236.7079116908178
 30
0.0
 42
-0.9004040442978
  0
VERTEX
  8
0
 10
2810.8960000000002
 20
236.5000000000000
 30
0.0
  0
VERTEX
  8
0
 10
2810.8960000000002
 20
212.7750000000000
 30
0.0
 42
0.4142135623731
  0
VERTEX
  8
0
 10
2816.8960000000002
 20
206.7750000000000
 30
0.0
  0
VERTEX
  8
0
 10
2834.1645625712222
 20
206.7750000000000
 30
0.0
 42
0.3287469393583
  0
VERTEX
  8
0
 10
2839.8960000000002
 20
211.0000000000000
 30
0.0
  0
VERTEX
  8
0
 10
2841.8960000000002
 20
211.0000000000000
 30
0.0
  0
VERTEX
  8
0
 10
2841.8960000000002
 20
207.3750000000000
 30
0.0
 42
0.4142135623731
  0
VERTEX
  8
0
 10
2842.4960000000001
 20
206.7750000000000
 30
0.0
  0
VERTEX
  8
0
 10
2875.6967114103236
 20
206.7750000000000
 30
0.0
 42
0.3541185725307
  0
VERTEX
  8
0
 10
2881.5655970147263
 20
211.5275298550934
 30
0.0
  0
VERTEX
  8
0
 10
2886.9178523992664
 20
236.7079116908178
 30
0.0
 42
-0.9004040442978
  0
VERTEX
  8
0
 10
2888.8960000000002
 20
236.5000000000000
 30
0.0
  0
VERTEX
  8
0
 10
2888.8960000000002
 20
187.2875000000000
 30
0.0
 42
0.4465539345193
  0
VERTEX
  8
0
 10
2897.7674004198457
 20
179.3351002798971
 30
0.0
  0
VERTEX
  8
0
 10
2901.8960000000002
 20
179.7875000000000
 30
0.0
  0
VERTEX
  8
0
 10
3298.8960000000002
 20
179.7875000000000
 30
0.0
  0
VERTEX
  8
0
 10
3303.0245995801547
 20
179.3351002798971
 30
0.0
 42
0.4465539345193
  0
VERTEX
  8
0
 10
3311.8960000000002
 20
187.2875000000000
 30
0.0
  0
VERTEX
  8
0
 10
3311.8960000000002
 20
195.0000000000000
 30
0.0
  0
VERTEX
  8
0
 10
3334.0924914980178
 20
195.0000000000000
 30
0.0
 42
-0.2096290693995
  0
VERTEX
  8
0
 10
3338.5060737887243
 20
193.0645161290323
 30
0.0
 42
0.4385290096535
  0
VERTEX
  8
0
 10
3375.2859262112770
 20
193.0645161290323
 30
0.0
 42
-0.2096290693995
  0
VERTEX
  8
0
 10
3379.6995085019835
 20
195.0000000000000
 30
0.0
  0
VERTEX
  8
0
 10
3403.8960000000002
 20
195.0000000000000
 30
0.0
 42
0.4142135623731
  0
VERTEX
  8
0
 10
3411.8960000000002
 20
203.0000000000000
 30
0.0
  0
VERTEX
  8
0
 10
3411.8960000000002
 20
205.0000000000000
 30
0.0
  0
VERTEX
  8
0
 10
3646.8960000000006
 20
205.0000000000000
 30
0.0
 42
0.4142135623731
  0
VERTEX
  8
0
 10
3652.8960000000006
 20
211.0000000000000
 30
0.0
  0
VERTEX
  8
0
 10
3652.8960000000006
 20
230.0000000000000
 30
0.0
  0
VERTEX
  8
0
 10
3687.8960000000006
 20
230.0000000000000
 30
0.0
  0
VERTEX
  8
0
 10
3687.8960000000006
 20
211.0000000000000
 30
0.0
 42
0.4142135623731
  0
VERTEX
  8
0
 10
3693.8960000000006
 20
205.0000000000000
 30
0.0
  0
VERTEX
  8
0
 10
3930.8960000000006
 20
205.0000000000000
 30
0.0
 42
0.4142135623731
  0
VERTEX
  8
0
 10
4010.8960000000006
 20
285.0000000000000
 30
0.0
  0
VERTEX
  8
0
 10
4010.8960000000006
 20
419.9860000000000
 30
0.0
  0
VERTEX
  8
0
 10
4100.8960000000006
 20
419.9860000000000
 30
0.0
  0
VERTEX
  8
0
 10
4100.8960000000006
 20
250.0000000000000
 30
0.0
 42
0.4142135623731
  0
VERTEX
  8
0
 10
4097.8960000000006
 20
247.0000000000000
 30
0.0
  0
VERTEX
  8
0
 10
4097.8960000000006
 20
145.0130000000000
 30
0.0
  0
VERTEX
  8
0
 10
4091.8960000000006
 20
145.0130000000000
 30
0.0
 42
0.4142135623731
  0
VERTEX
  8
0
 10
4085.8960000000006
 20
139.0130000000000
 30
0.0
  0
VERTEX
  8
0
 10
4085.8960000000006
 20
116.0180000000000
 30
0.0
  0
VERTEX
  8
0
 10
4084.8960000000011
 20
115.0180000000000
 30
0.0
  0
VERTEX
  8
0
 10
4061.7960000000007
 20
115.0180000000000
 30
0.0
 42
0.4142135623731
  0
VERTEX
  8
0
 10
4055.7960000000007
 20
109.0180000000000
 30
0.0
  0
VERTEX
  8
0
 10
4055.7960000000007
 20
80.0100000000000
 30
0.0
  0
VERTEX
  8
0
 10
4050.7960000000007
 20
75.0100000000000
 30
0.0
  0
VERTEX
  8
0
 10
4011.7960000000007
 20
75.0100000000000
 30
0.0
 42
0.4142135623731
  0
VERTEX
  8
0
 10
4005.7960000000007
 20
69.0100000000000
 30
0.0
  0
VERTEX
  8
0
 10
4005.7960000000007
 20
47.5000000000000
 30
0.0
  0
VERTEX
  8
0
 10
-1944.0000000000000
 20
47.5000000000000
 30
0.0
 42
0.0000000000000
  0
SEQEND
  8
0
  0
POLYLINE
  8
0
 66
     1
 10
0.0
 20
0.0
 30
0.0
  0
VERTEX
  8
0
 10
-2040.0000000000000
 20
0.0000000000000
 30
0.0
  0
VERTEX
  8
0
 10
4104.0000000000000
 20
0.0000000000000
 30
0.0
  0
VERTEX
  8
0
 10
4104.0000000000000
 20
423.0000000000000
 30
0.0
  0
VERTEX
  8
0
 10
4008.0000000000000
 20
423.0000000000000
 30
0.0
  0
VERTEX
  8
0
 10
4008.0000000000000
 20
288.0000000000000
 30
0.0
 42
-0.4142135623731
  0
VERTEX
  8
0
 10
3928.0000000000000
 20
208.0000000000000
 30
0.0
  0
VERTEX
  8
0
 10
3697.0000000000000
 20
208.0000000000000
 30
0.0
 42
-0.4142135623731
  0
VERTEX
  8
0
 10
3691.0000000000000
 20
214.0000000000000
 30
0.0
  0
VERTEX
  8
0
 10
3691.0000000000000
 20
233.0000000000000
 30
0.0
  0
VERTEX
  8
0
 10
3650.0000000000000
 20
233.0000000000000
 30
0.0
  0
VERTEX
  8
0
 10
3650.0000000000000
 20
214.0000000000000
 30
0.0
 42
-0.4142135623731
  0
VERTEX
  8
0
 10
3644.0000000000000
 20
208.0000000000000
 30
0.0
  0
VERTEX
  8
0
 10
3409.0000000000000
 20
208.0000000000000
 30
0.0
  0
VERTEX
  8
0
 10
3409.0000000000000
 20
204.0000000000000
 30
0.0
 42
-0.4142135623731
  0
VERTEX
  8
0
 10
3403.0000000000000
 20
198.0000000000000
 30
0.0
  0
VERTEX
  8
0
 10
3309.0000000000000
 20
198.0000000000000
 30
0.0
  0
VERTEX
  8
0
 10
3309.0000000000000
 20
188.5000000000000
 30
0.0
 42
-0.4142135623731
  0
VERTEX
  8
0
 10
3301.0000000000000
 20
180.5000000000000
 30
0.0
  0
VERTEX
  8
0
 10
2900.0000000000000
 20
180.5000000000000
 30
0.0
 42
-0.4142135623731
  0
VERTEX
  8
0
 10
2892.0000000000000
 20
188.5000000000000
 30
0.0
  0
VERTEX
  8
0
 10
2892.0000000000000
 20
240.5000000000000
 30
0.0
  0
VERTEX
  8
0
 10
2877.0000000000000
 20
240.5000000000000
 30
0.0
  0
VERTEX
  8
0
 10
2877.0000000000000
 20
220.0000000000000
 30
0.0
 42
-0.4142135623731
  0
VERTEX
  8
0
 10
2871.0000000000000
 20
214.0000000000000
 30
0.0
  0
VERTEX
  8
0
 10
2820.5000000000000
 20
214.0000000000000
 30
0.0
 42
-0.4142135623731
  0
VERTEX
  8
0
 10
2814.5000000000000
 20
220.0000000000000
 30
0.0
  0
VERTEX
  8
0
 10
2814.5000000000000
 20
240.5000000000000
 30
0.0
  0
VERTEX
  8
0
 10
2799.5000000000000
 20
240.5000000000000
 30
0.0
  0
VERTEX
  8
0
 10
2799.5000000000000
 20
226.5000000000000
 30
0.0
 42
-0.4142135623731
  0
VERTEX
  8
0
 10
2793.5000000000000
 20
220.5000000000000
 30
0.0
  0
VERTEX
  8
0
 10
2106.5000000000000
 20
220.5000000000000
 30
0.0
 42
-0.4142135623731
  0
VERTEX
  8
0
 10
2076.5000000000000
 20
250.5000000000000
 30
0.0
  0
VERTEX
  8
0
 10
2076.5000000000000
 20
455.0000000000000
 30
0.0
  0
VERTEX
  8
0
 10
2070.5000000000000
 20
455.0000000000000
 30
0.0
 42
-0.4142135623731
  0
VERTEX
  8
0
 10
2064.5000000000000
 20
461.0000000000000
 30
0.0
  0
VERTEX
  8
0
 10
2064.5000000000000
 20
515.0000000000000
 30
0.0
  0
VERTEX
  8
0
 10
1948.5000000000000
 20
515.0000000000000
 30
0.0
  0
VERTEX
  8
0
 10
1948.5000000000000
 20
251.0000000000000
 30
0.0
 42
-0.4142135623731
  0
VERTEX
  8
0
 10
1940.5000000000000
 20
243.0000000000000
 30
0.0
  0
VERTEX
  8
0
 10
1836.5000000000000
 20
243.0000000000000
 30
0.0
 42
-0.4142135623731
  0
VERTEX
  8
0
 10
1828.5000000000000
 20
251.0000000000000
 30
0.0
  0
VERTEX
  8
0
 10
1828.5000000000000
 20
520.5000000000000
 30
0.0
  0
VERTEX
  8
0
 10
1734.5000000000000
 20
520.5000000000000
 30
0.0
  0
VERTEX
  8
0
 10
1734.5000000000000
 20
251.0000000000000
 30
0.0
 42
-0.4142135623731
  0
VERTEX
  8
0
 10
1726.5000000000000
 20
243.0000000000000
 30
0.0
  0
VERTEX
  8
0
 10
1635.5000000000000
 20
243.0000000000000
 30
0.0
 42
-0.4142135623731
  0
VERTEX
  8
0
 10
1627.5000000000000
 20
251.0000000000000
 30
0.0
  0
VERTEX
  8
0
 10
1627.5000000000000
 20
520.5000000000000
 30
0.0
  0
VERTEX
  8
0
 10
1533.5000000000000
 20
520.5000000000000
 30
0.0
  0
VERTEX
  8
0
 10
1533.5000000000000
 20
251.0000000000000
 30
0.0
 42
-0.4142135623731
  0
VERTEX
  8
0
 10
1525.5000000000000
 20
243.0000000000000
 30
0.0
  0
VERTEX
  8
0
 10
1428.5000000000000
 20
243.0000000000000
 30
0.0
 42
-0.4142135623731
  0
VERTEX
  8
0
 10
1420.5000000000000
 20
251.0000000000000
 30
0.0
  0
VERTEX
  8
0
 10
1420.5000000000000
 20
520.5000000000000
 30
0.0
  0
VERTEX
  8
0
 10
1334.5000000000000
 20
520.5000000000000
 30
0.0
  0
VERTEX
  8
0
 10
1334.5000000000000
 20
251.0000000000000
 30
0.0
 42
-0.4142135623731
  0
VERTEX
  8
0
 10
1326.5000000000000
 20
243.0000000000000
 30
0.0
  0
VERTEX
  8
0
 10
1239.5000000000000
 20
243.0000000000000
 30
0.0
 42
-0.4142135623731
  0
VERTEX
  8
0
 10
1231.5000000000000
 20
251.0000000000000
 30
0.0
  0
VERTEX
  8
0
 10
1231.5000000000000
 20
520.5000000000000
 30
0.0
  0
VERTEX
  8
0
 10
1145.5000000000000
 20
520.5000000000000
 30
0.0
  0
VERTEX
  8
0
 10
1145.5000000000000
 20
251.0000000000000
 30
0.0
 42
-0.4142135623731
  0
VERTEX
  8
0
 10
1137.5000000000000
 20
243.0000000000000
 30
0.0
  0
VERTEX
  8
0
 10
1060.5000000000000
 20
243.0000000000000
 30
0.0
 42
-0.4142135623731
  0
VERTEX
  8
0
 10
1052.5000000000000
 20
251.0000000000000
 30
0.0
  0
VERTEX
  8
0
 10
1052.5000000000000
 20
518.0000000000000
 30
0.0
  0
VERTEX
  8
0
 10
981.5000000000000
 20
518.0000000000000
 30
0.0
  0
VERTEX
  8
0
 10
981.5000000000000
 20
251.0000000000000
 30
0.0
 42
-0.4142135623731
  0
VERTEX
  8
0
 10
973.5000000000000
 20
243.0000000000000
 30
0.0
  0
VERTEX
  8
0
 10
896.5000000000000
 20
243.0000000000000
 30
0.0
 42
-0.4142135623731
  0
VERTEX
  8
0
 10
888.5000000000000
 20
251.0000000000000
 30
0.0
  0
VERTEX
  8
0
 10
888.5000000000000
 20
518.0000000000000
 30
0.0
  0
VERTEX
  8
0
 10
817.5000000000000
 20
518.0000000000000
 30
0.0
  0
VERTEX
  8
0
 10
817.5000000000000
 20
251.0000000000000
 30
0.0
 42
-0.4142135623731
  0
VERTEX
  8
0
 10
809.5000000000000
 20
243.0000000000000
 30
0.0
  0
VERTEX
  8
0
 10
743.0000000000000
 20
243.0000000000000
 30
0.0
 42
-0.4142135623731
  0
VERTEX
  8
0
 10
735.0000000000000
 20
251.0000000000000
 30
0.0
  0
VERTEX
  8
0
 10
735.0000000000000
 20
518.0000000000000
 30
0.0
  0
VERTEX
  8
0
 10
664.0000000000000
 20
518.0000000000000
 30
0.0
  0
VERTEX
  8
0
 10
664.0000000000000
 20
251.0000000000000
 30
0.0
 42
-0.4142135623731
  0
VERTEX
  8
0
 10
656.0000000000000
 20
243.0000000000000
 30
0.0
  0
VERTEX
  8
0
 10
579.0000000000000
 20
243.0000000000000
 30
0.0
 42
-0.4142135623731
  0
VERTEX
  8
0
 10
571.0000000000000
 20
251.0000000000000
 30
0.0
  0
VERTEX
  8
0
 10
571.0000000000000
 20
518.0000000000000
 30
0.0
  0
VERTEX
  8
0
 10
500.0000000000000
 20
518.0000000000000
 30
0.0
  0
VERTEX
  8
0
 10
500.0000000000000
 20
251.0000000000000
 30
0.0
 42
-0.4142135623731
  0
VERTEX
  8
0
 10
492.0000000000000
 20
243.0000000000000
 30
0.0
  0
VERTEX
  8
0
 10
415.0000000000000
 20
243.0000000000000
 30
0.0
 42
-0.4142135623731
  0
VERTEX
  8
0
 10
407.0000000000000
 20
251.0000000000000
 30
0.0
  0
VERTEX
  8
0
 10
407.0000000000000
 20
518.0000000000000
 30
0.0
  0
VERTEX
  8
0
 10
336.0000000000000
 20
518.0000000000000
 30
0.0
  0
VERTEX
  8
0
 10
336.0000000000000
 20
251.0000000000000
 30
0.0
 42
-0.4142135623731
  0
VERTEX
  8
0
 10
328.0000000000000
 20
243.0000000000000
 30
0.0
  0
VERTEX
  8
0
 10
251.5000000000000
 20
243.0000000000000
 30
0.0
 42
-0.4142135623731
  0
VERTEX
  8
0
 10
243.5000000000000
 20
251.0000000000000
 30
0.0
  0
VERTEX
  8
0
 10
243.5000000000000
 20
518.0000000000000
 30
0.0
  0
VERTEX
  8
0
 10
172.5000000000000
 20
518.0000000000000
 30
0.0
  0
VERTEX
  8
0
 10
172.5000000000000
 20
251.0000000000000
 30
0.0
 42
-0.4142135623731
  0
VERTEX
  8
0
 10
164.5000000000000
 20
243.0000000000000
 30
0.0
  0
VERTEX
  8
0
 10
87.0000000000000
 20
243.0000000000000
 30
0.0
 42
-0.4142135623731
  0
VERTEX
  8
0
 10
79.0000000000000
 20
251.0000000000000
 30
0.0
  0
VERTEX
  8
0
 10
79.0000000000000
 20
518.0000000000000
 30
0.0
  0
VERTEX
  8
0
 10
-3.0000000000000
 20
518.0000000000000
 30
0.0
  0
VERTEX
  8
0
 10
-3.0000000000000
 20
455.0000000000000
 30
0.0
 42
-0.4142135623731
  0
VERTEX
  8
0
 10
-9.0000000000000
 20
449.0000000000000
 30
0.0
  0
VERTEX
  8
0
 10
-15.0000000000000
 20
449.0000000000000
 30
0.0
  0
VERTEX
  8
0
 10
-15.0000000000000
 20
333.0000000000000
 30
0.0
 42
-0.4142135623731
  0
VERTEX
  8
0
 10
-30.0000000000000
 20
318.0000000000000
 30
0.0
  0
VERTEX
  8
0
 10
-473.0000000000000
 20
318.0000000000000
 30
0.0
  0
VERTEX
  8
0
 10
-473.0000000000000
 20
278.0000000000000
 30
0.0
 42
-0.4142135623731
  0
VERTEX
  8
0
 10
-523.0000000000000
 20
228.0000000000000
 30
0.0
  0
VERTEX
  8
0
 10
-866.0000000000000
 20
228.0000000000000
 30
0.0
 42
-0.4142135623731
  0
VERTEX
  8
0
 10
-872.0000000000000
 20
234.0000000000000
 30
0.0
  0
VERTEX
  8
0
 10
-872.0000000000000
 20
240.5000000000000
 30
0.0
  0
VERTEX
  8
0
 10
-887.0000000000000
 20
240.5000000000000
 30
0.0
  0
VERTEX
  8
0
 10
-887.0000000000000
 20
220.0000000000000
 30
0.0
 42
-0.4142135623731
  0
VERTEX
  8
0
 10
-893.0000000000000
 20
214.0000000000000
 30
0.0
  0
VERTEX
  8
0
 10
-941.0000000000000
 20
214.0000000000000
 30
0.0
 42
-0.4142135623731
  0
VERTEX
  8
0
 10
-947.0000000000000
 20
220.0000000000000
 30
0.0
  0
VERTEX
  8
0
 10
-947.0000000000000
 20
240.5000000000000
 30
0.0
  0
VERTEX
  8
0
 10
-962.0000000000000
 20
240.5000000000000
 30
0.0
  0
VERTEX
  8
0
 10
-962.0000000000000
 20
216.0000000000000
 30
0.0
 42
-0.4142135623731
  0
VERTEX
  8
0
 10
-968.0000000000000
 20
210.0000000000000
 30
0.0
  0
VERTEX
  8
0
 10
-992.0000000000000
 20
210.0000000000000
 30
0.0
  0
VERTEX
  8
0
 10
-992.0000000000000
 20
173.5000000000000
 30
0.0
 42
-0.4142135623731
  0
VERTEX
  8
0
 10
-1000.0000000000000
 20
165.5000000000000
 30
0.0
  0
VERTEX
  8
0
 10
-1475.0000000000000
 20
165.5000000000000
 30
0.0
 42
-0.4142135623731
  0
VERTEX
  8
0
 10
-1481.0000000000000
 20
171.5000000000000
 30
0.0
  0
VERTEX
  8
0
 10
-1481.0000000000000
 20
278.0000000000000
 30
0.0
  0
VERTEX
  8
0
 10
-1547.0000000000000
 20
278.0000000000000
 30
0.0
  0
VERTEX
  8
0
 10
-1547.0000000000000
 20
174.0000000000000
 30
0.0
 42
-0.4142135623731
  0
VERTEX
  8
0
 10
-1553.0000000000000
 20
168.0000000000000
 30
0.0
  0
VERTEX
  8
0
 10
-1660.0000000000000
 20
168.0000000000000
 30
0.0
 42
-0.4142135623731
  0
VERTEX
  8
0
 10
-1666.0000000000000
 20
174.0000000000000
 30
0.0
  0
VERTEX
  8
0
 10
-1666.0000000000000
 20
180.5000000000000
 30
0.0
  0
VERTEX
  8
0
 10
-1681.0000000000000
 20
180.5000000000000
 30
0.0
  0
VERTEX
  8
0
 10
-1681.0000000000000
 20
174.0000000000000
 30
0.0
 42
-0.4142135623731
  0
VERTEX
  8
0
 10
-1687.0000000000000
 20
168.0000000000000
 30
0.0
  0
VERTEX
  8
0
 10
-1775.0000000000000
 20
168.0000000000000
 30
0.0
 42
-0.4142135623731
  0
VERTEX
  8
0
 10
-1781.0000000000000
 20
174.0000000000000
 30
0.0
  0
VERTEX
  8
0
 10
-1781.0000000000000
 20
213.0000000000000
 30
0.0
  0
VERTEX
  8
0
 10
-1827.0000000000000
 20
213.0000000000000
 30
0.0
  0
VERTEX
  8
0
 10
-1827.0000000000000
 20
174.0000000000000
 30
0.0
 42
-0.4142135623731
  0
VERTEX
  8
0
 10
-1833.0000000000000
 20
168.0000000000000
 30
0.0
  0
VERTEX
  8
0
 10
-1911.0000000000000
 20
168.0000000000000
 30
0.0
 42
-0.4142135623731
  0
VERTEX
  8
0
 10
-1941.0000000000000
 20
198.0000000000000
 30
0.0
  0
VERTEX
  8
0
 10
-1941.0000000000000
 20
313.0000000000000
 30
0.0
  0
VERTEX
  8
0
 10
-2040.0000000000000
 20
313.0000000000000
 30
0.0
  0
VERTEX
  8
0
 10
-2040.0000000000000
 20
0.0000000000000
 30
0.0
 42
0.0000000000000
  0
SEQEND
  8
0
  0
ENDSEC
  0
EOF

