  0
SECTION
  2
ENTITIES
  0
POLYLINE
  8
0
 66
     1
 10
0.0
 20
0.0
 30
0.0
  0
VERTEX
  8
0
 10
-2040.0000000000000
 20
0.0000000000000
 30
0.0
  0
VERTEX
  8
0
 10
4104.0000000000000
 20
0.0000000000000
 30
0.0
  0
VERTEX
  8
0
 10
4104.0000000000000
 20
423.0000000000000
 30
0.0
  0
VERTEX
  8
0
 10
4008.0000000000000
 20
423.0000000000000
 30
0.0
  0
VERTEX
  8
0
 10
4008.0000000000000
 20
288.0000000000000
 30
0.0
 42
-0.4142135623731
  0
VERTEX
  8
0
 10
3928.0000000000000
 20
208.0000000000000
 30
0.0
  0
VERTEX
  8
0
 10
3697.0000000000000
 20
208.0000000000000
 30
0.0
 42
-0.4142135623731
  0
VERTEX
  8
0
 10
3691.0000000000000
 20
214.0000000000000
 30
0.0
  0
VERTEX
  8
0
 10
3691.0000000000000
 20
233.0000000000000
 30
0.0
  0
VERTEX
  8
0
 10
3650.0000000000000
 20
233.0000000000000
 30
0.0
  0
VERTEX
  8
0
 10
3650.0000000000000
 20
214.0000000000000
 30
0.0
 42
-0.4142135623731
  0
VERTEX
  8
0
 10
3644.0000000000000
 20
208.0000000000000
 30
0.0
  0
VERTEX
  8
0
 10
3409.0000000000000
 20
208.0000000000000
 30
0.0
  0
VERTEX
  8
0
 10
3409.0000000000000
 20
204.0000000000000
 30
0.0
 42
-0.4142135623731
  0
VERTEX
  8
0
 10
3403.0000000000000
 20
198.0000000000000
 30
0.0
  0
VERTEX
  8
0
 10
3309.0000000000000
 20
198.0000000000000
 30
0.0
  0
VERTEX
  8
0
 10
3309.0000000000000
 20
188.5000000000000
 30
0.0
 42
-0.4142135623731
  0
VERTEX
  8
0
 10
3301.0000000000000
 20
180.5000000000000
 30
0.0
  0
VERTEX
  8
0
 10
2900.0000000000000
 20
180.5000000000000
 30
0.0
 42
-0.4142135623731
  0
VERTEX
  8
0
 10
2892.0000000000000
 20
188.5000000000000
 30
0.0
  0
VERTEX
  8
0
 10
2892.0000000000000
 20
240.5000000000000
 30
0.0
  0
VERTEX
  8
0
 10
2877.0000000000000
 20
240.5000000000000
 30
0.0
  0
VERTEX
  8
0
 10
2877.0000000000000
 20
220.0000000000000
 30
0.0
 42
-0.4142135623731
  0
VERTEX
  8
0
 10
2871.0000000000000
 20
214.0000000000000
 30
0.0
  0
VERTEX
  8
0
 10
2820.5000000000000
 20
214.0000000000000
 30
0.0
 42
-0.4142135623731
  0
VERTEX
  8
0
 10
2814.5000000000000
 20
220.0000000000000
 30
0.0
  0
VERTEX
  8
0
 10
2814.5000000000000
 20
240.5000000000000
 30
0.0
  0
VERTEX
  8
0
 10
2799.5000000000000
 20
240.5000000000000
 30
0.0
  0
VERTEX
  8
0
 10
2799.5000000000000
 20
226.5000000000000
 30
0.0
 42
-0.4142135623731
  0
VERTEX
  8
0
 10
2793.5000000000000
 20
220.5000000000000
 30
0.0
  0
VERTEX
  8
0
 10
2106.5000000000000
 20
220.5000000000000
 30
0.0
 42
-0.4142135623731
  0
VERTEX
  8
0
 10
2076.5000000000000
 20
250.5000000000000
 30
0.0
  0
VERTEX
  8
0
 10
2076.5000000000000
 20
455.0000000000000
 30
0.0
  0
VERTEX
  8
0
 10
2070.5000000000000
 20
455.0000000000000
 30
0.0
 42
-0.4142135623731
  0
VERTEX
  8
0
 10
2064.5000000000000
 20
461.0000000000000
 30
0.0
  0
VERTEX
  8
0
 10
2064.5000000000000
 20
515.0000000000000
 30
0.0
  0
VERTEX
  8
0
 10
1948.5000000000000
 20
515.0000000000000
 30
0.0
  0
VERTEX
  8
0
 10
1948.5000000000000
 20
251.0000000000000
 30
0.0
 42
-0.4142135623731
  0
VERTEX
  8
0
 10
1940.5000000000000
 20
243.0000000000000
 30
0.0
  0
VERTEX
  8
0
 10
1836.5000000000000
 20
243.0000000000000
 30
0.0
 42
-0.4142135623731
  0
VERTEX
  8
0
 10
1828.5000000000000
 20
251.0000000000000
 30
0.0
  0
VERTEX
  8
0
 10
1828.5000000000000
 20
520.5000000000000
 30
0.0
  0
VERTEX
  8
0
 10
1734.5000000000000
 20
520.5000000000000
 30
0.0
  0
VERTEX
  8
0
 10
1734.5000000000000
 20
251.0000000000000
 30
0.0
 42
-0.4142135623731
  0
VERTEX
  8
0
 10
1726.5000000000000
 20
243.0000000000000
 30
0.0
  0
VERTEX
  8
0
 10
1635.5000000000000
 20
243.0000000000000
 30
0.0
 42
-0.4142135623731
  0
VERTEX
  8
0
 10
1627.5000000000000
 20
251.0000000000000
 30
0.0
  0
VERTEX
  8
0
 10
1627.5000000000000
 20
520.5000000000000
 30
0.0
  0
VERTEX
  8
0
 10
1533.5000000000000
 20
520.5000000000000
 30
0.0
  0
VERTEX
  8
0
 10
1533.5000000000000
 20
251.0000000000000
 30
0.0
 42
-0.4142135623731
  0
VERTEX
  8
0
 10
1525.5000000000000
 20
243.0000000000000
 30
0.0
  0
VERTEX
  8
0
 10
1428.5000000000000
 20
243.0000000000000
 30
0.0
 42
-0.4142135623731
  0
VERTEX
  8
0
 10
1420.5000000000000
 20
251.0000000000000
 30
0.0
  0
VERTEX
  8
0
 10
1420.5000000000000
 20
520.5000000000000
 30
0.0
  0
VERTEX
  8
0
 10
1334.5000000000000
 20
520.5000000000000
 30
0.0
  0
VERTEX
  8
0
 10
1334.5000000000000
 20
251.0000000000000
 30
0.0
 42
-0.4142135623731
  0
VERTEX
  8
0
 10
1326.5000000000000
 20
243.0000000000000
 30
0.0
  0
VERTEX
  8
0
 10
1239.5000000000000
 20
243.0000000000000
 30
0.0
 42
-0.4142135623731
  0
VERTEX
  8
0
 10
1231.5000000000000
 20
251.0000000000000
 30
0.0
  0
VERTEX
  8
0
 10
1231.5000000000000
 20
520.5000000000000
 30
0.0
  0
VERTEX
  8
0
 10
1145.5000000000000
 20
520.5000000000000
 30
0.0
  0
VERTEX
  8
0
 10
1145.5000000000000
 20
251.0000000000000
 30
0.0
 42
-0.4142135623731
  0
VERTEX
  8
0
 10
1137.5000000000000
 20
243.0000000000000
 30
0.0
  0
VERTEX
  8
0
 10
1060.5000000000000
 20
243.0000000000000
 30
0.0
 42
-0.4142135623731
  0
VERTEX
  8
0
 10
1052.5000000000000
 20
251.0000000000000
 30
0.0
  0
VERTEX
  8
0
 10
1052.5000000000000
 20
518.0000000000000
 30
0.0
  0
VERTEX
  8
0
 10
981.5000000000000
 20
518.0000000000000
 30
0.0
  0
VERTEX
  8
0
 10
981.5000000000000
 20
251.0000000000000
 30
0.0
 42
-0.4142135623731
  0
VERTEX
  8
0
 10
973.5000000000000
 20
243.0000000000000
 30
0.0
  0
VERTEX
  8
0
 10
896.5000000000000
 20
243.0000000000000
 30
0.0
 42
-0.4142135623731
  0
VERTEX
  8
0
 10
888.5000000000000
 20
251.0000000000000
 30
0.0
  0
VERTEX
  8
0
 10
888.5000000000000
 20
518.0000000000000
 30
0.0
  0
VERTEX
  8
0
 10
817.5000000000000
 20
518.0000000000000
 30
0.0
  0
VERTEX
  8
0
 10
817.5000000000000
 20
251.0000000000000
 30
0.0
 42
-0.4142135623731
  0
VERTEX
  8
0
 10
809.5000000000000
 20
243.0000000000000
 30
0.0
  0
VERTEX
  8
0
 10
743.0000000000000
 20
243.0000000000000
 30
0.0
 42
-0.4142135623731
  0
VERTEX
  8
0
 10
735.0000000000000
 20
251.0000000000000
 30
0.0
  0
VERTEX
  8
0
 10
735.0000000000000
 20
518.0000000000000
 30
0.0
  0
VERTEX
  8
0
 10
664.0000000000000
 20
518.0000000000000
 30
0.0
  0
VERTEX
  8
0
 10
664.0000000000000
 20
251.0000000000000
 30
0.0
 42
-0.4142135623731
  0
VERTEX
  8
0
 10
656.0000000000000
 20
243.0000000000000
 30
0.0
  0
VERTEX
  8
0
 10
579.0000000000000
 20
243.0000000000000
 30
0.0
 42
-0.4142135623731
  0
VERTEX
  8
0
 10
571.0000000000000
 20
251.0000000000000
 30
0.0
  0
VERTEX
  8
0
 10
571.0000000000000
 20
518.0000000000000
 30
0.0
  0
VERTEX
  8
0
 10
500.0000000000000
 20
518.0000000000000
 30
0.0
  0
VERTEX
  8
0
 10
500.0000000000000
 20
251.0000000000000
 30
0.0
 42
-0.4142135623731
  0
VERTEX
  8
0
 10
492.0000000000000
 20
243.0000000000000
 30
0.0
  0
VERTEX
  8
0
 10
415.0000000000000
 20
243.0000000000000
 30
0.0
 42
-0.4142135623731
  0
VERTEX
  8
0
 10
407.0000000000000
 20
251.0000000000000
 30
0.0
  0
VERTEX
  8
0
 10
407.0000000000000
 20
518.0000000000000
 30
0.0
  0
VERTEX
  8
0
 10
336.0000000000000
 20
518.0000000000000
 30
0.0
  0
VERTEX
  8
0
 10
336.0000000000000
 20
251.0000000000000
 30
0.0
 42
-0.4142135623731
  0
VERTEX
  8
0
 10
328.0000000000000
 20
243.0000000000000
 30
0.0
  0
VERTEX
  8
0
 10
251.5000000000000
 20
243.0000000000000
 30
0.0
 42
-0.4142135623731
  0
VERTEX
  8
0
 10
243.5000000000000
 20
251.0000000000000
 30
0.0
  0
VERTEX
  8
0
 10
243.5000000000000
 20
518.0000000000000
 30
0.0
  0
VERTEX
  8
0
 10
172.5000000000000
 20
518.0000000000000
 30
0.0
  0
VERTEX
  8
0
 10
172.5000000000000
 20
251.0000000000000
 30
0.0
 42
-0.4142135623731
  0
VERTEX
  8
0
 10
164.5000000000000
 20
243.0000000000000
 30
0.0
  0
VERTEX
  8
0
 10
87.0000000000000
 20
243.0000000000000
 30
0.0
 42
-0.4142135623731
  0
VERTEX
  8
0
 10
79.0000000000000
 20
251.0000000000000
 30
0.0
  0
VERTEX
  8
0
 10
79.0000000000000
 20
518.0000000000000
 30
0.0
  0
VERTEX
  8
0
 10
-3.0000000000000
 20
518.0000000000000
 30
0.0
  0
VERTEX
  8
0
 10
-3.0000000000000
 20
455.0000000000000
 30
0.0
 42
-0.4142135623731
  0
VERTEX
  8
0
 10
-9.0000000000000
 20
449.0000000000000
 30
0.0
  0
VERTEX
  8
0
 10
-15.0000000000000
 20
449.0000000000000
 30
0.0
  0
VERTEX
  8
0
 10
-15.0000000000000
 20
333.0000000000000
 30
0.0
 42
-0.4142135623731
  0
VERTEX
  8
0
 10
-30.0000000000000
 20
318.0000000000000
 30
0.0
  0
VERTEX
  8
0
 10
-473.0000000000000
 20
318.0000000000000
 30
0.0
  0
VERTEX
  8
0
 10
-473.0000000000000
 20
278.0000000000000
 30
0.0
 42
-0.4142135623731
  0
VERTEX
  8
0
 10
-523.0000000000000
 20
228.0000000000000
 30
0.0
  0
VERTEX
  8
0
 10
-866.0000000000000
 20
228.0000000000000
 30
0.0
 42
-0.4142135623731
  0
VERTEX
  8
0
 10
-872.0000000000000
 20
234.0000000000000
 30
0.0
  0
VERTEX
  8
0
 10
-872.0000000000000
 20
240.5000000000000
 30
0.0
  0
VERTEX
  8
0
 10
-887.0000000000000
 20
240.5000000000000
 30
0.0
  0
VERTEX
  8
0
 10
-887.0000000000000
 20
220.0000000000000
 30
0.0
 42
-0.4142135623731
  0
VERTEX
  8
0
 10
-893.0000000000000
 20
214.0000000000000
 30
0.0
  0
VERTEX
  8
0
 10
-941.0000000000000
 20
214.0000000000000
 30
0.0
 42
-0.4142135623731
  0
VERTEX
  8
0
 10
-947.0000000000000
 20
220.0000000000000
 30
0.0
  0
VERTEX
  8
0
 10
-947.0000000000000
 20
240.5000000000000
 30
0.0
  0
VERTEX
  8
0
 10
-962.0000000000000
 20
240.5000000000000
 30
0.0
  0
VERTEX
  8
0
 10
-962.0000000000000
 20
216.0000000000000
 30
0.0
 42
-0.4142135623731
  0
VERTEX
  8
0
 10
-968.0000000000000
 20
210.0000000000000
 30
0.0
  0
VERTEX
  8
0
 10
-992.0000000000000
 20
210.0000000000000
 30
0.0
  0
VERTEX
  8
0
 10
-992.0000000000000
 20
173.5000000000000
 30
0.0
 42
-0.4142135623731
  0
VERTEX
  8
0
 10
-1000.0000000000000
 20
165.5000000000000
 30
0.0
  0
VERTEX
  8
0
 10
-1475.0000000000000
 20
165.5000000000000
 30
0.0
 42
-0.4142135623731
  0
VERTEX
  8
0
 10
-1481.0000000000000
 20
171.5000000000000
 30
0.0
  0
VERTEX
  8
0
 10
-1481.0000000000000
 20
278.0000000000000
 30
0.0
  0
VERTEX
  8
0
 10
-1547.0000000000000
 20
278.0000000000000
 30
0.0
  0
VERTEX
  8
0
 10
-1547.0000000000000
 20
174.0000000000000
 30
0.0
 42
-0.4142135623731
  0
VERTEX
  8
0
 10
-1553.0000000000000
 20
168.0000000000000
 30
0.0
  0
VERTEX
  8
0
 10
-1660.0000000000000
 20
168.0000000000000
 30
0.0
 42
-0.4142135623731
  0
VERTEX
  8
0
 10
-1666.0000000000000
 20
174.0000000000000
 30
0.0
  0
VERTEX
  8
0
 10
-1666.0000000000000
 20
180.5000000000000
 30
0.0
  0
VERTEX
  8
0
 10
-1681.0000000000000
 20
180.5000000000000
 30
0.0
  0
VERTEX
  8
0
 10
-1681.0000000000000
 20
174.0000000000000
 30
0.0
 42
-0.4142135623731
  0
VERTEX
  8
0
 10
-1687.0000000000000
 20
168.0000000000000
 30
0.0
  0
VERTEX
  8
0
 10
-1775.0000000000000
 20
168.0000000000000
 30
0.0
 42
-0.4142135623731
  0
VERTEX
  8
0
 10
-1781.0000000000000
 20
174.0000000000000
 30
0.0
  0
VERTEX
  8
0
 10
-1781.0000000000000
 20
213.0000000000000
 30
0.0
  0
VERTEX
  8
0
 10
-1827.0000000000000
 20
213.0000000000000
 30
0.0
  0
VERTEX
  8
0
 10
-1827.0000000000000
 20
174.0000000000000
 30
0.0
 42
-0.4142135623731
  0
VERTEX
  8
0
 10
-1833.0000000000000
 20
168.0000000000000
 30
0.0
  0
VERTEX
  8
0
 10
-1911.0000000000000
 20
168.0000000000000
 30
0.0
 42
-0.4142135623731
  0
VERTEX
  8
0
 10
-1941.0000000000000
 20
198.0000000000000
 30
0.0
  0
VERTEX
  8
0
 10
-1941.0000000000000
 20
313.0000000000000
 30
0.0
  0
VERTEX
  8
0
 10
-2040.0000000000000
 20
313.0000000000000
 30
0.0
  0
VERTEX
  8
0
 10
-2040.0000000000000
 20
0.0000000000000
 30
0.0
 42
0.0000000000000
  0
SEQEND
  8
0
  0
ENDSEC
  0
EOF

