  0
SECTION
  2
HEADER
  9
$ACADVER
  1
AC1014
  9
$ACADMAINTVER
 70
     0
  9
$DWGCODEPAGE
  3
ANSI_1251
  9
$INSBASE
 10
0.0
 20
0.0
 30
0.0
  9
$EXTMIN
 10
-31.66312
 20
0.0
 30
-22.169604
  9
$EXTMAX
 10
100.0
 20
102.173913
 30
86.993707
  9
$LIMMIN
 10
0.0
 20
0.0
  9
$LIMMAX
 10
420.0
 20
297.0
  9
$ORTHOMODE
 70
     0
  9
$REGENMODE
 70
     1
  9
$FILLMODE
 70
     1
  9
$QTEXTMODE
 70
     0
  9
$MIRRTEXT
 70
     1
  9
$DRAGMODE
 70
     2
  9
$LTSCALE
 40
1.0
  9
$OSMODE
 70
     0
  9
$ATTMODE
 70
     1
  9
$TEXTSIZE
 40
2.5
  9
$TRACEWID
 40
1.0
  9
$TEXTSTYLE
  7
STANDARD
  9
$CLAYER
  8
0
  9
$CELTYPE
  6
DASHED2
  9
$CECOLOR
 62
     1
  9
$CELTSCALE
 40
1.0
  9
$DELOBJ
 70
     1
  9
$DISPSILH
 70
     0
  9
$DIMSCALE
 40
1.0
  9
$DIMASZ
 40
2.5
  9
$DIMEXO
 40
0.625
  9
$DIMDLI
 40
3.75
  9
$DIMRND
 40
0.0
  9
$DIMDLE
 40
0.0
  9
$DIMEXE
 40
1.25
  9
$DIMTP
 40
0.0
  9
$DIMTM
 40
0.0
  9
$DIMTXT
 40
2.5
  9
$DIMCEN
 40
2.5
  9
$DIMTSZ
 40
0.0
  9
$DIMTOL
 70
     0
  9
$DIMLIM
 70
     0
  9
$DIMTIH
 70
     0
  9
$DIMTOH
 70
     0
  9
$DIMSE1
 70
     0
  9
$DIMSE2
 70
     0
  9
$DIMTAD
 70
     1
  9
$DIMZIN
 70
     8
  9
$DIMBLK
  1

  9
$DIMASO
 70
     1
  9
$DIMSHO
 70
     1
  9
$DIMPOST
  1

  9
$DIMAPOST
  1

  9
$DIMALT
 70
     0
  9
$DIMALTD
 70
     4
  9
$DIMALTF
 40
0.0394
  9
$DIMLFAC
 40
1.0
  9
$DIMTOFL
 70
     1
  9
$DIMTVP
 40
0.0
  9
$DIMTIX
 70
     0
  9
$DIMSOXD
 70
     0
  9
$DIMSAH
 70
     0
  9
$DIMBLK1
  1

  9
$DIMBLK2
  1

  9
$DIMSTYLE
  2
STANDARD
  9
$DIMCLRD
 70
     0
  9
$DIMCLRE
 70
     0
  9
$DIMCLRT
 70
     0
  9
$DIMTFAC
 40
1.0
  9
$DIMGAP
 40
0.625
  9
$DIMJUST
 70
     0
  9
$DIMSD1
 70
     0
  9
$DIMSD2
 70
     0
  9
$DIMTOLJ
 70
     1
  9
$DIMTZIN
 70
     0
  9
$DIMALTZ
 70
     0
  9
$DIMALTTZ
 70
     0
  9
$DIMFIT
 70
     3
  9
$DIMUPT
 70
     0
  9
$DIMUNIT
 70
     8
  9
$DIMDEC
 70
     4
  9
$DIMTDEC
 70
     4
  9
$DIMALTU
 70
     8
  9
$DIMALTTD
 70
     4
  9
$DIMTXSTY
  7
STANDARD
  9
$DIMAUNIT
 70
     0
  9
$LUNITS
 70
     2
  9
$LUPREC
 70
     4
  9
$SKETCHINC
 40
1.0
  9
$FILLETRAD
 40
10.0
  9
$AUNITS
 70
     0
  9
$AUPREC
 70
     0
  9
$MENU
  1
.
  9
$ELEVATION
 40
0.0
  9
$PELEVATION
 40
0.0
  9
$THICKNESS
 40
0.0
  9
$LIMCHECK
 70
     0
  9
$BLIPMODE
 70
     0
  9
$CHAMFERA
 40
10.0
  9
$CHAMFERB
 40
10.0
  9
$CHAMFERC
 40
20.0
  9
$CHAMFERD
 40
0.0
  9
$SKPOLY
 70
     0
  9
$TDCREATE
 40
2452157.023910995
  9
$TDUPDATE
 40
2452157.023910995
  9
$TDINDWG
 40
0.0000000000
  9
$TDUSRTIMER
 40
0.0000000000
  9
$USRTIMER
 70
     1
  9
$ANGBASE
 50
0.0
  9
$ANGDIR
 70
     0
  9
$PDMODE
 70
     0
  9
$PDSIZE
 40
0.0
  9
$PLINEWID
 40
0.0
  9
$COORDS
 70
     1
  9
$SPLFRAME
 70
     0
  9
$SPLINETYPE
 70
     6
  9
$SPLINESEGS
 70
     8
  9
$ATTDIA
 70
     0
  9
$ATTREQ
 70
     1
  9
$HANDLING
 70
     1
  9
$HANDSEED
  5
4B
  9
$SURFTAB1
 70
     6
  9
$SURFTAB2
 70
     6
  9
$SURFTYPE
 70
     6
  9
$SURFU
 70
     6
  9
$SURFV
 70
     6
  9
$UCSNAME
  2

  9
$UCSORG
 10
0.0
 20
0.0
 30
0.0
  9
$UCSXDIR
 10
1.0000000000000000
 20
0.0
 30
+0.0000000000000000
  9
$UCSYDIR
 10
0.0
 20
1.0
 30
0.0
  9
$PUCSNAME
  2

  9
$PUCSORG
 10
0.0
 20
0.0
 30
0.0
  9
$PUCSXDIR
 10
1.0
 20
0.0
 30
0.0
  9
$PUCSYDIR
 10
0.0
 20
1.0
 30
0.0
  9
$USERI1
 70
     0
  9
$USERI2
 70
     0
  9
$USERI3
 70
     0
  9
$USERI4
 70
     0
  9
$USERI5
 70
     0
  9
$USERR1
 40
0.0
  9
$USERR2
 40
0.0
  9
$USERR3
 40
0.0
  9
$USERR4
 40
0.0
  9
$USERR5
 40
0.0
  9
$WORLDVIEW
 70
     1
  9
$SHADEDGE
 70
     3
  9
$SHADEDIF
 70
    70
  9
$TILEMODE
 70
     1
  9
$MAXACTVP
 70
    48
  9
$PINSBASE
 10
0.0
 20
0.0
 30
0.0
  9
$PLIMCHECK
 70
     0
  9
$PEXTMIN
 10
1.000000E+20
 20
1.000000E+20
 30
1.000000E+20
  9
$PEXTMAX
 10
-1.000000E+20
 20
-1.000000E+20
 30
-1.000000E+20
  9
$PLIMMIN
 10
0.0
 20
0.0
  9
$PLIMMAX
 10
420.0
 20
297.0
  9
$UNITMODE
 70
     0
  9
$VISRETAIN
 70
     1
  9
$PLINEGEN
 70
     0
  9
$PSLTSCALE
 70
     1
  9
$TREEDEPTH
 70
  3020
  9
$PICKSTYLE
 70
     1
  9
$CMLSTYLE
  2
STANDARD
  9
$CMLJUST
 70
     0
  9
$CMLSCALE
 40
20.0
  9
$PROXYGRAPHICS
 70
     1
  9
$MEASUREMENT
 70
     1
  0
ENDSEC
  0
SECTION
  2
CLASSES
  0
ENDSEC
  0
SECTION
  2
TABLES
  0
TABLE
  2
VPORT
  5
8
100
AcDbSymbolTable
 70
     2
  0
VPORT
  5
4A
100
AcDbSymbolTableRecord
100
AcDbViewportTableRecord
  2
*ACTIVE
 70
     0
 10
0.0
 20
0.0
 11
1.0
 21
1.0
 12
-69.592477
 22
-6.148788
 13
0.0
 23
0.0
 14
10.0
 24
10.0
 15
10.0
 25
10.0
 16
-1.0
 26
1.0
 36
1.0
 17
0.0
 27
0.0
 37
0.0
 40
136.765323
 41
1.059451
 42
50.0
 43
0.0
 44
0.0
 50
0.0
 51
0.0
 71
     0
 72
   100
 73
     1
 74
     1
 75
     0
 76
     0
 77
     0
 78
     0
  0
ENDTAB
  0
TABLE
  2
LTYPE
  5
5
100
AcDbSymbolTable
 70
     2
  0
LTYPE
  5
12
100
AcDbSymbolTableRecord
100
AcDbLinetypeTableRecord
  2
BYBLOCK
 70
     0
  3

 72
    65
 73
     0
 40
0.0
  0
LTYPE
  5
13
100
AcDbSymbolTableRecord
100
AcDbLinetypeTableRecord
  2
BYLAYER
 70
     0
  3

 72
    65
 73
     0
 40
0.0
  0
LTYPE
  5
14
100
AcDbSymbolTableRecord
100
AcDbLinetypeTableRecord
  2
CONTINUOUS
 70
     0
  3
Solid line
 72
    65
 73
     0
 40
0.0
  0
LTYPE
  5
35
100
AcDbSymbolTableRecord
100
AcDbLinetypeTableRecord
  2
DASHED2
 70
     0
  3
Dashed (.5x) _ _ _ _ _ _ _ _ _ _ _ _ _ _ _ _ _
 72
    65
 73
     2
 40
9.525
 49
6.35
 74
     0
 49
-3.175
 74
     0
  0
ENDTAB
  0
TABLE
  2
LAYER
  5
2
100
AcDbSymbolTable
 70
     1
  0
LAYER
  5
E
100
AcDbSymbolTableRecord
100
AcDbLayerTableRecord
  2
0
 70
     0
 62
     7
  6
CONTINUOUS
  0
ENDTAB
  0
TABLE
  2
STYLE
  5
3
100
AcDbSymbolTable
 70
     2
  0
STYLE
  5
F
100
AcDbSymbolTableRecord
100
AcDbTextStyleTableRecord
  2
STANDARD
 70
     0
 40
0.0
 41
1.0
 50
0.0
 71
     0
 42
2.5
  3
txt
  4

  0
STYLE
  5
34
100
AcDbSymbolTableRecord
100
AcDbTextStyleTableRecord
  2

 70
     1
 40
0.0
 41
1.0
 50
0.0
 71
     0
 42
2.5
  3
ltypeshp.shx
  4

  0
ENDTAB
  0
TABLE
  2
VIEW
  5
6
100
AcDbSymbolTable
 70
     0
  0
ENDTAB
  0
TABLE
  2
UCS
  5
7
100
AcDbSymbolTable
 70
     0
  0
ENDTAB
  0
TABLE
  2
APPID
  5
9
100
AcDbSymbolTable
 70
     1
  0
APPID
  5
10
100
AcDbSymbolTableRecord
100
AcDbRegAppTableRecord
  2
ACAD
 70
     0
  0
ENDTAB
  0
TABLE
  2
DIMSTYLE
  5
A
100
AcDbSymbolTable
 70
     1
  0
DIMSTYLE
105
1D
100
AcDbSymbolTableRecord
100
AcDbDimStyleTableRecord
  2
STANDARD
 70
     0
  3

  4

  5

  6

  7

 40
1.0
 41
0.18
 42
0.0625
 43
0.38
 44
0.18
 45
0.0
 46
0.0
 47
0.0
 48
0.0
140
0.18
141
0.09
142
0.0
143
25.4
144
1.0
145
0.0
146
1.0
147
0.09
 71
     0
 72
     0
 73
     1
 74
     1
 75
     0
 76
     0
 77
     0
 78
     0
170
     0
171
     2
172
     0
173
     0
174
     0
175
     0
176
     0
177
     0
178
     0
270
     2
271
     4
272
     4
273
     2
274
     2
340
F
275
     0
280
     0
281
     0
282
     0
283
     1
284
     0
285
     0
286
     0
287
     3
288
     0
  0
ENDTAB
  0
TABLE
  2
BLOCK_RECORD
  5
1
100
AcDbSymbolTable
 70
     0
  0
BLOCK_RECORD
  5
18
100
AcDbSymbolTableRecord
100
AcDbBlockTableRecord
  2
*MODEL_SPACE
  0
BLOCK_RECORD
  5
15
100
AcDbSymbolTableRecord
100
AcDbBlockTableRecord
  2
*PAPER_SPACE
  0
ENDTAB
  0
ENDSEC
  0
SECTION
  2
BLOCKS
  0
BLOCK
  5
19
100
AcDbEntity
  8
0
100
AcDbBlockBegin
  2
*MODEL_SPACE
 70
     0
 10
0.0
 20
0.0
 30
0.0
  3
*MODEL_SPACE
  1

  0
ENDBLK
  5
1A
100
AcDbEntity
  8
0
100
AcDbBlockEnd
  0
BLOCK
  5
16
100
AcDbEntity
 67
     1
  8
0
100
AcDbBlockBegin
  2
*PAPER_SPACE
 70
     0
 10
0.0
 20
0.0
 30
0.0
  3
*PAPER_SPACE
  1

  0
ENDBLK
  5
17
100
AcDbEntity
 67
     1
  8
0
100
AcDbBlockEnd
  0
ENDSEC
  0
SECTION
  2
ENTITIES
    0
LINE
  5
500
100
AcDbEntity
  8
0
  6
DASHED2
 62
     1
100
AcDbLine
 10
0
 20
0
 30
5
 11
1
 21
0
 31
1
  0
LINE
  5
501
100
AcDbEntity
  8
0
  6
ByLayer
 62
     0
100
AcDbLine
 10
54.021
 20
25.038
 30
1
 11
54.021
 21
25.038
 31
-10
  0
LINE
  5
502
100
AcDbEntity
  8
0
  6
ByLayer
 62
     0
100
AcDbLine
 10
54.021
 20
25.038
 30
-10
 11
54.021
 21
25.038
 31
1
  0
LINE
  5
503
100
AcDbEntity
  8
0
  6
DASHED2
 62
     1
100
AcDbLine
 10
1
 20
0
 30
1
 11
54.021
 21
25.038
 31
1
  0
LINE
  5
504
100
AcDbEntity
  8
0
  6
ByLayer
 62
     0
100
AcDbLine
 10
5.621
 20
74.161
 30
1
 11
5.621
 21
74.161
 31
-10
  0
LINE
  5
505
100
AcDbEntity
  8
0
  6
ByLayer
 62
     0
100
AcDbLine
 10
5.621
 20
74.161
 30
-10
 11
5.621
 21
74.161
 31
1
  0
LINE
  5
506
100
AcDbEntity
  8
0
  6
DASHED2
 62
     1
100
AcDbLine
 10
54.021
 20
25.038
 30
1
 11
5.621
 21
74.161
 31
1
  0
LINE
  5
507
100
AcDbEntity
  8
0
  6
ByLayer
 62
     0
100
AcDbLine
 10
73.36
 20
75.181
 30
1
 11
73.36
 21
75.181
 31
-10
  0
LINE
  5
508
100
AcDbEntity
  8
0
  6
ByLayer
 62
     0
100
AcDbLine
 10
73.36
 20
75.181
 30
-10
 11
73.36
 21
75.181
 31
1
  0
LINE
  5
509
100
AcDbEntity
  8
0
  6
DASHED2
 62
     1
100
AcDbLine
 10
5.621
 20
74.161
 30
1
 11
73.36
 21
75.181
 31
1
  0
LINE
  5
510
100
AcDbEntity
  8
0
  6
ByLayer
 62
     0
100
AcDbLine
 10
73.36
 20
5.256
 30
1
 11
73.36
 21
5.256
 31
-10
  0
LINE
  5
511
100
AcDbEntity
  8
0
  6
ByLayer
 62
     0
100
AcDbLine
 10
73.36
 20
5.256
 30
-10
 11
73.36
 21
5.256
 31
1
  0
LINE
  5
512
100
AcDbEntity
  8
0
  6
DASHED2
 62
     1
100
AcDbLine
 10
73.36
 20
75.181
 30
1
 11
73.36
 21
5.256
 31
1
  0
LINE
  5
513
100
AcDbEntity
  8
0
  6
ByLayer
 62
     0
100
AcDbLine
 10
4.892
 20
4.091
 30
1
 11
4.892
 21
4.091
 31
-10
  0
LINE
  5
514
100
AcDbEntity
  8
0
  6
ByLayer
 62
     0
100
AcDbLine
 10
4.892
 20
4.091
 30
-10
 11
4.892
 21
4.091
 31
1
  0
LINE
  5
515
100
AcDbEntity
  8
0
  6
DASHED2
 62
     1
100
AcDbLine
 10
73.36
 20
5.256
 30
1
 11
4.892
 21
4.091
 31
1
  0
LINE
  5
516
100
AcDbEntity
  8
0
  6
DASHED2
 62
     1
100
AcDbLine
 10
4.892
 20
4.091
 30
1
 11
4.892
 21
4.091
 31
5
  0
LINE
  5
517
100
AcDbEntity
  8
0
  6
DASHED2
 62
     1
100
AcDbLine
 10
4.892
 20
4.091
 30
5
 11
23.598
 21
22.536
 31
5
  0
LINE
  5
518
100
AcDbEntity
  8
0
  6
DASHED2
 62
     1
100
AcDbLine
 10
23.598
 20
22.536
 30
5
 11
23.598
 21
22.536
 31
1
  0
LINE
  5
519
100
AcDbEntity
  8
0
  6
ByLayer
 62
     0
100
AcDbLine
 10
23.598
 20
22.536
 30
1
 11
23.598
 21
22.536
 31
-3.75
  0
LINE
  5
520
100
AcDbEntity
  8
0
  6
ByLayer
 62
     0
100
AcDbLine
 10
23.598
 20
22.536
 30
-3.75
 11
23.598
 21
25.807
 31
-3.75
  0
ARC
  5
521
100
AcDbEntity
  8
0
100
AcDbCircle
 10
27.011
 20
40.516
 30
-3.75
 40
15.0998
210
0
220
0
230
1
100
AcDbArc
 50
256.937
 51
270
  0
LINE
  5
522
100
AcDbEntity
  8
0
  6
ByLayer
 62
     0
100
AcDbLine
 10
27.011
 20
25.416
 30
-3.75
 11
31.01
 21
25.416
 31
-3.75
  0
ARC
  5
523
100
AcDbEntity
  8
0
100
AcDbCircle
 10
54.021
 20
25.038
 30
-3.75
 40
23.0141
210
0
220
0
230
1
100
AcDbArc
 50
179.059
 51
186.241
  0
LINE
  5
524
100
AcDbEntity
  8
0
  6
ByLayer
 62
     0
100
AcDbLine
 10
31.144
 20
22.536
 30
-3.75
 11
23.598
 21
22.536
 31
-3.75
  0
LINE
  5
525
100
AcDbEntity
  8
0
  6
ByLayer
 62
     0
100
AcDbLine
 10
23.598
 20
22.536
 30
-3.75
 11
19.848
 21
22.536
 31
-3.75
  0
LINE
  5
526
100
AcDbEntity
  8
0
  6
ByLayer
 62
     0
100
AcDbLine
 10
19.848
 20
22.536
 30
-3.75
 11
19.848
 21
31.712
 31
-3.75
  0
ARC
  5
527
100
AcDbEntity
  8
0
100
AcDbCircle
 10
27.011
 20
40.516
 30
-3.75
 40
11.3498
210
0
220
0
230
1
100
AcDbArc
 50
230.868
 51
270
  0
LINE
  5
528
100
AcDbEntity
  8
0
  6
ByLayer
 62
     0
100
AcDbLine
 10
27.011
 20
29.166
 30
-3.75
 11
35.205
 21
29.166
 31
-3.75
  0
ARC
  5
529
100
AcDbEntity
  8
0
100
AcDbCircle
 10
54.022
 20
25.038
 30
-3.75
 40
19.2645
210
0
220
0
230
1
100
AcDbArc
 50
167.627
 51
198.937
  0
LINE
  5
530
100
AcDbEntity
  8
0
  6
ByLayer
 62
     0
100
AcDbLine
 10
35.8
 20
18.786
 30
-3.75
 11
19.848
 21
18.786
 31
-3.75
  0
LINE
  5
531
100
AcDbEntity
  8
0
  6
ByLayer
 62
     0
100
AcDbLine
 10
19.848
 20
18.786
 30
-3.75
 11
19.848
 21
22.536
 31
-3.75
  0
LINE
  5
532
100
AcDbEntity
  8
0
  6
ByLayer
 62
     0
100
AcDbLine
 10
19.848
 20
22.536
 30
-3.75
 11
16.098
 21
22.536
 31
-3.75
  0
LINE
  5
533
100
AcDbEntity
  8
0
  6
ByLayer
 62
     0
100
AcDbLine
 10
16.098
 20
22.536
 30
-3.75
 11
16.098
 21
59.651
 31
-3.75
  0
ARC
  5
534
100
AcDbEntity
  8
0
100
AcDbCircle
 10
18.498
 20
59.651
 30
-3.75
 40
2.4
210
0
220
0
230
1
100
AcDbArc
 50
90
 51
180
  0
LINE
  5
535
100
AcDbEntity
  8
0
  6
ByLayer
 62
     0
100
AcDbLine
 10
18.498
 20
62.051
 30
-3.75
 11
45.077
 21
62.051
 31
-3.75
  0
LINE
  5
536
100
AcDbEntity
  8
0
  6
ByLayer
 62
     0
100
AcDbLine
 10
45.077
 20
62.051
 30
-3.75
 11
45.077
 21
58.301
 31
-3.75
  0
LINE
  5
537
100
AcDbEntity
  8
0
  6
ByLayer
 62
     0
100
AcDbLine
 10
45.077
 20
58.301
 30
-3.75
 11
50.649
 21
58.301
 31
-3.75
  0
LINE
  5
538
100
AcDbEntity
  8
0
  6
ByLayer
 62
     0
100
AcDbLine
 10
50.649
 20
58.301
 30
-3.75
 11
50.649
 21
54.551
 31
-3.75
  0
LINE
  5
539
100
AcDbEntity
  8
0
  6
ByLayer
 62
     0
100
AcDbLine
 10
50.649
 20
54.551
 30
-3.75
 11
55.31
 21
54.551
 31
-3.75
  0
LINE
  5
540
100
AcDbEntity
  8
0
  6
ByLayer
 62
     0
100
AcDbLine
 10
55.31
 20
54.551
 30
-3.75
 11
55.31
 21
48.016
 31
-3.75
  0
ARC
  5
541
100
AcDbEntity
  8
0
100
AcDbCircle
 10
54.022
 20
25.038
 30
-3.75
 40
23.0141
210
0
220
0
230
1
100
AcDbArc
 50
86.7917
 51
97.7664
  0
LINE
  5
542
100
AcDbEntity
  8
0
  6
ByLayer
 62
     0
100
AcDbLine
 10
50.912
 20
47.841
 30
-3.75
 11
50.912
 21
51.745
 31
-3.75
  0
ARC
  5
543
100
AcDbEntity
  8
0
100
AcDbCircle
 10
35.812
 20
51.745
 30
-3.75
 40
15.1
210
0
220
0
230
1
100
AcDbArc
 50
360
 51
10.7094
  0
LINE
  5
544
100
AcDbEntity
  8
0
  6
ByLayer
 62
     0
100
AcDbLine
 10
50.649
 20
54.551
 30
-3.75
 11
50.649
 21
58.301
 31
-3.75
  0
LINE
  5
545
100
AcDbEntity
  8
0
  6
ByLayer
 62
     0
100
AcDbLine
 10
50.649
 20
58.301
 30
-3.75
 11
59.06
 21
58.301
 31
-3.75
  0
LINE
  5
546
100
AcDbEntity
  8
0
  6
ByLayer
 62
     0
100
AcDbLine
 10
59.06
 20
58.301
 30
-3.75
 11
59.06
 21
43.631
 31
-3.75
  0
ARC
  5
547
100
AcDbEntity
  8
0
100
AcDbCircle
 10
54.022
 20
25.038
 30
-3.75
 40
19.2635
210
0
220
0
230
1
100
AcDbArc
 50
74.8391
 51
110.861
  0
LINE
  5
548
100
AcDbEntity
  8
0
  6
ByLayer
 62
     0
100
AcDbLine
 10
47.162
 20
43.039
 30
-3.75
 11
47.162
 21
51.745
 31
-3.75
  0
LINE
  5
549
100
AcDbEntity
  8
0
  6
ByLayer
 62
     0
100
AcDbLine
 10
47.162
 20
51.745
 30
-3.75
 11
43.412
 21
51.745
 31
-3.75
  0
ARC
  5
550
100
AcDbEntity
  8
0
100
AcDbCircle
 10
35.812
 20
51.745
 30
-3.75
 40
7.6
210
0
220
0
230
1
100
AcDbArc
 50
360
 51
90
  0
LINE
  5
551
100
AcDbEntity
  8
0
  6
ByLayer
 62
     0
100
AcDbLine
 10
35.812
 20
59.345
 30
-3.75
 11
27.011
 21
59.345
 31
-3.75
  0
ARC
  5
552
100
AcDbEntity
  8
0
100
AcDbCircle
 10
27.011
 20
51.745
 30
-3.75
 40
7.6
210
0
220
0
230
1
100
AcDbArc
 50
90
 51
180
  0
LINE
  5
553
100
AcDbEntity
  8
0
  6
ByLayer
 62
     0
100
AcDbLine
 10
19.411
 20
51.745
 30
-3.75
 11
19.411
 21
40.516
 31
-3.75
  0
ARC
  5
554
100
AcDbEntity
  8
0
100
AcDbCircle
 10
27.011
 20
40.516
 30
-3.75
 40
7.6
210
0
220
0
230
1
100
AcDbArc
 50
180
 51
270
  0
LINE
  5
555
100
AcDbEntity
  8
0
  6
ByLayer
 62
     0
100
AcDbLine
 10
27.011
 20
32.916
 30
-3.75
 11
35.812
 21
32.916
 31
-3.75
  0
ARC
  5
556
100
AcDbEntity
  8
0
100
AcDbCircle
 10
35.812
 20
40.516
 30
-3.75
 40
7.6
210
0
220
0
230
1
100
AcDbArc
 50
270
 51
360
  0
LINE
  5
557
100
AcDbEntity
  8
0
  6
ByLayer
 62
     0
100
AcDbLine
 10
43.412
 20
40.516
 30
-3.75
 11
43.412
 21
51.745
 31
-3.75
  0
LINE
  5
558
100
AcDbEntity
  8
0
  6
ByLayer
 62
     0
100
AcDbLine
 10
43.412
 20
51.745
 30
-3.75
 11
39.662
 21
51.745
 31
-3.75
  0
ARC
  5
559
100
AcDbEntity
  8
0
100
AcDbCircle
 10
35.812
 20
51.745
 30
-3.75
 40
3.85
210
0
220
0
230
1
100
AcDbArc
 50
360
 51
90
  0
LINE
  5
560
100
AcDbEntity
  8
0
  6
ByLayer
 62
     0
100
AcDbLine
 10
35.812
 20
55.595
 30
-3.75
 11
27.011
 21
55.595
 31
-3.75
  0
ARC
  5
561
100
AcDbEntity
  8
0
100
AcDbCircle
 10
27.011
 20
51.745
 30
-3.75
 40
3.85
210
0
220
0
230
1
100
AcDbArc
 50
90
 51
180
  0
LINE
  5
562
100
AcDbEntity
  8
0
  6
ByLayer
 62
     0
100
AcDbLine
 10
23.161
 20
51.745
 30
-3.75
 11
23.161
 21
40.516
 31
-3.75
  0
ARC
  5
563
100
AcDbEntity
  8
0
100
AcDbCircle
 10
27.011
 20
40.516
 30
-3.75
 40
3.85
210
0
220
0
230
1
100
AcDbArc
 50
180
 51
270
  0
LINE
  5
564
100
AcDbEntity
  8
0
  6
ByLayer
 62
     0
100
AcDbLine
 10
27.011
 20
36.666
 30
-3.75
 11
35.812
 21
36.666
 31
-3.75
  0
ARC
  5
565
100
AcDbEntity
  8
0
100
AcDbCircle
 10
35.812
 20
40.516
 30
-3.75
 40
3.85
210
0
220
0
230
1
100
AcDbArc
 50
270
 51
360
  0
LINE
  5
566
100
AcDbEntity
  8
0
  6
ByLayer
 62
     0
100
AcDbLine
 10
39.662
 20
40.516
 30
-3.75
 11
39.662
 21
51.745
 31
-3.75
  0
LINE
  5
567
100
AcDbEntity
  8
0
  6
ByLayer
 62
     0
100
AcDbLine
 10
39.662
 20
51.745
 30
-3.75
 11
47.162
 21
51.745
 31
-3.75
  0
ARC
  5
568
100
AcDbEntity
  8
0
100
AcDbCircle
 10
35.812
 20
51.745
 30
-3.75
 40
11.35
210
0
220
0
230
1
100
AcDbArc
 50
360
 51
35.2836
  0
LINE
  5
569
100
AcDbEntity
  8
0
  6
ByLayer
 62
     0
100
AcDbLine
 10
45.077
 20
58.301
 30
-3.75
 11
45.077
 21
62.051
 31
-3.75
  0
LINE
  5
570
100
AcDbEntity
  8
0
  6
ByLayer
 62
     0
100
AcDbLine
 10
45.077
 20
62.051
 30
-3.75
 11
62.81
 21
62.051
 31
-3.75
  0
LINE
  5
571
100
AcDbEntity
  8
0
  6
ByLayer
 62
     0
100
AcDbLine
 10
62.81
 20
62.051
 30
-3.75
 11
62.81
 21
37.823
 31
-3.75
  0
LINE
  5
572
100
AcDbEntity
  8
0
  6
ByLayer
 62
     0
100
AcDbLine
 10
62.81
 20
37.823
 30
-3.75
 11
60.685
 21
34.732
 31
-3.75
  0
ARC
  5
573
100
AcDbEntity
  8
0
100
AcDbCircle
 10
54.021
 20
25.038
 30
-3.75
 40
11.7636
210
0
220
0
230
1
100
AcDbArc
 50
55.494
 51
0
  0
ARC
  5
574
100
AcDbEntity
  8
0
100
AcDbCircle
 10
54.021
 20
25.038
 30
-3.75
 40
11.764
210
0
220
0
230
1
100
AcDbArc
 50
360
 51
55.494
  0
LINE
  5
575
100
AcDbEntity
  8
0
  6
ByLayer
 62
     0
100
AcDbLine
 10
60.685
 20
34.732
 30
-3.75
 11
62.81
 21
37.823
 31
-3.75
  0
ARC
  5
576
100
AcDbEntity
  8
0
100
AcDbCircle
 10
54.022
 20
25.038
 30
-3.75
 40
15.514
210
0
220
0
230
1
100
AcDbArc
 50
55.4966
 51
220.142
  0
LINE
  5
577
100
AcDbEntity
  8
0
  6
ByLayer
 62
     0
100
AcDbLine
 10
42.162
 20
15.036
 30
-3.75
 11
16.098
 21
15.036
 31
-3.75
  0
LINE
  5
578
100
AcDbEntity
  8
0
  6
ByLayer
 62
     0
100
AcDbLine
 10
16.098
 20
15.036
 30
-3.75
 11
16.098
 21
22.536
 31
-3.75
  0
LINE
  5
579
100
AcDbEntity
  8
0
  6
ByLayer
 62
     0
100
AcDbLine
 10
16.098
 20
22.536
 30
-3.75
 11
12.348
 21
22.536
 31
-3.75
  0
LINE
  5
580
100
AcDbEntity
  8
0
  6
ByLayer
 62
     0
100
AcDbLine
 10
12.348
 20
22.536
 30
-3.75
 11
12.348
 21
59.651
 31
-3.75
  0
ARC
  5
581
100
AcDbEntity
  8
0
100
AcDbCircle
 10
18.498
 20
59.651
 30
-3.75
 40
6.15
210
0
220
0
230
1
100
AcDbArc
 50
90
 51
180
  0
LINE
  5
582
100
AcDbEntity
  8
0
  6
ByLayer
 62
     0
100
AcDbLine
 10
18.498
 20
65.801
 30
-3.75
 11
65.41
 21
65.801
 31
-3.75
  0
ARC
  5
583
100
AcDbEntity
  8
0
100
AcDbCircle
 10
65.41
 20
64.651
 30
-3.75
 40
1.15
210
0
220
0
230
1
100
AcDbArc
 50
360
 51
90
  0
LINE
  5
584
100
AcDbEntity
  8
0
  6
ByLayer
 62
     0
100
AcDbLine
 10
66.56
 20
64.651
 30
-3.75
 11
66.56
 21
17.436
 31
-3.75
  0
ARC
  5
585
100
AcDbEntity
  8
0
100
AcDbCircle
 10
60.41
 20
17.436
 30
-3.75
 40
6.15
210
0
220
0
230
1
100
AcDbArc
 50
270
 51
0
  0
LINE
  5
586
100
AcDbEntity
  8
0
  6
ByLayer
 62
     0
100
AcDbLine
 10
60.41
 20
11.286
 30
-3.75
 11
13.498
 21
11.286
 31
-3.75
  0
ARC
  5
587
100
AcDbEntity
  8
0
100
AcDbCircle
 10
13.498
 20
12.436
 30
-3.75
 40
1.15
210
0
220
0
230
1
100
AcDbArc
 50
180
 51
270
  0
LINE
  5
588
100
AcDbEntity
  8
0
  6
ByLayer
 62
     0
100
AcDbLine
 10
12.348
 20
12.436
 30
-3.75
 11
12.348
 21
22.536
 31
-3.75
  0
LINE
  5
589
100
AcDbEntity
  8
0
  6
DASHED2
 62
     1
100
AcDbLine
 10
12.348
 20
22.536
 30
-3.75
 11
12.348
 21
22.536
 31
10
  0
LINE
  5
590
100
AcDbEntity
  8
0
  6
DASHED2
 62
     1
100
AcDbLine
 10
12.348
 20
22.536
 30
10
 11
23.598
 21
22.536
 31
10
  0
LINE
  5
591
100
AcDbEntity
  8
0
  6
DASHED2
 62
     1
100
AcDbLine
 10
23.598
 20
22.536
 30
10
 11
23.598
 21
22.536
 31
-2.75
  0
LINE
  5
592
100
AcDbEntity
  8
0
  6
ByLayer
 62
     0
100
AcDbLine
 10
23.598
 20
22.536
 30
-2.75
 11
23.598
 21
22.536
 31
-7.5
  0
LINE
  5
593
100
AcDbEntity
  8
0
  6
ByLayer
 62
     0
100
AcDbLine
 10
23.598
 20
22.536
 30
-7.5
 11
23.598
 21
25.807
 31
-7.5
  0
ARC
  5
594
100
AcDbEntity
  8
0
100
AcDbCircle
 10
27.011
 20
40.516
 30
-7.5
 40
15.0998
210
0
220
0
230
1
100
AcDbArc
 50
256.937
 51
270
  0
LINE
  5
595
100
AcDbEntity
  8
0
  6
ByLayer
 62
     0
100
AcDbLine
 10
27.011
 20
25.416
 30
-7.5
 11
31.01
 21
25.416
 31
-7.5
  0
ARC
  5
596
100
AcDbEntity
  8
0
100
AcDbCircle
 10
54.021
 20
25.038
 30
-7.5
 40
23.0141
210
0
220
0
230
1
100
AcDbArc
 50
179.059
 51
186.241
  0
LINE
  5
597
100
AcDbEntity
  8
0
  6
ByLayer
 62
     0
100
AcDbLine
 10
31.144
 20
22.536
 30
-7.5
 11
23.598
 21
22.536
 31
-7.5
  0
LINE
  5
598
100
AcDbEntity
  8
0
  6
ByLayer
 62
     0
100
AcDbLine
 10
23.598
 20
22.536
 30
-7.5
 11
19.848
 21
22.536
 31
-7.5
  0
LINE
  5
599
100
AcDbEntity
  8
0
  6
ByLayer
 62
     0
100
AcDbLine
 10
19.848
 20
22.536
 30
-7.5
 11
19.848
 21
31.712
 31
-7.5
  0
ARC
  5
600
100
AcDbEntity
  8
0
100
AcDbCircle
 10
27.011
 20
40.516
 30
-7.5
 40
11.3498
210
0
220
0
230
1
100
AcDbArc
 50
230.868
 51
270
  0
LINE
  5
601
100
AcDbEntity
  8
0
  6
ByLayer
 62
     0
100
AcDbLine
 10
27.011
 20
29.166
 30
-7.5
 11
35.205
 21
29.166
 31
-7.5
  0
ARC
  5
602
100
AcDbEntity
  8
0
100
AcDbCircle
 10
54.022
 20
25.038
 30
-7.5
 40
19.2645
210
0
220
0
230
1
100
AcDbArc
 50
167.627
 51
198.937
  0
LINE
  5
603
100
AcDbEntity
  8
0
  6
ByLayer
 62
     0
100
AcDbLine
 10
35.8
 20
18.786
 30
-7.5
 11
19.848
 21
18.786
 31
-7.5
  0
LINE
  5
604
100
AcDbEntity
  8
0
  6
ByLayer
 62
     0
100
AcDbLine
 10
19.848
 20
18.786
 30
-7.5
 11
19.848
 21
22.536
 31
-7.5
  0
LINE
  5
605
100
AcDbEntity
  8
0
  6
ByLayer
 62
     0
100
AcDbLine
 10
19.848
 20
22.536
 30
-7.5
 11
16.098
 21
22.536
 31
-7.5
  0
LINE
  5
606
100
AcDbEntity
  8
0
  6
ByLayer
 62
     0
100
AcDbLine
 10
16.098
 20
22.536
 30
-7.5
 11
16.098
 21
59.651
 31
-7.5
  0
ARC
  5
607
100
AcDbEntity
  8
0
100
AcDbCircle
 10
18.498
 20
59.651
 30
-7.5
 40
2.4
210
0
220
0
230
1
100
AcDbArc
 50
90
 51
180
  0
LINE
  5
608
100
AcDbEntity
  8
0
  6
ByLayer
 62
     0
100
AcDbLine
 10
18.498
 20
62.051
 30
-7.5
 11
45.077
 21
62.051
 31
-7.5
  0
LINE
  5
609
100
AcDbEntity
  8
0
  6
ByLayer
 62
     0
100
AcDbLine
 10
45.077
 20
62.051
 30
-7.5
 11
45.077
 21
58.301
 31
-7.5
  0
LINE
  5
610
100
AcDbEntity
  8
0
  6
ByLayer
 62
     0
100
AcDbLine
 10
45.077
 20
58.301
 30
-7.5
 11
50.649
 21
58.301
 31
-7.5
  0
LINE
  5
611
100
AcDbEntity
  8
0
  6
ByLayer
 62
     0
100
AcDbLine
 10
50.649
 20
58.301
 30
-7.5
 11
50.649
 21
54.551
 31
-7.5
  0
LINE
  5
612
100
AcDbEntity
  8
0
  6
ByLayer
 62
     0
100
AcDbLine
 10
50.649
 20
54.551
 30
-7.5
 11
55.31
 21
54.551
 31
-7.5
  0
LINE
  5
613
100
AcDbEntity
  8
0
  6
ByLayer
 62
     0
100
AcDbLine
 10
55.31
 20
54.551
 30
-7.5
 11
55.31
 21
48.016
 31
-7.5
  0
ARC
  5
614
100
AcDbEntity
  8
0
100
AcDbCircle
 10
54.022
 20
25.038
 30
-7.5
 40
23.0141
210
0
220
0
230
1
100
AcDbArc
 50
86.7917
 51
97.7664
  0
LINE
  5
615
100
AcDbEntity
  8
0
  6
ByLayer
 62
     0
100
AcDbLine
 10
50.912
 20
47.841
 30
-7.5
 11
50.912
 21
51.745
 31
-7.5
  0
ARC
  5
616
100
AcDbEntity
  8
0
100
AcDbCircle
 10
35.812
 20
51.745
 30
-7.5
 40
15.1
210
0
220
0
230
1
100
AcDbArc
 50
360
 51
10.7094
  0
LINE
  5
617
100
AcDbEntity
  8
0
  6
ByLayer
 62
     0
100
AcDbLine
 10
50.649
 20
54.551
 30
-7.5
 11
50.649
 21
58.301
 31
-7.5
  0
LINE
  5
618
100
AcDbEntity
  8
0
  6
ByLayer
 62
     0
100
AcDbLine
 10
50.649
 20
58.301
 30
-7.5
 11
59.06
 21
58.301
 31
-7.5
  0
LINE
  5
619
100
AcDbEntity
  8
0
  6
ByLayer
 62
     0
100
AcDbLine
 10
59.06
 20
58.301
 30
-7.5
 11
59.06
 21
43.631
 31
-7.5
  0
ARC
  5
620
100
AcDbEntity
  8
0
100
AcDbCircle
 10
54.022
 20
25.038
 30
-7.5
 40
19.2635
210
0
220
0
230
1
100
AcDbArc
 50
74.8391
 51
110.861
  0
LINE
  5
621
100
AcDbEntity
  8
0
  6
ByLayer
 62
     0
100
AcDbLine
 10
47.162
 20
43.039
 30
-7.5
 11
47.162
 21
51.745
 31
-7.5
  0
LINE
  5
622
100
AcDbEntity
  8
0
  6
ByLayer
 62
     0
100
AcDbLine
 10
47.162
 20
51.745
 30
-7.5
 11
43.412
 21
51.745
 31
-7.5
  0
ARC
  5
623
100
AcDbEntity
  8
0
100
AcDbCircle
 10
35.812
 20
51.745
 30
-7.5
 40
7.6
210
0
220
0
230
1
100
AcDbArc
 50
360
 51
90
  0
LINE
  5
624
100
AcDbEntity
  8
0
  6
ByLayer
 62
     0
100
AcDbLine
 10
35.812
 20
59.345
 30
-7.5
 11
27.011
 21
59.345
 31
-7.5
  0
ARC
  5
625
100
AcDbEntity
  8
0
100
AcDbCircle
 10
27.011
 20
51.745
 30
-7.5
 40
7.6
210
0
220
0
230
1
100
AcDbArc
 50
90
 51
180
  0
LINE
  5
626
100
AcDbEntity
  8
0
  6
ByLayer
 62
     0
100
AcDbLine
 10
19.411
 20
51.745
 30
-7.5
 11
19.411
 21
40.516
 31
-7.5
  0
ARC
  5
627
100
AcDbEntity
  8
0
100
AcDbCircle
 10
27.011
 20
40.516
 30
-7.5
 40
7.6
210
0
220
0
230
1
100
AcDbArc
 50
180
 51
270
  0
LINE
  5
628
100
AcDbEntity
  8
0
  6
ByLayer
 62
     0
100
AcDbLine
 10
27.011
 20
32.916
 30
-7.5
 11
35.812
 21
32.916
 31
-7.5
  0
ARC
  5
629
100
AcDbEntity
  8
0
100
AcDbCircle
 10
35.812
 20
40.516
 30
-7.5
 40
7.6
210
0
220
0
230
1
100
AcDbArc
 50
270
 51
360
  0
LINE
  5
630
100
AcDbEntity
  8
0
  6
ByLayer
 62
     0
100
AcDbLine
 10
43.412
 20
40.516
 30
-7.5
 11
43.412
 21
51.745
 31
-7.5
  0
LINE
  5
631
100
AcDbEntity
  8
0
  6
ByLayer
 62
     0
100
AcDbLine
 10
43.412
 20
51.745
 30
-7.5
 11
39.662
 21
51.745
 31
-7.5
  0
ARC
  5
632
100
AcDbEntity
  8
0
100
AcDbCircle
 10
35.812
 20
51.745
 30
-7.5
 40
3.85
210
0
220
0
230
1
100
AcDbArc
 50
360
 51
90
  0
LINE
  5
633
100
AcDbEntity
  8
0
  6
ByLayer
 62
     0
100
AcDbLine
 10
35.812
 20
55.595
 30
-7.5
 11
27.011
 21
55.595
 31
-7.5
  0
ARC
  5
634
100
AcDbEntity
  8
0
100
AcDbCircle
 10
27.011
 20
51.745
 30
-7.5
 40
3.85
210
0
220
0
230
1
100
AcDbArc
 50
90
 51
180
  0
LINE
  5
635
100
AcDbEntity
  8
0
  6
ByLayer
 62
     0
100
AcDbLine
 10
23.161
 20
51.745
 30
-7.5
 11
23.161
 21
40.516
 31
-7.5
  0
ARC
  5
636
100
AcDbEntity
  8
0
100
AcDbCircle
 10
27.011
 20
40.516
 30
-7.5
 40
3.85
210
0
220
0
230
1
100
AcDbArc
 50
180
 51
270
  0
LINE
  5
637
100
AcDbEntity
  8
0
  6
ByLayer
 62
     0
100
AcDbLine
 10
27.011
 20
36.666
 30
-7.5
 11
35.812
 21
36.666
 31
-7.5
  0
ARC
  5
638
100
AcDbEntity
  8
0
100
AcDbCircle
 10
35.812
 20
40.516
 30
-7.5
 40
3.85
210
0
220
0
230
1
100
AcDbArc
 50
270
 51
360
  0
LINE
  5
639
100
AcDbEntity
  8
0
  6
ByLayer
 62
     0
100
AcDbLine
 10
39.662
 20
40.516
 30
-7.5
 11
39.662
 21
51.745
 31
-7.5
  0
LINE
  5
640
100
AcDbEntity
  8
0
  6
ByLayer
 62
     0
100
AcDbLine
 10
39.662
 20
51.745
 30
-7.5
 11
47.162
 21
51.745
 31
-7.5
  0
ARC
  5
641
100
AcDbEntity
  8
0
100
AcDbCircle
 10
35.812
 20
51.745
 30
-7.5
 40
11.35
210
0
220
0
230
1
100
AcDbArc
 50
360
 51
35.2836
  0
LINE
  5
642
100
AcDbEntity
  8
0
  6
ByLayer
 62
     0
100
AcDbLine
 10
45.077
 20
58.301
 30
-7.5
 11
45.077
 21
62.051
 31
-7.5
  0
LINE
  5
643
100
AcDbEntity
  8
0
  6
ByLayer
 62
     0
100
AcDbLine
 10
45.077
 20
62.051
 30
-7.5
 11
62.81
 21
62.051
 31
-7.5
  0
LINE
  5
644
100
AcDbEntity
  8
0
  6
ByLayer
 62
     0
100
AcDbLine
 10
62.81
 20
62.051
 30
-7.5
 11
62.81
 21
37.823
 31
-7.5
  0
LINE
  5
645
100
AcDbEntity
  8
0
  6
ByLayer
 62
     0
100
AcDbLine
 10
62.81
 20
37.823
 30
-7.5
 11
60.685
 21
34.732
 31
-7.5
  0
ARC
  5
646
100
AcDbEntity
  8
0
100
AcDbCircle
 10
54.021
 20
25.038
 30
-7.5
 40
11.7636
210
0
220
0
230
1
100
AcDbArc
 50
55.494
 51
0
  0
ARC
  5
647
100
AcDbEntity
  8
0
100
AcDbCircle
 10
54.021
 20
25.038
 30
-7.5
 40
11.764
210
0
220
0
230
1
100
AcDbArc
 50
360
 51
55.494
  0
LINE
  5
648
100
AcDbEntity
  8
0
  6
ByLayer
 62
     0
100
AcDbLine
 10
60.685
 20
34.732
 30
-7.5
 11
62.81
 21
37.823
 31
-7.5
  0
ARC
  5
649
100
AcDbEntity
  8
0
100
AcDbCircle
 10
54.022
 20
25.038
 30
-7.5
 40
15.514
210
0
220
0
230
1
100
AcDbArc
 50
55.4966
 51
220.142
  0
LINE
  5
650
100
AcDbEntity
  8
0
  6
ByLayer
 62
     0
100
AcDbLine
 10
42.162
 20
15.036
 30
-7.5
 11
16.098
 21
15.036
 31
-7.5
  0
LINE
  5
651
100
AcDbEntity
  8
0
  6
ByLayer
 62
     0
100
AcDbLine
 10
16.098
 20
15.036
 30
-7.5
 11
16.098
 21
22.536
 31
-7.5
  0
LINE
  5
652
100
AcDbEntity
  8
0
  6
ByLayer
 62
     0
100
AcDbLine
 10
16.098
 20
22.536
 30
-7.5
 11
12.348
 21
22.536
 31
-7.5
  0
LINE
  5
653
100
AcDbEntity
  8
0
  6
ByLayer
 62
     0
100
AcDbLine
 10
12.348
 20
22.536
 30
-7.5
 11
12.348
 21
59.651
 31
-7.5
  0
ARC
  5
654
100
AcDbEntity
  8
0
100
AcDbCircle
 10
18.498
 20
59.651
 30
-7.5
 40
6.15
210
0
220
0
230
1
100
AcDbArc
 50
90
 51
180
  0
LINE
  5
655
100
AcDbEntity
  8
0
  6
ByLayer
 62
     0
100
AcDbLine
 10
18.498
 20
65.801
 30
-7.5
 11
65.41
 21
65.801
 31
-7.5
  0
ARC
  5
656
100
AcDbEntity
  8
0
100
AcDbCircle
 10
65.41
 20
64.651
 30
-7.5
 40
1.15
210
0
220
0
230
1
100
AcDbArc
 50
360
 51
90
  0
LINE
  5
657
100
AcDbEntity
  8
0
  6
ByLayer
 62
     0
100
AcDbLine
 10
66.56
 20
64.651
 30
-7.5
 11
66.56
 21
17.436
 31
-7.5
  0
ARC
  5
658
100
AcDbEntity
  8
0
100
AcDbCircle
 10
60.41
 20
17.436
 30
-7.5
 40
6.15
210
0
220
0
230
1
100
AcDbArc
 50
270
 51
0
  0
LINE
  5
659
100
AcDbEntity
  8
0
  6
ByLayer
 62
     0
100
AcDbLine
 10
60.41
 20
11.286
 30
-7.5
 11
13.498
 21
11.286
 31
-7.5
  0
ARC
  5
660
100
AcDbEntity
  8
0
100
AcDbCircle
 10
13.498
 20
12.436
 30
-7.5
 40
1.15
210
0
220
0
230
1
100
AcDbArc
 50
180
 51
270
  0
LINE
  5
661
100
AcDbEntity
  8
0
  6
ByLayer
 62
     0
100
AcDbLine
 10
12.348
 20
12.436
 30
-7.5
 11
12.348
 21
22.536
 31
-7.5
  0
LINE
  5
662
100
AcDbEntity
  8
0
  6
DASHED2
 62
     1
100
AcDbLine
 10
12.348
 20
22.536
 30
-7.5
 11
12.348
 21
22.536
 31
10
  0
LINE
  5
663
100
AcDbEntity
  8
0
  6
DASHED2
 62
     1
100
AcDbLine
 10
12.348
 20
22.536
 30
10
 11
23.598
 21
22.536
 31
10
  0
LINE
  5
664
100
AcDbEntity
  8
0
  6
DASHED2
 62
     1
100
AcDbLine
 10
23.598
 20
22.536
 30
10
 11
23.598
 21
22.536
 31
-6.5
  0
LINE
  5
665
100
AcDbEntity
  8
0
  6
ByLayer
 62
     0
100
AcDbLine
 10
23.598
 20
22.536
 30
-6.5
 11
23.598
 21
22.536
 31
-11.25
  0
LINE
  5
666
100
AcDbEntity
  8
0
  6
ByLayer
 62
     0
100
AcDbLine
 10
23.598
 20
22.536
 30
-11.25
 11
23.598
 21
25.807
 31
-11.25
  0
ARC
  5
667
100
AcDbEntity
  8
0
100
AcDbCircle
 10
27.011
 20
40.516
 30
-11.25
 40
15.0998
210
0
220
0
230
1
100
AcDbArc
 50
256.937
 51
270
  0
LINE
  5
668
100
AcDbEntity
  8
0
  6
ByLayer
 62
     0
100
AcDbLine
 10
27.011
 20
25.416
 30
-11.25
 11
31.01
 21
25.416
 31
-11.25
  0
ARC
  5
669
100
AcDbEntity
  8
0
100
AcDbCircle
 10
54.021
 20
25.038
 30
-11.25
 40
23.0141
210
0
220
0
230
1
100
AcDbArc
 50
179.059
 51
186.241
  0
LINE
  5
670
100
AcDbEntity
  8
0
  6
ByLayer
 62
     0
100
AcDbLine
 10
31.144
 20
22.536
 30
-11.25
 11
23.598
 21
22.536
 31
-11.25
  0
LINE
  5
671
100
AcDbEntity
  8
0
  6
ByLayer
 62
     0
100
AcDbLine
 10
23.598
 20
22.536
 30
-11.25
 11
19.848
 21
22.536
 31
-11.25
  0
LINE
  5
672
100
AcDbEntity
  8
0
  6
ByLayer
 62
     0
100
AcDbLine
 10
19.848
 20
22.536
 30
-11.25
 11
19.848
 21
31.712
 31
-11.25
  0
ARC
  5
673
100
AcDbEntity
  8
0
100
AcDbCircle
 10
27.011
 20
40.516
 30
-11.25
 40
11.3498
210
0
220
0
230
1
100
AcDbArc
 50
230.868
 51
270
  0
LINE
  5
674
100
AcDbEntity
  8
0
  6
ByLayer
 62
     0
100
AcDbLine
 10
27.011
 20
29.166
 30
-11.25
 11
35.205
 21
29.166
 31
-11.25
  0
ARC
  5
675
100
AcDbEntity
  8
0
100
AcDbCircle
 10
54.022
 20
25.038
 30
-11.25
 40
19.2645
210
0
220
0
230
1
100
AcDbArc
 50
167.627
 51
198.937
  0
LINE
  5
676
100
AcDbEntity
  8
0
  6
ByLayer
 62
     0
100
AcDbLine
 10
35.8
 20
18.786
 30
-11.25
 11
19.848
 21
18.786
 31
-11.25
  0
LINE
  5
677
100
AcDbEntity
  8
0
  6
ByLayer
 62
     0
100
AcDbLine
 10
19.848
 20
18.786
 30
-11.25
 11
19.848
 21
22.536
 31
-11.25
  0
LINE
  5
678
100
AcDbEntity
  8
0
  6
ByLayer
 62
     0
100
AcDbLine
 10
19.848
 20
22.536
 30
-11.25
 11
16.098
 21
22.536
 31
-11.25
  0
LINE
  5
679
100
AcDbEntity
  8
0
  6
ByLayer
 62
     0
100
AcDbLine
 10
16.098
 20
22.536
 30
-11.25
 11
16.098
 21
59.651
 31
-11.25
  0
ARC
  5
680
100
AcDbEntity
  8
0
100
AcDbCircle
 10
18.498
 20
59.651
 30
-11.25
 40
2.4
210
0
220
0
230
1
100
AcDbArc
 50
90
 51
180
  0
LINE
  5
681
100
AcDbEntity
  8
0
  6
ByLayer
 62
     0
100
AcDbLine
 10
18.498
 20
62.051
 30
-11.25
 11
45.077
 21
62.051
 31
-11.25
  0
LINE
  5
682
100
AcDbEntity
  8
0
  6
ByLayer
 62
     0
100
AcDbLine
 10
45.077
 20
62.051
 30
-11.25
 11
45.077
 21
58.301
 31
-11.25
  0
LINE
  5
683
100
AcDbEntity
  8
0
  6
ByLayer
 62
     0
100
AcDbLine
 10
45.077
 20
58.301
 30
-11.25
 11
50.649
 21
58.301
 31
-11.25
  0
LINE
  5
684
100
AcDbEntity
  8
0
  6
ByLayer
 62
     0
100
AcDbLine
 10
50.649
 20
58.301
 30
-11.25
 11
50.649
 21
54.551
 31
-11.25
  0
LINE
  5
685
100
AcDbEntity
  8
0
  6
ByLayer
 62
     0
100
AcDbLine
 10
50.649
 20
54.551
 30
-11.25
 11
55.31
 21
54.551
 31
-11.25
  0
LINE
  5
686
100
AcDbEntity
  8
0
  6
ByLayer
 62
     0
100
AcDbLine
 10
55.31
 20
54.551
 30
-11.25
 11
55.31
 21
48.016
 31
-11.25
  0
ARC
  5
687
100
AcDbEntity
  8
0
100
AcDbCircle
 10
54.022
 20
25.038
 30
-11.25
 40
23.0141
210
0
220
0
230
1
100
AcDbArc
 50
86.7917
 51
97.7664
  0
LINE
  5
688
100
AcDbEntity
  8
0
  6
ByLayer
 62
     0
100
AcDbLine
 10
50.912
 20
47.841
 30
-11.25
 11
50.912
 21
51.745
 31
-11.25
  0
ARC
  5
689
100
AcDbEntity
  8
0
100
AcDbCircle
 10
35.812
 20
51.745
 30
-11.25
 40
15.1
210
0
220
0
230
1
100
AcDbArc
 50
360
 51
10.7094
  0
LINE
  5
690
100
AcDbEntity
  8
0
  6
ByLayer
 62
     0
100
AcDbLine
 10
50.649
 20
54.551
 30
-11.25
 11
50.649
 21
58.301
 31
-11.25
  0
LINE
  5
691
100
AcDbEntity
  8
0
  6
ByLayer
 62
     0
100
AcDbLine
 10
50.649
 20
58.301
 30
-11.25
 11
59.06
 21
58.301
 31
-11.25
  0
LINE
  5
692
100
AcDbEntity
  8
0
  6
ByLayer
 62
     0
100
AcDbLine
 10
59.06
 20
58.301
 30
-11.25
 11
59.06
 21
43.631
 31
-11.25
  0
ARC
  5
693
100
AcDbEntity
  8
0
100
AcDbCircle
 10
54.022
 20
25.038
 30
-11.25
 40
19.2635
210
0
220
0
230
1
100
AcDbArc
 50
74.8391
 51
110.861
  0
LINE
  5
694
100
AcDbEntity
  8
0
  6
ByLayer
 62
     0
100
AcDbLine
 10
47.162
 20
43.039
 30
-11.25
 11
47.162
 21
51.745
 31
-11.25
  0
LINE
  5
695
100
AcDbEntity
  8
0
  6
ByLayer
 62
     0
100
AcDbLine
 10
47.162
 20
51.745
 30
-11.25
 11
43.412
 21
51.745
 31
-11.25
  0
ARC
  5
696
100
AcDbEntity
  8
0
100
AcDbCircle
 10
35.812
 20
51.745
 30
-11.25
 40
7.6
210
0
220
0
230
1
100
AcDbArc
 50
360
 51
90
  0
LINE
  5
697
100
AcDbEntity
  8
0
  6
ByLayer
 62
     0
100
AcDbLine
 10
35.812
 20
59.345
 30
-11.25
 11
27.011
 21
59.345
 31
-11.25
  0
ARC
  5
698
100
AcDbEntity
  8
0
100
AcDbCircle
 10
27.011
 20
51.745
 30
-11.25
 40
7.6
210
0
220
0
230
1
100
AcDbArc
 50
90
 51
180
  0
LINE
  5
699
100
AcDbEntity
  8
0
  6
ByLayer
 62
     0
100
AcDbLine
 10
19.411
 20
51.745
 30
-11.25
 11
19.411
 21
40.516
 31
-11.25
  0
ARC
  5
700
100
AcDbEntity
  8
0
100
AcDbCircle
 10
27.011
 20
40.516
 30
-11.25
 40
7.6
210
0
220
0
230
1
100
AcDbArc
 50
180
 51
270
  0
LINE
  5
701
100
AcDbEntity
  8
0
  6
ByLayer
 62
     0
100
AcDbLine
 10
27.011
 20
32.916
 30
-11.25
 11
35.812
 21
32.916
 31
-11.25
  0
ARC
  5
702
100
AcDbEntity
  8
0
100
AcDbCircle
 10
35.812
 20
40.516
 30
-11.25
 40
7.6
210
0
220
0
230
1
100
AcDbArc
 50
270
 51
360
  0
LINE
  5
703
100
AcDbEntity
  8
0
  6
ByLayer
 62
     0
100
AcDbLine
 10
43.412
 20
40.516
 30
-11.25
 11
43.412
 21
51.745
 31
-11.25
  0
LINE
  5
704
100
AcDbEntity
  8
0
  6
ByLayer
 62
     0
100
AcDbLine
 10
43.412
 20
51.745
 30
-11.25
 11
39.662
 21
51.745
 31
-11.25
  0
ARC
  5
705
100
AcDbEntity
  8
0
100
AcDbCircle
 10
35.812
 20
51.745
 30
-11.25
 40
3.85
210
0
220
0
230
1
100
AcDbArc
 50
360
 51
90
  0
LINE
  5
706
100
AcDbEntity
  8
0
  6
ByLayer
 62
     0
100
AcDbLine
 10
35.812
 20
55.595
 30
-11.25
 11
27.011
 21
55.595
 31
-11.25
  0
ARC
  5
707
100
AcDbEntity
  8
0
100
AcDbCircle
 10
27.011
 20
51.745
 30
-11.25
 40
3.85
210
0
220
0
230
1
100
AcDbArc
 50
90
 51
180
  0
LINE
  5
708
100
AcDbEntity
  8
0
  6
ByLayer
 62
     0
100
AcDbLine
 10
23.161
 20
51.745
 30
-11.25
 11
23.161
 21
40.516
 31
-11.25
  0
ARC
  5
709
100
AcDbEntity
  8
0
100
AcDbCircle
 10
27.011
 20
40.516
 30
-11.25
 40
3.85
210
0
220
0
230
1
100
AcDbArc
 50
180
 51
270
  0
LINE
  5
710
100
AcDbEntity
  8
0
  6
ByLayer
 62
     0
100
AcDbLine
 10
27.011
 20
36.666
 30
-11.25
 11
35.812
 21
36.666
 31
-11.25
  0
ARC
  5
711
100
AcDbEntity
  8
0
100
AcDbCircle
 10
35.812
 20
40.516
 30
-11.25
 40
3.85
210
0
220
0
230
1
100
AcDbArc
 50
270
 51
360
  0
LINE
  5
712
100
AcDbEntity
  8
0
  6
ByLayer
 62
     0
100
AcDbLine
 10
39.662
 20
40.516
 30
-11.25
 11
39.662
 21
51.745
 31
-11.25
  0
LINE
  5
713
100
AcDbEntity
  8
0
  6
ByLayer
 62
     0
100
AcDbLine
 10
39.662
 20
51.745
 30
-11.25
 11
47.162
 21
51.745
 31
-11.25
  0
ARC
  5
714
100
AcDbEntity
  8
0
100
AcDbCircle
 10
35.812
 20
51.745
 30
-11.25
 40
11.35
210
0
220
0
230
1
100
AcDbArc
 50
360
 51
35.2836
  0
LINE
  5
715
100
AcDbEntity
  8
0
  6
ByLayer
 62
     0
100
AcDbLine
 10
45.077
 20
58.301
 30
-11.25
 11
45.077
 21
62.051
 31
-11.25
  0
LINE
  5
716
100
AcDbEntity
  8
0
  6
ByLayer
 62
     0
100
AcDbLine
 10
45.077
 20
62.051
 30
-11.25
 11
62.81
 21
62.051
 31
-11.25
  0
LINE
  5
717
100
AcDbEntity
  8
0
  6
ByLayer
 62
     0
100
AcDbLine
 10
62.81
 20
62.051
 30
-11.25
 11
62.81
 21
37.823
 31
-11.25
  0
LINE
  5
718
100
AcDbEntity
  8
0
  6
ByLayer
 62
     0
100
AcDbLine
 10
62.81
 20
37.823
 30
-11.25
 11
60.685
 21
34.732
 31
-11.25
  0
ARC
  5
719
100
AcDbEntity
  8
0
100
AcDbCircle
 10
54.021
 20
25.038
 30
-11.25
 40
11.7636
210
0
220
0
230
1
100
AcDbArc
 50
55.494
 51
0
  0
ARC
  5
720
100
AcDbEntity
  8
0
100
AcDbCircle
 10
54.021
 20
25.038
 30
-11.25
 40
11.764
210
0
220
0
230
1
100
AcDbArc
 50
360
 51
55.494
  0
LINE
  5
721
100
AcDbEntity
  8
0
  6
ByLayer
 62
     0
100
AcDbLine
 10
60.685
 20
34.732
 30
-11.25
 11
62.81
 21
37.823
 31
-11.25
  0
ARC
  5
722
100
AcDbEntity
  8
0
100
AcDbCircle
 10
54.022
 20
25.038
 30
-11.25
 40
15.514
210
0
220
0
230
1
100
AcDbArc
 50
55.4966
 51
220.142
  0
LINE
  5
723
100
AcDbEntity
  8
0
  6
ByLayer
 62
     0
100
AcDbLine
 10
42.162
 20
15.036
 30
-11.25
 11
16.098
 21
15.036
 31
-11.25
  0
LINE
  5
724
100
AcDbEntity
  8
0
  6
ByLayer
 62
     0
100
AcDbLine
 10
16.098
 20
15.036
 30
-11.25
 11
16.098
 21
22.536
 31
-11.25
  0
LINE
  5
725
100
AcDbEntity
  8
0
  6
ByLayer
 62
     0
100
AcDbLine
 10
16.098
 20
22.536
 30
-11.25
 11
12.348
 21
22.536
 31
-11.25
  0
LINE
  5
726
100
AcDbEntity
  8
0
  6
ByLayer
 62
     0
100
AcDbLine
 10
12.348
 20
22.536
 30
-11.25
 11
12.348
 21
59.651
 31
-11.25
  0
ARC
  5
727
100
AcDbEntity
  8
0
100
AcDbCircle
 10
18.498
 20
59.651
 30
-11.25
 40
6.15
210
0
220
0
230
1
100
AcDbArc
 50
90
 51
180
  0
LINE
  5
728
100
AcDbEntity
  8
0
  6
ByLayer
 62
     0
100
AcDbLine
 10
18.498
 20
65.801
 30
-11.25
 11
65.41
 21
65.801
 31
-11.25
  0
ARC
  5
729
100
AcDbEntity
  8
0
100
AcDbCircle
 10
65.41
 20
64.651
 30
-11.25
 40
1.15
210
0
220
0
230
1
100
AcDbArc
 50
360
 51
90
  0
LINE
  5
730
100
AcDbEntity
  8
0
  6
ByLayer
 62
     0
100
AcDbLine
 10
66.56
 20
64.651
 30
-11.25
 11
66.56
 21
17.436
 31
-11.25
  0
ARC
  5
731
100
AcDbEntity
  8
0
100
AcDbCircle
 10
60.41
 20
17.436
 30
-11.25
 40
6.15
210
0
220
0
230
1
100
AcDbArc
 50
270
 51
0
  0
LINE
  5
732
100
AcDbEntity
  8
0
  6
ByLayer
 62
     0
100
AcDbLine
 10
60.41
 20
11.286
 30
-11.25
 11
13.498
 21
11.286
 31
-11.25
  0
ARC
  5
733
100
AcDbEntity
  8
0
100
AcDbCircle
 10
13.498
 20
12.436
 30
-11.25
 40
1.15
210
0
220
0
230
1
100
AcDbArc
 50
180
 51
270
  0
LINE
  5
734
100
AcDbEntity
  8
0
  6
ByLayer
 62
     0
100
AcDbLine
 10
12.348
 20
12.436
 30
-11.25
 11
12.348
 21
22.536
 31
-11.25
  0
LINE
  5
735
100
AcDbEntity
  8
0
  6
DASHED2
 62
     1
100
AcDbLine
 10
12.348
 20
22.536
 30
-11.25
 11
12.348
 21
22.536
 31
10
  0
LINE
  5
736
100
AcDbEntity
  8
0
  6
DASHED2
 62
     1
100
AcDbLine
 10
12.348
 20
22.536
 30
10
 11
23.598
 21
22.536
 31
10
  0
LINE
  5
737
100
AcDbEntity
  8
0
  6
DASHED2
 62
     1
100
AcDbLine
 10
23.598
 20
22.536
 30
10
 11
23.598
 21
22.536
 31
-10.25
  0
LINE
  5
738
100
AcDbEntity
  8
0
  6
ByLayer
 62
     0
100
AcDbLine
 10
23.598
 20
22.536
 30
-10.25
 11
23.598
 21
22.536
 31
-12.5
  0
LINE
  5
739
100
AcDbEntity
  8
0
  6
ByLayer
 62
     0
100
AcDbLine
 10
23.598
 20
22.536
 30
-12.5
 11
23.598
 21
25.807
 31
-12.5
  0
ARC
  5
740
100
AcDbEntity
  8
0
100
AcDbCircle
 10
27.011
 20
40.516
 30
-12.5
 40
15.0998
210
0
220
0
230
1
100
AcDbArc
 50
256.937
 51
270
  0
LINE
  5
741
100
AcDbEntity
  8
0
  6
ByLayer
 62
     0
100
AcDbLine
 10
27.011
 20
25.416
 30
-12.5
 11
31.01
 21
25.416
 31
-12.5
  0
ARC
  5
742
100
AcDbEntity
  8
0
100
AcDbCircle
 10
54.021
 20
25.038
 30
-12.5
 40
23.0141
210
0
220
0
230
1
100
AcDbArc
 50
179.059
 51
186.241
  0
LINE
  5
743
100
AcDbEntity
  8
0
  6
ByLayer
 62
     0
100
AcDbLine
 10
31.144
 20
22.536
 30
-12.5
 11
23.598
 21
22.536
 31
-12.5
  0
LINE
  5
744
100
AcDbEntity
  8
0
  6
ByLayer
 62
     0
100
AcDbLine
 10
23.598
 20
22.536
 30
-12.5
 11
19.848
 21
22.536
 31
-12.5
  0
LINE
  5
745
100
AcDbEntity
  8
0
  6
ByLayer
 62
     0
100
AcDbLine
 10
19.848
 20
22.536
 30
-12.5
 11
19.848
 21
31.712
 31
-12.5
  0
ARC
  5
746
100
AcDbEntity
  8
0
100
AcDbCircle
 10
27.011
 20
40.516
 30
-12.5
 40
11.3498
210
0
220
0
230
1
100
AcDbArc
 50
230.868
 51
270
  0
LINE
  5
747
100
AcDbEntity
  8
0
  6
ByLayer
 62
     0
100
AcDbLine
 10
27.011
 20
29.166
 30
-12.5
 11
35.205
 21
29.166
 31
-12.5
  0
ARC
  5
748
100
AcDbEntity
  8
0
100
AcDbCircle
 10
54.022
 20
25.038
 30
-12.5
 40
19.2645
210
0
220
0
230
1
100
AcDbArc
 50
167.627
 51
198.937
  0
LINE
  5
749
100
AcDbEntity
  8
0
  6
ByLayer
 62
     0
100
AcDbLine
 10
35.8
 20
18.786
 30
-12.5
 11
19.848
 21
18.786
 31
-12.5
  0
LINE
  5
750
100
AcDbEntity
  8
0
  6
ByLayer
 62
     0
100
AcDbLine
 10
19.848
 20
18.786
 30
-12.5
 11
19.848
 21
22.536
 31
-12.5
  0
LINE
  5
751
100
AcDbEntity
  8
0
  6
ByLayer
 62
     0
100
AcDbLine
 10
19.848
 20
22.536
 30
-12.5
 11
16.098
 21
22.536
 31
-12.5
  0
LINE
  5
752
100
AcDbEntity
  8
0
  6
ByLayer
 62
     0
100
AcDbLine
 10
16.098
 20
22.536
 30
-12.5
 11
16.098
 21
59.651
 31
-12.5
  0
ARC
  5
753
100
AcDbEntity
  8
0
100
AcDbCircle
 10
18.498
 20
59.651
 30
-12.5
 40
2.4
210
0
220
0
230
1
100
AcDbArc
 50
90
 51
180
  0
LINE
  5
754
100
AcDbEntity
  8
0
  6
ByLayer
 62
     0
100
AcDbLine
 10
18.498
 20
62.051
 30
-12.5
 11
45.077
 21
62.051
 31
-12.5
  0
LINE
  5
755
100
AcDbEntity
  8
0
  6
ByLayer
 62
     0
100
AcDbLine
 10
45.077
 20
62.051
 30
-12.5
 11
45.077
 21
58.301
 31
-12.5
  0
LINE
  5
756
100
AcDbEntity
  8
0
  6
ByLayer
 62
     0
100
AcDbLine
 10
45.077
 20
58.301
 30
-12.5
 11
50.649
 21
58.301
 31
-12.5
  0
LINE
  5
757
100
AcDbEntity
  8
0
  6
ByLayer
 62
     0
100
AcDbLine
 10
50.649
 20
58.301
 30
-12.5
 11
50.649
 21
54.551
 31
-12.5
  0
LINE
  5
758
100
AcDbEntity
  8
0
  6
ByLayer
 62
     0
100
AcDbLine
 10
50.649
 20
54.551
 30
-12.5
 11
55.31
 21
54.551
 31
-12.5
  0
LINE
  5
759
100
AcDbEntity
  8
0
  6
ByLayer
 62
     0
100
AcDbLine
 10
55.31
 20
54.551
 30
-12.5
 11
55.31
 21
48.016
 31
-12.5
  0
ARC
  5
760
100
AcDbEntity
  8
0
100
AcDbCircle
 10
54.022
 20
25.038
 30
-12.5
 40
23.0141
210
0
220
0
230
1
100
AcDbArc
 50
86.7917
 51
97.7664
  0
LINE
  5
761
100
AcDbEntity
  8
0
  6
ByLayer
 62
     0
100
AcDbLine
 10
50.912
 20
47.841
 30
-12.5
 11
50.912
 21
51.745
 31
-12.5
  0
ARC
  5
762
100
AcDbEntity
  8
0
100
AcDbCircle
 10
35.812
 20
51.745
 30
-12.5
 40
15.1
210
0
220
0
230
1
100
AcDbArc
 50
360
 51
10.7094
  0
LINE
  5
763
100
AcDbEntity
  8
0
  6
ByLayer
 62
     0
100
AcDbLine
 10
50.649
 20
54.551
 30
-12.5
 11
50.649
 21
58.301
 31
-12.5
  0
LINE
  5
764
100
AcDbEntity
  8
0
  6
ByLayer
 62
     0
100
AcDbLine
 10
50.649
 20
58.301
 30
-12.5
 11
59.06
 21
58.301
 31
-12.5
  0
LINE
  5
765
100
AcDbEntity
  8
0
  6
ByLayer
 62
     0
100
AcDbLine
 10
59.06
 20
58.301
 30
-12.5
 11
59.06
 21
43.631
 31
-12.5
  0
ARC
  5
766
100
AcDbEntity
  8
0
100
AcDbCircle
 10
54.022
 20
25.038
 30
-12.5
 40
19.2635
210
0
220
0
230
1
100
AcDbArc
 50
74.8391
 51
110.861
  0
LINE
  5
767
100
AcDbEntity
  8
0
  6
ByLayer
 62
     0
100
AcDbLine
 10
47.162
 20
43.039
 30
-12.5
 11
47.162
 21
51.745
 31
-12.5
  0
LINE
  5
768
100
AcDbEntity
  8
0
  6
ByLayer
 62
     0
100
AcDbLine
 10
47.162
 20
51.745
 30
-12.5
 11
43.412
 21
51.745
 31
-12.5
  0
ARC
  5
769
100
AcDbEntity
  8
0
100
AcDbCircle
 10
35.812
 20
51.745
 30
-12.5
 40
7.6
210
0
220
0
230
1
100
AcDbArc
 50
360
 51
90
  0
LINE
  5
770
100
AcDbEntity
  8
0
  6
ByLayer
 62
     0
100
AcDbLine
 10
35.812
 20
59.345
 30
-12.5
 11
27.011
 21
59.345
 31
-12.5
  0
ARC
  5
771
100
AcDbEntity
  8
0
100
AcDbCircle
 10
27.011
 20
51.745
 30
-12.5
 40
7.6
210
0
220
0
230
1
100
AcDbArc
 50
90
 51
180
  0
LINE
  5
772
100
AcDbEntity
  8
0
  6
ByLayer
 62
     0
100
AcDbLine
 10
19.411
 20
51.745
 30
-12.5
 11
19.411
 21
40.516
 31
-12.5
  0
ARC
  5
773
100
AcDbEntity
  8
0
100
AcDbCircle
 10
27.011
 20
40.516
 30
-12.5
 40
7.6
210
0
220
0
230
1
100
AcDbArc
 50
180
 51
270
  0
LINE
  5
774
100
AcDbEntity
  8
0
  6
ByLayer
 62
     0
100
AcDbLine
 10
27.011
 20
32.916
 30
-12.5
 11
35.812
 21
32.916
 31
-12.5
  0
ARC
  5
775
100
AcDbEntity
  8
0
100
AcDbCircle
 10
35.812
 20
40.516
 30
-12.5
 40
7.6
210
0
220
0
230
1
100
AcDbArc
 50
270
 51
360
  0
LINE
  5
776
100
AcDbEntity
  8
0
  6
ByLayer
 62
     0
100
AcDbLine
 10
43.412
 20
40.516
 30
-12.5
 11
43.412
 21
51.745
 31
-12.5
  0
LINE
  5
777
100
AcDbEntity
  8
0
  6
ByLayer
 62
     0
100
AcDbLine
 10
43.412
 20
51.745
 30
-12.5
 11
39.662
 21
51.745
 31
-12.5
  0
ARC
  5
778
100
AcDbEntity
  8
0
100
AcDbCircle
 10
35.812
 20
51.745
 30
-12.5
 40
3.85
210
0
220
0
230
1
100
AcDbArc
 50
360
 51
90
  0
LINE
  5
779
100
AcDbEntity
  8
0
  6
ByLayer
 62
     0
100
AcDbLine
 10
35.812
 20
55.595
 30
-12.5
 11
27.011
 21
55.595
 31
-12.5
  0
ARC
  5
780
100
AcDbEntity
  8
0
100
AcDbCircle
 10
27.011
 20
51.745
 30
-12.5
 40
3.85
210
0
220
0
230
1
100
AcDbArc
 50
90
 51
180
  0
LINE
  5
781
100
AcDbEntity
  8
0
  6
ByLayer
 62
     0
100
AcDbLine
 10
23.161
 20
51.745
 30
-12.5
 11
23.161
 21
40.516
 31
-12.5
  0
ARC
  5
782
100
AcDbEntity
  8
0
100
AcDbCircle
 10
27.011
 20
40.516
 30
-12.5
 40
3.85
210
0
220
0
230
1
100
AcDbArc
 50
180
 51
270
  0
LINE
  5
783
100
AcDbEntity
  8
0
  6
ByLayer
 62
     0
100
AcDbLine
 10
27.011
 20
36.666
 30
-12.5
 11
35.812
 21
36.666
 31
-12.5
  0
ARC
  5
784
100
AcDbEntity
  8
0
100
AcDbCircle
 10
35.812
 20
40.516
 30
-12.5
 40
3.85
210
0
220
0
230
1
100
AcDbArc
 50
270
 51
360
  0
LINE
  5
785
100
AcDbEntity
  8
0
  6
ByLayer
 62
     0
100
AcDbLine
 10
39.662
 20
40.516
 30
-12.5
 11
39.662
 21
51.745
 31
-12.5
  0
LINE
  5
786
100
AcDbEntity
  8
0
  6
ByLayer
 62
     0
100
AcDbLine
 10
39.662
 20
51.745
 30
-12.5
 11
47.162
 21
51.745
 31
-12.5
  0
ARC
  5
787
100
AcDbEntity
  8
0
100
AcDbCircle
 10
35.812
 20
51.745
 30
-12.5
 40
11.35
210
0
220
0
230
1
100
AcDbArc
 50
360
 51
35.2836
  0
LINE
  5
788
100
AcDbEntity
  8
0
  6
ByLayer
 62
     0
100
AcDbLine
 10
45.077
 20
58.301
 30
-12.5
 11
45.077
 21
62.051
 31
-12.5
  0
LINE
  5
789
100
AcDbEntity
  8
0
  6
ByLayer
 62
     0
100
AcDbLine
 10
45.077
 20
62.051
 30
-12.5
 11
62.81
 21
62.051
 31
-12.5
  0
LINE
  5
790
100
AcDbEntity
  8
0
  6
ByLayer
 62
     0
100
AcDbLine
 10
62.81
 20
62.051
 30
-12.5
 11
62.81
 21
37.823
 31
-12.5
  0
LINE
  5
791
100
AcDbEntity
  8
0
  6
ByLayer
 62
     0
100
AcDbLine
 10
62.81
 20
37.823
 30
-12.5
 11
60.685
 21
34.732
 31
-12.5
  0
ARC
  5
792
100
AcDbEntity
  8
0
100
AcDbCircle
 10
54.021
 20
25.038
 30
-12.5
 40
11.7636
210
0
220
0
230
1
100
AcDbArc
 50
55.494
 51
0
  0
ARC
  5
793
100
AcDbEntity
  8
0
100
AcDbCircle
 10
54.021
 20
25.038
 30
-12.5
 40
11.764
210
0
220
0
230
1
100
AcDbArc
 50
360
 51
55.494
  0
LINE
  5
794
100
AcDbEntity
  8
0
  6
ByLayer
 62
     0
100
AcDbLine
 10
60.685
 20
34.732
 30
-12.5
 11
62.81
 21
37.823
 31
-12.5
  0
ARC
  5
795
100
AcDbEntity
  8
0
100
AcDbCircle
 10
54.022
 20
25.038
 30
-12.5
 40
15.514
210
0
220
0
230
1
100
AcDbArc
 50
55.4966
 51
220.142
  0
LINE
  5
796
100
AcDbEntity
  8
0
  6
ByLayer
 62
     0
100
AcDbLine
 10
42.162
 20
15.036
 30
-12.5
 11
16.098
 21
15.036
 31
-12.5
  0
LINE
  5
797
100
AcDbEntity
  8
0
  6
ByLayer
 62
     0
100
AcDbLine
 10
16.098
 20
15.036
 30
-12.5
 11
16.098
 21
22.536
 31
-12.5
  0
LINE
  5
798
100
AcDbEntity
  8
0
  6
ByLayer
 62
     0
100
AcDbLine
 10
16.098
 20
22.536
 30
-12.5
 11
12.348
 21
22.536
 31
-12.5
  0
LINE
  5
799
100
AcDbEntity
  8
0
  6
ByLayer
 62
     0
100
AcDbLine
 10
12.348
 20
22.536
 30
-12.5
 11
12.348
 21
59.651
 31
-12.5
  0
ARC
  5
800
100
AcDbEntity
  8
0
100
AcDbCircle
 10
18.498
 20
59.651
 30
-12.5
 40
6.15
210
0
220
0
230
1
100
AcDbArc
 50
90
 51
180
  0
LINE
  5
801
100
AcDbEntity
  8
0
  6
ByLayer
 62
     0
100
AcDbLine
 10
18.498
 20
65.801
 30
-12.5
 11
65.41
 21
65.801
 31
-12.5
  0
ARC
  5
802
100
AcDbEntity
  8
0
100
AcDbCircle
 10
65.41
 20
64.651
 30
-12.5
 40
1.15
210
0
220
0
230
1
100
AcDbArc
 50
360
 51
90
  0
LINE
  5
803
100
AcDbEntity
  8
0
  6
ByLayer
 62
     0
100
AcDbLine
 10
66.56
 20
64.651
 30
-12.5
 11
66.56
 21
17.436
 31
-12.5
  0
ARC
  5
804
100
AcDbEntity
  8
0
100
AcDbCircle
 10
60.41
 20
17.436
 30
-12.5
 40
6.15
210
0
220
0
230
1
100
AcDbArc
 50
270
 51
0
  0
LINE
  5
805
100
AcDbEntity
  8
0
  6
ByLayer
 62
     0
100
AcDbLine
 10
60.41
 20
11.286
 30
-12.5
 11
13.498
 21
11.286
 31
-12.5
  0
ARC
  5
806
100
AcDbEntity
  8
0
100
AcDbCircle
 10
13.498
 20
12.436
 30
-12.5
 40
1.15
210
0
220
0
230
1
100
AcDbArc
 50
180
 51
270
  0
LINE
  5
807
100
AcDbEntity
  8
0
  6
ByLayer
 62
     0
100
AcDbLine
 10
12.348
 20
12.436
 30
-12.5
 11
12.348
 21
22.536
 31
-12.5
  0
LINE
  5
808
100
AcDbEntity
  8
0
  6
DASHED2
 62
     1
100
AcDbLine
 10
12.348
 20
22.536
 30
-12.5
 11
12.348
 21
22.536
 31
10
  0
LINE
  5
809
100
AcDbEntity
  8
0
  6
DASHED2
 62
     1
100
AcDbLine
 10
12.348
 20
22.536
 30
10
 11
10.998
 21
12.436
 31
10
  0
LINE
  5
810
100
AcDbEntity
  8
0
  6
DASHED2
 62
     1
100
AcDbLine
 10
10.998
 20
12.436
 30
10
 11
10.998
 21
12.436
 31
1
  0
LINE
  5
811
100
AcDbEntity
  8
0
  6
ByLayer
 62
     0
100
AcDbLine
 10
10.998
 20
12.436
 30
1
 11
10.998
 21
12.436
 31
-5
  0
LINE
  5
812
100
AcDbEntity
  8
0
  6
ByLayer
 62
     0
100
AcDbLine
 10
10.998
 20
12.436
 30
-5
 11
10.998
 21
59.651
 31
-5
  0
ARC
  5
813
100
AcDbEntity
  8
0
100
AcDbCircle
 10
18.498
 20
59.651
 30
-5
 40
7.5
210
0
220
0
230
1
100
AcDbArc
 50
90
 51
180
  0
LINE
  5
814
100
AcDbEntity
  8
0
  6
ByLayer
 62
     0
100
AcDbLine
 10
18.498
 20
67.151
 30
-5
 11
65.41
 21
67.151
 31
-5
  0
ARC
  5
815
100
AcDbEntity
  8
0
100
AcDbCircle
 10
65.41
 20
64.651
 30
-5
 40
2.5
210
0
220
0
230
1
100
AcDbArc
 50
360
 51
90
  0
LINE
  5
816
100
AcDbEntity
  8
0
  6
ByLayer
 62
     0
100
AcDbLine
 10
67.91
 20
64.651
 30
-5
 11
67.91
 21
17.436
 31
-5
  0
ARC
  5
817
100
AcDbEntity
  8
0
100
AcDbCircle
 10
60.41
 20
17.436
 30
-5
 40
7.5
210
0
220
0
230
1
100
AcDbArc
 50
270
 51
360
  0
LINE
  5
818
100
AcDbEntity
  8
0
  6
ByLayer
 62
     0
100
AcDbLine
 10
60.41
 20
9.936
 30
-5
 11
13.498
 21
9.936
 31
-5
  0
ARC
  5
819
100
AcDbEntity
  8
0
100
AcDbCircle
 10
13.498
 20
12.436
 30
-5
 40
2.5
210
0
220
0
230
1
100
AcDbArc
 50
180
 51
270
  0
LINE
  5
820
100
AcDbEntity
  8
0
  6
DASHED2
 62
     1
100
AcDbLine
 10
10.998
 20
12.436
 30
-5
 11
10.998
 21
12.436
 31
10
  0
LINE
  5
821
100
AcDbEntity
  8
0
  6
DASHED2
 62
     1
100
AcDbLine
 10
10.998
 20
12.436
 30
10
 11
27.011
 21
38.016
 31
10
  0
LINE
  5
822
100
AcDbEntity
  8
0
  6
DASHED2
 62
     1
100
AcDbLine
 10
27.011
 20
38.016
 30
10
 11
27.011
 21
38.016
 31
1
  0
LINE
  5
823
100
AcDbEntity
  8
0
  6
ByLayer
 62
     0
100
AcDbLine
 10
27.011
 20
38.016
 30
1
 11
27.011
 21
38.016
 31
-5
  0
LINE
  5
824
100
AcDbEntity
  8
0
  6
ByLayer
 62
     0
100
AcDbLine
 10
27.011
 20
38.016
 30
-5
 11
35.812
 21
38.016
 31
-5
  0
ARC
  5
825
100
AcDbEntity
  8
0
100
AcDbCircle
 10
35.812
 20
40.516
 30
-5
 40
2.5
210
0
220
0
230
1
100
AcDbArc
 50
270
 51
360
  0
LINE
  5
826
100
AcDbEntity
  8
0
  6
ByLayer
 62
     0
100
AcDbLine
 10
38.312
 20
40.516
 30
-5
 11
38.312
 21
51.745
 31
-5
  0
ARC
  5
827
100
AcDbEntity
  8
0
100
AcDbCircle
 10
35.812
 20
51.745
 30
-5
 40
2.5
210
0
220
0
230
1
100
AcDbArc
 50
360
 51
90
  0
LINE
  5
828
100
AcDbEntity
  8
0
  6
ByLayer
 62
     0
100
AcDbLine
 10
35.812
 20
54.245
 30
-5
 11
27.011
 21
54.245
 31
-5
  0
ARC
  5
829
100
AcDbEntity
  8
0
100
AcDbCircle
 10
27.011
 20
51.745
 30
-5
 40
2.5
210
0
220
0
230
1
100
AcDbArc
 50
90
 51
180
  0
LINE
  5
830
100
AcDbEntity
  8
0
  6
ByLayer
 62
     0
100
AcDbLine
 10
24.511
 20
51.745
 30
-5
 11
24.511
 21
40.516
 31
-5
  0
ARC
  5
831
100
AcDbEntity
  8
0
100
AcDbCircle
 10
27.011
 20
40.516
 30
-5
 40
2.5
210
0
220
0
230
1
100
AcDbArc
 50
180
 51
270
  0
LINE
  5
832
100
AcDbEntity
  8
0
  6
DASHED2
 62
     1
100
AcDbLine
 10
27.011
 20
38.016
 30
-5
 11
27.011
 21
38.016
 31
10
  0
LINE
  5
833
100
AcDbEntity
  8
0
  6
DASHED2
 62
     1
100
AcDbLine
 10
27.011
 20
38.016
 30
10
 11
64.435
 21
25.038
 31
10
  0
LINE
  5
834
100
AcDbEntity
  8
0
  6
DASHED2
 62
     1
100
AcDbLine
 10
64.435
 20
25.038
 30
10
 11
10.998
 21
12.436
 31
10
  0
LINE
  5
835
100
AcDbEntity
  8
0
  6
DASHED2
 62
     1
100
AcDbLine
 10
10.998
 20
12.436
 30
10
 11
10.998
 21
12.436
 31
-4
  0
LINE
  5
836
100
AcDbEntity
  8
0
  6
ByLayer
 62
     0
100
AcDbLine
 10
10.998
 20
12.436
 30
-4
 11
10.998
 21
12.436
 31
-10
  0
LINE
  5
837
100
AcDbEntity
  8
0
  6
ByLayer
 62
     0
100
AcDbLine
 10
10.998
 20
12.436
 30
-10
 11
10.998
 21
59.651
 31
-10
  0
ARC
  5
838
100
AcDbEntity
  8
0
100
AcDbCircle
 10
18.498
 20
59.651
 30
-10
 40
7.5
210
0
220
0
230
1
100
AcDbArc
 50
90
 51
180
  0
LINE
  5
839
100
AcDbEntity
  8
0
  6
ByLayer
 62
     0
100
AcDbLine
 10
18.498
 20
67.151
 30
-10
 11
65.41
 21
67.151
 31
-10
  0
ARC
  5
840
100
AcDbEntity
  8
0
100
AcDbCircle
 10
65.41
 20
64.651
 30
-10
 40
2.5
210
0
220
0
230
1
100
AcDbArc
 50
360
 51
90
  0
LINE
  5
841
100
AcDbEntity
  8
0
  6
ByLayer
 62
     0
100
AcDbLine
 10
67.91
 20
64.651
 30
-10
 11
67.91
 21
17.436
 31
-10
  0
ARC
  5
842
100
AcDbEntity
  8
0
100
AcDbCircle
 10
60.41
 20
17.436
 30
-10
 40
7.5
210
0
220
0
230
1
100
AcDbArc
 50
270
 51
360
  0
LINE
  5
843
100
AcDbEntity
  8
0
  6
ByLayer
 62
     0
100
AcDbLine
 10
60.41
 20
9.936
 30
-10
 11
13.498
 21
9.936
 31
-10
  0
ARC
  5
844
100
AcDbEntity
  8
0
100
AcDbCircle
 10
13.498
 20
12.436
 30
-10
 40
2.5
210
0
220
0
230
1
100
AcDbArc
 50
180
 51
270
  0
LINE
  5
845
100
AcDbEntity
  8
0
  6
DASHED2
 62
     1
100
AcDbLine
 10
10.998
 20
12.436
 30
-10
 11
10.998
 21
12.436
 31
10
  0
LINE
  5
846
100
AcDbEntity
  8
0
  6
DASHED2
 62
     1
100
AcDbLine
 10
10.998
 20
12.436
 30
10
 11
27.011
 21
38.016
 31
10
  0
LINE
  5
847
100
AcDbEntity
  8
0
  6
DASHED2
 62
     1
100
AcDbLine
 10
27.011
 20
38.016
 30
10
 11
27.011
 21
38.016
 31
-4
  0
LINE
  5
848
100
AcDbEntity
  8
0
  6
ByLayer
 62
     0
100
AcDbLine
 10
27.011
 20
38.016
 30
-4
 11
27.011
 21
38.016
 31
-10
  0
LINE
  5
849
100
AcDbEntity
  8
0
  6
ByLayer
 62
     0
100
AcDbLine
 10
27.011
 20
38.016
 30
-10
 11
35.812
 21
38.016
 31
-10
  0
ARC
  5
850
100
AcDbEntity
  8
0
100
AcDbCircle
 10
35.812
 20
40.516
 30
-10
 40
2.5
210
0
220
0
230
1
100
AcDbArc
 50
270
 51
360
  0
LINE
  5
851
100
AcDbEntity
  8
0
  6
ByLayer
 62
     0
100
AcDbLine
 10
38.312
 20
40.516
 30
-10
 11
38.312
 21
51.745
 31
-10
  0
ARC
  5
852
100
AcDbEntity
  8
0
100
AcDbCircle
 10
35.812
 20
51.745
 30
-10
 40
2.5
210
0
220
0
230
1
100
AcDbArc
 50
360
 51
90
  0
LINE
  5
853
100
AcDbEntity
  8
0
  6
ByLayer
 62
     0
100
AcDbLine
 10
35.812
 20
54.245
 30
-10
 11
27.011
 21
54.245
 31
-10
  0
ARC
  5
854
100
AcDbEntity
  8
0
100
AcDbCircle
 10
27.011
 20
51.745
 30
-10
 40
2.5
210
0
220
0
230
1
100
AcDbArc
 50
90
 51
180
  0
LINE
  5
855
100
AcDbEntity
  8
0
  6
ByLayer
 62
     0
100
AcDbLine
 10
24.511
 20
51.745
 30
-10
 11
24.511
 21
40.516
 31
-10
  0
ARC
  5
856
100
AcDbEntity
  8
0
100
AcDbCircle
 10
27.011
 20
40.516
 30
-10
 40
2.5
210
0
220
0
230
1
100
AcDbArc
 50
180
 51
270
  0
LINE
  5
857
100
AcDbEntity
  8
0
  6
DASHED2
 62
     1
100
AcDbLine
 10
27.011
 20
38.016
 30
-10
 11
27.011
 21
38.016
 31
10
  0
LINE
  5
858
100
AcDbEntity
  8
0
  6
DASHED2
 62
     1
100
AcDbLine
 10
27.011
 20
38.016
 30
10
 11
64.435
 21
25.038
 31
10
  0
LINE
  5
859
100
AcDbEntity
  8
0
  6
DASHED2
 62
     1
100
AcDbLine
 10
64.435
 20
25.038
 30
10
 11
10.998
 21
12.436
 31
10
  0
LINE
  5
860
100
AcDbEntity
  8
0
  6
DASHED2
 62
     1
100
AcDbLine
 10
10.998
 20
12.436
 30
10
 11
10.998
 21
12.436
 31
-9
  0
LINE
  5
861
100
AcDbEntity
  8
0
  6
ByLayer
 62
     0
100
AcDbLine
 10
10.998
 20
12.436
 30
-9
 11
10.998
 21
12.436
 31
-12.5
  0
LINE
  5
862
100
AcDbEntity
  8
0
  6
ByLayer
 62
     0
100
AcDbLine
 10
10.998
 20
12.436
 30
-12.5
 11
10.998
 21
59.651
 31
-12.5
  0
ARC
  5
863
100
AcDbEntity
  8
0
100
AcDbCircle
 10
18.498
 20
59.651
 30
-12.5
 40
7.5
210
0
220
0
230
1
100
AcDbArc
 50
90
 51
180
  0
LINE
  5
864
100
AcDbEntity
  8
0
  6
ByLayer
 62
     0
100
AcDbLine
 10
18.498
 20
67.151
 30
-12.5
 11
65.41
 21
67.151
 31
-12.5
  0
ARC
  5
865
100
AcDbEntity
  8
0
100
AcDbCircle
 10
65.41
 20
64.651
 30
-12.5
 40
2.5
210
0
220
0
230
1
100
AcDbArc
 50
360
 51
90
  0
LINE
  5
866
100
AcDbEntity
  8
0
  6
ByLayer
 62
     0
100
AcDbLine
 10
67.91
 20
64.651
 30
-12.5
 11
67.91
 21
17.436
 31
-12.5
  0
ARC
  5
867
100
AcDbEntity
  8
0
100
AcDbCircle
 10
60.41
 20
17.436
 30
-12.5
 40
7.5
210
0
220
0
230
1
100
AcDbArc
 50
270
 51
360
  0
LINE
  5
868
100
AcDbEntity
  8
0
  6
ByLayer
 62
     0
100
AcDbLine
 10
60.41
 20
9.936
 30
-12.5
 11
13.498
 21
9.936
 31
-12.5
  0
ARC
  5
869
100
AcDbEntity
  8
0
100
AcDbCircle
 10
13.498
 20
12.436
 30
-12.5
 40
2.5
210
0
220
0
230
1
100
AcDbArc
 50
180
 51
270
  0
LINE
  5
870
100
AcDbEntity
  8
0
  6
DASHED2
 62
     1
100
AcDbLine
 10
10.998
 20
12.436
 30
-12.5
 11
10.998
 21
12.436
 31
10
  0
LINE
  5
871
100
AcDbEntity
  8
0
  6
DASHED2
 62
     1
100
AcDbLine
 10
10.998
 20
12.436
 30
10
 11
27.011
 21
38.016
 31
10
  0
LINE
  5
872
100
AcDbEntity
  8
0
  6
DASHED2
 62
     1
100
AcDbLine
 10
27.011
 20
38.016
 30
10
 11
27.011
 21
38.016
 31
-9
  0
LINE
  5
873
100
AcDbEntity
  8
0
  6
ByLayer
 62
     0
100
AcDbLine
 10
27.011
 20
38.016
 30
-9
 11
27.011
 21
38.016
 31
-12.5
  0
LINE
  5
874
100
AcDbEntity
  8
0
  6
ByLayer
 62
     0
100
AcDbLine
 10
27.011
 20
38.016
 30
-12.5
 11
35.812
 21
38.016
 31
-12.5
  0
ARC
  5
875
100
AcDbEntity
  8
0
100
AcDbCircle
 10
35.812
 20
40.516
 30
-12.5
 40
2.5
210
0
220
0
230
1
100
AcDbArc
 50
270
 51
360
  0
LINE
  5
876
100
AcDbEntity
  8
0
  6
ByLayer
 62
     0
100
AcDbLine
 10
38.312
 20
40.516
 30
-12.5
 11
38.312
 21
51.745
 31
-12.5
  0
ARC
  5
877
100
AcDbEntity
  8
0
100
AcDbCircle
 10
35.812
 20
51.745
 30
-12.5
 40
2.5
210
0
220
0
230
1
100
AcDbArc
 50
360
 51
90
  0
LINE
  5
878
100
AcDbEntity
  8
0
  6
ByLayer
 62
     0
100
AcDbLine
 10
35.812
 20
54.245
 30
-12.5
 11
27.011
 21
54.245
 31
-12.5
  0
ARC
  5
879
100
AcDbEntity
  8
0
100
AcDbCircle
 10
27.011
 20
51.745
 30
-12.5
 40
2.5
210
0
220
0
230
1
100
AcDbArc
 50
90
 51
180
  0
LINE
  5
880
100
AcDbEntity
  8
0
  6
ByLayer
 62
     0
100
AcDbLine
 10
24.511
 20
51.745
 30
-12.5
 11
24.511
 21
40.516
 31
-12.5
  0
ARC
  5
881
100
AcDbEntity
  8
0
100
AcDbCircle
 10
27.011
 20
40.516
 30
-12.5
 40
2.5
210
0
220
0
230
1
100
AcDbArc
 50
180
 51
270
  0
LINE
  5
882
100
AcDbEntity
  8
0
  6
DASHED2
 62
     1
100
AcDbLine
 10
27.011
 20
38.016
 30
-12.5
 11
27.011
 21
38.016
 31
10
  0
LINE
  5
883
100
AcDbEntity
  8
0
  6
DASHED2
 62
     1
100
AcDbLine
 10
27.011
 20
38.016
 30
10
 11
64.435
 21
25.038
 31
10
0
ENDSEC
  0
SECTION
  2
OBJECTS
  0
DICTIONARY
  5
C
100
AcDbDictionary
  3
ACAD_GROUP
350
D
  3
ACAD_MLINESTYLE
350
1B
  0
DICTIONARY
  5
D
102
{ACAD_REACTORS
330
C
102
}
100
AcDbDictionary
  0
DICTIONARY
  5
1B
102
{ACAD_REACTORS
330
C
102
}
100
AcDbDictionary
  3
STANDARD
350
1C
  0
MLINESTYLE
  5
1C
102
{ACAD_REACTORS
330
1B
102
}
100
AcDbMlineStyle
  2
STANDARD
 70
     0
  3

 62
   256
 51
90.0
 52
90.0
 71
     2
 49
0.5
 62
   256
  6
BYLAYER
 49
-0.5
 62
   256
  6
BYLAYER
  0
ENDSEC
  0
EOF

