  0
SECTION
  2
HEADER
  9
$ACADVER
  1
AC1014
  9
$ACADMAINTVER
 70
     0
  9
$DWGCODEPAGE
  3
ANSI_1251
  9
$INSBASE
 10
0.0
 20
0.0
 30
0.0
  9
$EXTMIN
 10
-31.66312
 20
0.0
 30
-22.169604
  9
$EXTMAX
 10
100.0
 20
102.173913
 30
86.993707
  9
$LIMMIN
 10
0.0
 20
0.0
  9
$LIMMAX
 10
420.0
 20
297.0
  9
$ORTHOMODE
 70
     0
  9
$REGENMODE
 70
     1
  9
$FILLMODE
 70
     1
  9
$QTEXTMODE
 70
     0
  9
$MIRRTEXT
 70
     1
  9
$DRAGMODE
 70
     2
  9
$LTSCALE
 40
1.0
  9
$OSMODE
 70
     0
  9
$ATTMODE
 70
     1
  9
$TEXTSIZE
 40
2.5
  9
$TRACEWID
 40
1.0
  9
$TEXTSTYLE
  7
STANDARD
  9
$CLAYER
  8
0
  9
$CELTYPE
  6
DASHED2
  9
$CECOLOR
 62
     1
  9
$CELTSCALE
 40
1.0
  9
$DELOBJ
 70
     1
  9
$DISPSILH
 70
     0
  9
$DIMSCALE
 40
1.0
  9
$DIMASZ
 40
2.5
  9
$DIMEXO
 40
0.625
  9
$DIMDLI
 40
3.75
  9
$DIMRND
 40
0.0
  9
$DIMDLE
 40
0.0
  9
$DIMEXE
 40
1.25
  9
$DIMTP
 40
0.0
  9
$DIMTM
 40
0.0
  9
$DIMTXT
 40
2.5
  9
$DIMCEN
 40
2.5
  9
$DIMTSZ
 40
0.0
  9
$DIMTOL
 70
     0
  9
$DIMLIM
 70
     0
  9
$DIMTIH
 70
     0
  9
$DIMTOH
 70
     0
  9
$DIMSE1
 70
     0
  9
$DIMSE2
 70
     0
  9
$DIMTAD
 70
     1
  9
$DIMZIN
 70
     8
  9
$DIMBLK
  1

  9
$DIMASO
 70
     1
  9
$DIMSHO
 70
     1
  9
$DIMPOST
  1

  9
$DIMAPOST
  1

  9
$DIMALT
 70
     0
  9
$DIMALTD
 70
     4
  9
$DIMALTF
 40
0.0394
  9
$DIMLFAC
 40
1.0
  9
$DIMTOFL
 70
     1
  9
$DIMTVP
 40
0.0
  9
$DIMTIX
 70
     0
  9
$DIMSOXD
 70
     0
  9
$DIMSAH
 70
     0
  9
$DIMBLK1
  1

  9
$DIMBLK2
  1

  9
$DIMSTYLE
  2
STANDARD
  9
$DIMCLRD
 70
     0
  9
$DIMCLRE
 70
     0
  9
$DIMCLRT
 70
     0
  9
$DIMTFAC
 40
1.0
  9
$DIMGAP
 40
0.625
  9
$DIMJUST
 70
     0
  9
$DIMSD1
 70
     0
  9
$DIMSD2
 70
     0
  9
$DIMTOLJ
 70
     1
  9
$DIMTZIN
 70
     0
  9
$DIMALTZ
 70
     0
  9
$DIMALTTZ
 70
     0
  9
$DIMFIT
 70
     3
  9
$DIMUPT
 70
     0
  9
$DIMUNIT
 70
     8
  9
$DIMDEC
 70
     4
  9
$DIMTDEC
 70
     4
  9
$DIMALTU
 70
     8
  9
$DIMALTTD
 70
     4
  9
$DIMTXSTY
  7
STANDARD
  9
$DIMAUNIT
 70
     0
  9
$LUNITS
 70
     2
  9
$LUPREC
 70
     4
  9
$SKETCHINC
 40
1.0
  9
$FILLETRAD
 40
10.0
  9
$AUNITS
 70
     0
  9
$AUPREC
 70
     0
  9
$MENU
  1
.
  9
$ELEVATION
 40
0.0
  9
$PELEVATION
 40
0.0
  9
$THICKNESS
 40
0.0
  9
$LIMCHECK
 70
     0
  9
$BLIPMODE
 70
     0
  9
$CHAMFERA
 40
10.0
  9
$CHAMFERB
 40
10.0
  9
$CHAMFERC
 40
20.0
  9
$CHAMFERD
 40
0.0
  9
$SKPOLY
 70
     0
  9
$TDCREATE
 40
2452157.023910995
  9
$TDUPDATE
 40
2452157.023910995
  9
$TDINDWG
 40
0.0000000000
  9
$TDUSRTIMER
 40
0.0000000000
  9
$USRTIMER
 70
     1
  9
$ANGBASE
 50
0.0
  9
$ANGDIR
 70
     0
  9
$PDMODE
 70
     0
  9
$PDSIZE
 40
0.0
  9
$PLINEWID
 40
0.0
  9
$COORDS
 70
     1
  9
$SPLFRAME
 70
     0
  9
$SPLINETYPE
 70
     6
  9
$SPLINESEGS
 70
     8
  9
$ATTDIA
 70
     0
  9
$ATTREQ
 70
     1
  9
$HANDLING
 70
     1
  9
$HANDSEED
  5
4B
  9
$SURFTAB1
 70
     6
  9
$SURFTAB2
 70
     6
  9
$SURFTYPE
 70
     6
  9
$SURFU
 70
     6
  9
$SURFV
 70
     6
  9
$UCSNAME
  2

  9
$UCSORG
 10
0.0
 20
0.0
 30
0.0
  9
$UCSXDIR
 10
1.0000000000000000
 20
0.0
 30
+0.0000000000000000
  9
$UCSYDIR
 10
0.0
 20
1.0
 30
0.0
  9
$PUCSNAME
  2

  9
$PUCSORG
 10
0.0
 20
0.0
 30
0.0
  9
$PUCSXDIR
 10
1.0
 20
0.0
 30
0.0
  9
$PUCSYDIR
 10
0.0
 20
1.0
 30
0.0
  9
$USERI1
 70
     0
  9
$USERI2
 70
     0
  9
$USERI3
 70
     0
  9
$USERI4
 70
     0
  9
$USERI5
 70
     0
  9
$USERR1
 40
0.0
  9
$USERR2
 40
0.0
  9
$USERR3
 40
0.0
  9
$USERR4
 40
0.0
  9
$USERR5
 40
0.0
  9
$WORLDVIEW
 70
     1
  9
$SHADEDGE
 70
     3
  9
$SHADEDIF
 70
    70
  9
$TILEMODE
 70
     1
  9
$MAXACTVP
 70
    48
  9
$PINSBASE
 10
0.0
 20
0.0
 30
0.0
  9
$PLIMCHECK
 70
     0
  9
$PEXTMIN
 10
1.000000E+20
 20
1.000000E+20
 30
1.000000E+20
  9
$PEXTMAX
 10
-1.000000E+20
 20
-1.000000E+20
 30
-1.000000E+20
  9
$PLIMMIN
 10
0.0
 20
0.0
  9
$PLIMMAX
 10
420.0
 20
297.0
  9
$UNITMODE
 70
     0
  9
$VISRETAIN
 70
     1
  9
$PLINEGEN
 70
     0
  9
$PSLTSCALE
 70
     1
  9
$TREEDEPTH
 70
  3020
  9
$PICKSTYLE
 70
     1
  9
$CMLSTYLE
  2
STANDARD
  9
$CMLJUST
 70
     0
  9
$CMLSCALE
 40
20.0
  9
$PROXYGRAPHICS
 70
     1
  9
$MEASUREMENT
 70
     1
  0
ENDSEC
  0
SECTION
  2
CLASSES
  0
ENDSEC
  0
SECTION
  2
TABLES
  0
TABLE
  2
VPORT
  5
8
100
AcDbSymbolTable
 70
     2
  0
VPORT
  5
4A
100
AcDbSymbolTableRecord
100
AcDbViewportTableRecord
  2
*ACTIVE
 70
     0
 10
0.0
 20
0.0
 11
1.0
 21
1.0
 12
-69.592477
 22
-6.148788
 13
0.0
 23
0.0
 14
10.0
 24
10.0
 15
10.0
 25
10.0
 16
-1.0
 26
1.0
 36
1.0
 17
0.0
 27
0.0
 37
0.0
 40
136.765323
 41
1.059451
 42
50.0
 43
0.0
 44
0.0
 50
0.0
 51
0.0
 71
     0
 72
   100
 73
     1
 74
     1
 75
     0
 76
     0
 77
     0
 78
     0
  0
ENDTAB
  0
TABLE
  2
LTYPE
  5
5
100
AcDbSymbolTable
 70
     2
  0
LTYPE
  5
12
100
AcDbSymbolTableRecord
100
AcDbLinetypeTableRecord
  2
BYBLOCK
 70
     0
  3

 72
    65
 73
     0
 40
0.0
  0
LTYPE
  5
13
100
AcDbSymbolTableRecord
100
AcDbLinetypeTableRecord
  2
BYLAYER
 70
     0
  3

 72
    65
 73
     0
 40
0.0
  0
LTYPE
  5
14
100
AcDbSymbolTableRecord
100
AcDbLinetypeTableRecord
  2
CONTINUOUS
 70
     0
  3
Solid line
 72
    65
 73
     0
 40
0.0
  0
LTYPE
  5
35
100
AcDbSymbolTableRecord
100
AcDbLinetypeTableRecord
  2
DASHED2
 70
     0
  3
Dashed (.5x) _ _ _ _ _ _ _ _ _ _ _ _ _ _ _ _ _
 72
    65
 73
     2
 40
9.525
 49
6.35
 74
     0
 49
-3.175
 74
     0
  0
ENDTAB
  0
TABLE
  2
LAYER
  5
2
100
AcDbSymbolTable
 70
     1
  0
LAYER
  5
E
100
AcDbSymbolTableRecord
100
AcDbLayerTableRecord
  2
0
 70
     0
 62
     7
  6
CONTINUOUS
  0
ENDTAB
  0
TABLE
  2
STYLE
  5
3
100
AcDbSymbolTable
 70
     2
  0
STYLE
  5
F
100
AcDbSymbolTableRecord
100
AcDbTextStyleTableRecord
  2
STANDARD
 70
     0
 40
0.0
 41
1.0
 50
0.0
 71
     0
 42
2.5
  3
txt
  4

  0
STYLE
  5
34
100
AcDbSymbolTableRecord
100
AcDbTextStyleTableRecord
  2

 70
     1
 40
0.0
 41
1.0
 50
0.0
 71
     0
 42
2.5
  3
ltypeshp.shx
  4

  0
ENDTAB
  0
TABLE
  2
VIEW
  5
6
100
AcDbSymbolTable
 70
     0
  0
ENDTAB
  0
TABLE
  2
UCS
  5
7
100
AcDbSymbolTable
 70
     0
  0
ENDTAB
  0
TABLE
  2
APPID
  5
9
100
AcDbSymbolTable
 70
     1
  0
APPID
  5
10
100
AcDbSymbolTableRecord
100
AcDbRegAppTableRecord
  2
ACAD
 70
     0
  0
ENDTAB
  0
TABLE
  2
DIMSTYLE
  5
A
100
AcDbSymbolTable
 70
     1
  0
DIMSTYLE
105
1D
100
AcDbSymbolTableRecord
100
AcDbDimStyleTableRecord
  2
STANDARD
 70
     0
  3

  4

  5

  6

  7

 40
1.0
 41
0.18
 42
0.0625
 43
0.38
 44
0.18
 45
0.0
 46
0.0
 47
0.0
 48
0.0
140
0.18
141
0.09
142
0.0
143
25.4
144
1.0
145
0.0
146
1.0
147
0.09
 71
     0
 72
     0
 73
     1
 74
     1
 75
     0
 76
     0
 77
     0
 78
     0
170
     0
171
     2
172
     0
173
     0
174
     0
175
     0
176
     0
177
     0
178
     0
270
     2
271
     4
272
     4
273
     2
274
     2
340
F
275
     0
280
     0
281
     0
282
     0
283
     1
284
     0
285
     0
286
     0
287
     3
288
     0
  0
ENDTAB
  0
TABLE
  2
BLOCK_RECORD
  5
1
100
AcDbSymbolTable
 70
     0
  0
BLOCK_RECORD
  5
18
100
AcDbSymbolTableRecord
100
AcDbBlockTableRecord
  2
*MODEL_SPACE
  0
BLOCK_RECORD
  5
15
100
AcDbSymbolTableRecord
100
AcDbBlockTableRecord
  2
*PAPER_SPACE
  0
ENDTAB
  0
ENDSEC
  0
SECTION
  2
BLOCKS
  0
BLOCK
  5
19
100
AcDbEntity
  8
0
100
AcDbBlockBegin
  2
*MODEL_SPACE
 70
     0
 10
0.0
 20
0.0
 30
0.0
  3
*MODEL_SPACE
  1

  0
ENDBLK
  5
1A
100
AcDbEntity
  8
0
100
AcDbBlockEnd
  0
BLOCK
  5
16
100
AcDbEntity
 67
     1
  8
0
100
AcDbBlockBegin
  2
*PAPER_SPACE
 70
     0
 10
0.0
 20
0.0
 30
0.0
  3
*PAPER_SPACE
  1

  0
ENDBLK
  5
17
100
AcDbEntity
 67
     1
  8
0
100
AcDbBlockEnd
  0
ENDSEC
  0
SECTION
  2
ENTITIES
    0
LINE
  5
500
100
AcDbEntity
  8
0
  6
ByLayer
 62
     0
100
AcDbLine
 10
56.042
 20
0
 30
26.181
 11
56.042
 21
0
 31
-71.532
  0
LINE
  5
501
100
AcDbEntity
  8
0
  6
DASHED2
 62
     1
100
AcDbLine
 10
56.042
 20
0
 30
-71.532
 11
57.4565
 21
0
 31
-70.118
  0
LINE
  5
502
100
AcDbEntity
  8
0
  6
DASHED2
 62
     1
100
AcDbLine
 10
57.4565
 20
0
 30
-70.118
 11
57.4565
 21
0
 31
26.181
  0
LINE
  5
503
100
AcDbEntity
  8
0
  6
DASHED2
 62
     1
100
AcDbLine
 10
57.4565
 20
0
 30
26.181
 11
54.042
 21
0
 31
26.181
  0
LINE
  5
504
100
AcDbEntity
  8
0
  6
ByLayer
 62
     0
100
AcDbLine
 10
54.042
 20
0
 30
26.181
 11
54.042
 21
0
 31
-70.345
  0
ARC
  5
505
100
AcDbEntity
  8
0
100
AcDbCircle
 10
-53.1421
 20
-74.1397
 30
4.11258e-013
 40
3.9
210
0
220
1
230
1.61554e-015
100
AcDbArc
 50
103.341
 51
138.037
  0
LINE
  5
506
100
AcDbEntity
  8
0
  6
DASHED2
 62
     1
100
AcDbLine
 10
56.042
 20
0
 30
-71.532
 11
57.4565
 21
0
 31
-70.118
  0
LINE
  5
507
100
AcDbEntity
  8
0
  6
DASHED2
 62
     1
100
AcDbLine
 10
57.4565
 20
0
 30
-70.118
 11
57.4565
 21
0
 31
26.181
  0
LINE
  5
508
100
AcDbEntity
  8
0
  6
DASHED2
 62
     1
100
AcDbLine
 10
57.4565
 20
0
 30
26.181
 11
52.042
 21
0
 31
26.181
  0
LINE
  5
509
100
AcDbEntity
  8
0
  6
ByLayer
 62
     0
100
AcDbLine
 10
52.042
 20
0
 30
26.181
 11
52.042
 21
0
 31
-70.24
  0
LINE
  5
510
100
AcDbEntity
  8
0
  6
ByLayer
 62
     0
100
AcDbLine
 10
52.042
 20
0
 30
-70.24
 11
53.142
 21
0
 31
-70.24
  0
ARC
  5
511
100
AcDbEntity
  8
0
100
AcDbCircle
 10
-53.1431
 20
-74.14
 30
4.11263e-013
 40
3.9
210
0
220
1
230
1.61554e-015
100
AcDbArc
 50
89.9835
 51
103.325
  0
LINE
  5
512
100
AcDbEntity
  8
0
  6
DASHED2
 62
     1
100
AcDbLine
 10
54.042
 20
0
 30
-70.345
 11
55.4565
 21
0
 31
-68.931
  0
LINE
  5
513
100
AcDbEntity
  8
0
  6
DASHED2
 62
     1
100
AcDbLine
 10
55.4565
 20
0
 30
-68.931
 11
55.4565
 21
0
 31
26.181
  0
LINE
  5
514
100
AcDbEntity
  8
0
  6
DASHED2
 62
     1
100
AcDbLine
 10
55.4565
 20
0
 30
26.181
 11
50.042
 21
0
 31
26.181
  0
LINE
  5
515
100
AcDbEntity
  8
0
  6
ByLayer
 62
     0
100
AcDbLine
 10
50.042
 20
0
 30
26.181
 11
50.042
 21
0
 31
-70.24
  0
LINE
  5
516
100
AcDbEntity
  8
0
  6
ByLayer
 62
     0
100
AcDbLine
 10
50.042
 20
0
 30
-70.24
 11
52.042
 21
0
 31
-70.24
  0
LINE
  5
517
100
AcDbEntity
  8
0
  6
DASHED2
 62
     1
100
AcDbLine
 10
52.042
 20
0
 30
-70.24
 11
53.4565
 21
0
 31
-68.826
  0
LINE
  5
518
100
AcDbEntity
  8
0
  6
DASHED2
 62
     1
100
AcDbLine
 10
53.4565
 20
0
 30
-68.826
 11
53.4565
 21
0
 31
26.181
  0
LINE
  5
519
100
AcDbEntity
  8
0
  6
DASHED2
 62
     1
100
AcDbLine
 10
53.4565
 20
0
 30
26.181
 11
48.042
 21
0
 31
26.181
  0
LINE
  5
520
100
AcDbEntity
  8
0
  6
ByLayer
 62
     0
100
AcDbLine
 10
48.042
 20
0
 30
26.181
 11
48.042
 21
0
 31
-69.951
  0
ARC
  5
521
100
AcDbEntity
  8
0
100
AcDbCircle
 10
-49.1838
 20
-67.84
 30
3.78114e-013
 40
2.4
210
0
220
1
230
1.61554e-015
100
AcDbArc
 50
270.007
 51
298.408
  0
LINE
  5
522
100
AcDbEntity
  8
0
  6
ByLayer
 62
     0
100
AcDbLine
 10
49.1835
 20
0
 30
-70.24
 11
50.042
 21
0
 31
-70.24
  0
LINE
  5
523
100
AcDbEntity
  8
0
  6
DASHED2
 62
     1
100
AcDbLine
 10
50.042
 20
0
 30
-70.24
 11
51.4565
 21
0
 31
-68.826
  0
LINE
  5
524
100
AcDbEntity
  8
0
  6
DASHED2
 62
     1
100
AcDbLine
 10
51.4565
 20
0
 30
-68.826
 11
51.4565
 21
0
 31
26.181
  0
LINE
  5
525
100
AcDbEntity
  8
0
  6
DASHED2
 62
     1
100
AcDbLine
 10
51.4565
 20
0
 30
26.181
 11
46.042
 21
0
 31
26.181
  0
LINE
  5
526
100
AcDbEntity
  8
0
  6
ByLayer
 62
     0
100
AcDbLine
 10
46.042
 20
0
 30
26.181
 11
46.042
 21
0
 31
-51.219
  0
ARC
  5
527
100
AcDbEntity
  8
0
100
AcDbCircle
 10
-41.7835
 20
-53.8391
 30
3.08965e-013
 40
5
210
0
220
1
230
1.61554e-015
100
AcDbArc
 50
148.397
 51
179.998
  0
LINE
  5
528
100
AcDbEntity
  8
0
  6
ByLayer
 62
     0
100
AcDbLine
 10
46.7835
 20
0
 30
-53.839
 11
46.7835
 21
0
 31
-67.84
  0
ARC
  5
529
100
AcDbEntity
  8
0
100
AcDbCircle
 10
-49.1835
 20
-67.8398
 30
3.78112e-013
 40
2.4
210
0
220
1
230
1.61554e-015
100
AcDbArc
 50
298.4
 51
359.996
  0
LINE
  5
530
100
AcDbEntity
  8
0
  6
DASHED2
 62
     1
100
AcDbLine
 10
48.042
 20
0
 30
-69.951
 11
49.4565
 21
0
 31
-68.537
  0
LINE
  5
531
100
AcDbEntity
  8
0
  6
DASHED2
 62
     1
100
AcDbLine
 10
49.4565
 20
0
 30
-68.537
 11
49.4565
 21
0
 31
26.181
  0
LINE
  5
532
100
AcDbEntity
  8
0
  6
DASHED2
 62
     1
100
AcDbLine
 10
49.4565
 20
0
 30
26.181
 11
44.042
 21
0
 31
26.181
  0
LINE
  5
533
100
AcDbEntity
  8
0
  6
ByLayer
 62
     0
100
AcDbLine
 10
44.042
 20
0
 30
26.181
 11
44.042
 21
0
 31
-49.255
  0
LINE
  5
534
100
AcDbEntity
  8
0
  6
ByLayer
 62
     0
100
AcDbLine
 10
44.042
 20
0
 30
-49.255
 11
44.871
 21
0
 31
-49.906
  0
ARC
  5
535
100
AcDbEntity
  8
0
100
AcDbCircle
 10
-41.7832
 20
-53.8386
 30
3.08962e-013
 40
5
210
0
220
1
230
1.61554e-015
100
AcDbArc
 50
128.139
 51
148.405
  0
LINE
  5
536
100
AcDbEntity
  8
0
  6
DASHED2
 62
     1
100
AcDbLine
 10
46.042
 20
0
 30
-51.219
 11
47.4565
 21
0
 31
-49.805
  0
LINE
  5
537
100
AcDbEntity
  8
0
  6
DASHED2
 62
     1
100
AcDbLine
 10
47.4565
 20
0
 30
-49.805
 11
47.4565
 21
0
 31
26.181
  0
LINE
  5
538
100
AcDbEntity
  8
0
  6
DASHED2
 62
     1
100
AcDbLine
 10
47.4565
 20
0
 30
26.181
 11
42.042
 21
0
 31
26.181
  0
LINE
  5
539
100
AcDbEntity
  8
0
  6
ByLayer
 62
     0
100
AcDbLine
 10
42.042
 20
0
 30
26.181
 11
42.042
 21
0
 31
-47.686
  0
LINE
  5
540
100
AcDbEntity
  8
0
  6
ByLayer
 62
     0
100
AcDbLine
 10
42.042
 20
0
 30
-47.686
 11
44.042
 21
0
 31
-49.255
  0
LINE
  5
541
100
AcDbEntity
  8
0
  6
DASHED2
 62
     1
100
AcDbLine
 10
44.042
 20
0
 30
-49.255
 11
45.4565
 21
0
 31
-47.841
  0
LINE
  5
542
100
AcDbEntity
  8
0
  6
DASHED2
 62
     1
100
AcDbLine
 10
45.4565
 20
0
 30
-47.841
 11
45.4565
 21
0
 31
26.181
  0
LINE
  5
543
100
AcDbEntity
  8
0
  6
DASHED2
 62
     1
100
AcDbLine
 10
45.4565
 20
0
 30
26.181
 11
40.042
 21
0
 31
26.181
  0
LINE
  5
544
100
AcDbEntity
  8
0
  6
ByLayer
 62
     0
100
AcDbLine
 10
40.042
 20
0
 30
26.181
 11
40.042
 21
0
 31
-46.116
  0
LINE
  5
545
100
AcDbEntity
  8
0
  6
ByLayer
 62
     0
100
AcDbLine
 10
40.042
 20
0
 30
-46.116
 11
42.042
 21
0
 31
-47.686
  0
LINE
  5
546
100
AcDbEntity
  8
0
  6
DASHED2
 62
     1
100
AcDbLine
 10
42.042
 20
0
 30
-47.686
 11
43.4565
 21
0
 31
-46.271
  0
LINE
  5
547
100
AcDbEntity
  8
0
  6
DASHED2
 62
     1
100
AcDbLine
 10
43.4565
 20
0
 30
-46.271
 11
43.4565
 21
0
 31
26.181
  0
LINE
  5
548
100
AcDbEntity
  8
0
  6
DASHED2
 62
     1
100
AcDbLine
 10
43.4565
 20
0
 30
26.181
 11
38.042
 21
0
 31
26.181
  0
LINE
  5
549
100
AcDbEntity
  8
0
  6
ByLayer
 62
     0
100
AcDbLine
 10
38.042
 20
0
 30
26.181
 11
38.042
 21
0
 31
-44.546
  0
LINE
  5
550
100
AcDbEntity
  8
0
  6
ByLayer
 62
     0
100
AcDbLine
 10
38.042
 20
0
 30
-44.546
 11
40.042
 21
0
 31
-46.116
  0
LINE
  5
551
100
AcDbEntity
  8
0
  6
DASHED2
 62
     1
100
AcDbLine
 10
40.042
 20
0
 30
-46.116
 11
41.4565
 21
0
 31
-44.701
  0
LINE
  5
552
100
AcDbEntity
  8
0
  6
DASHED2
 62
     1
100
AcDbLine
 10
41.4565
 20
0
 30
-44.701
 11
41.4565
 21
0
 31
26.181
  0
LINE
  5
553
100
AcDbEntity
  8
0
  6
DASHED2
 62
     1
100
AcDbLine
 10
41.4565
 20
0
 30
26.181
 11
36.042
 21
0
 31
26.181
  0
LINE
  5
554
100
AcDbEntity
  8
0
  6
ByLayer
 62
     0
100
AcDbLine
 10
36.042
 20
0
 30
26.181
 11
36.042
 21
0
 31
-42.976
  0
LINE
  5
555
100
AcDbEntity
  8
0
  6
ByLayer
 62
     0
100
AcDbLine
 10
36.042
 20
0
 30
-42.976
 11
38.042
 21
0
 31
-44.546
  0
LINE
  5
556
100
AcDbEntity
  8
0
  6
DASHED2
 62
     1
100
AcDbLine
 10
38.042
 20
0
 30
-44.546
 11
39.4565
 21
0
 31
-43.132
  0
LINE
  5
557
100
AcDbEntity
  8
0
  6
DASHED2
 62
     1
100
AcDbLine
 10
39.4565
 20
0
 30
-43.132
 11
39.4565
 21
0
 31
26.181
  0
LINE
  5
558
100
AcDbEntity
  8
0
  6
DASHED2
 62
     1
100
AcDbLine
 10
39.4565
 20
0
 30
26.181
 11
34.042
 21
0
 31
26.181
  0
LINE
  5
559
100
AcDbEntity
  8
0
  6
ByLayer
 62
     0
100
AcDbLine
 10
34.042
 20
0
 30
26.181
 11
34.042
 21
0
 31
-41.406
  0
LINE
  5
560
100
AcDbEntity
  8
0
  6
ByLayer
 62
     0
100
AcDbLine
 10
34.042
 20
0
 30
-41.406
 11
36.042
 21
0
 31
-42.976
  0
LINE
  5
561
100
AcDbEntity
  8
0
  6
DASHED2
 62
     1
100
AcDbLine
 10
36.042
 20
0
 30
-42.976
 11
37.4565
 21
0
 31
-41.562
  0
LINE
  5
562
100
AcDbEntity
  8
0
  6
DASHED2
 62
     1
100
AcDbLine
 10
37.4565
 20
0
 30
-41.562
 11
37.4565
 21
0
 31
26.181
  0
LINE
  5
563
100
AcDbEntity
  8
0
  6
DASHED2
 62
     1
100
AcDbLine
 10
37.4565
 20
0
 30
26.181
 11
32.042
 21
0
 31
26.181
  0
LINE
  5
564
100
AcDbEntity
  8
0
  6
ByLayer
 62
     0
100
AcDbLine
 10
32.042
 20
0
 30
26.181
 11
32.042
 21
0
 31
-39.836
  0
LINE
  5
565
100
AcDbEntity
  8
0
  6
ByLayer
 62
     0
100
AcDbLine
 10
32.042
 20
0
 30
-39.836
 11
34.042
 21
0
 31
-41.406
  0
LINE
  5
566
100
AcDbEntity
  8
0
  6
DASHED2
 62
     1
100
AcDbLine
 10
34.042
 20
0
 30
-41.406
 11
35.4565
 21
0
 31
-39.992
  0
LINE
  5
567
100
AcDbEntity
  8
0
  6
DASHED2
 62
     1
100
AcDbLine
 10
35.4565
 20
0
 30
-39.992
 11
35.4565
 21
0
 31
26.181
  0
LINE
  5
568
100
AcDbEntity
  8
0
  6
DASHED2
 62
     1
100
AcDbLine
 10
35.4565
 20
0
 30
26.181
 11
30.042
 21
0
 31
26.181
  0
LINE
  5
569
100
AcDbEntity
  8
0
  6
ByLayer
 62
     0
100
AcDbLine
 10
30.042
 20
0
 30
26.181
 11
30.042
 21
0
 31
-38.266
  0
LINE
  5
570
100
AcDbEntity
  8
0
  6
ByLayer
 62
     0
100
AcDbLine
 10
30.042
 20
0
 30
-38.266
 11
32.042
 21
0
 31
-39.836
  0
LINE
  5
571
100
AcDbEntity
  8
0
  6
DASHED2
 62
     1
100
AcDbLine
 10
32.042
 20
0
 30
-39.836
 11
33.4565
 21
0
 31
-38.422
  0
LINE
  5
572
100
AcDbEntity
  8
0
  6
DASHED2
 62
     1
100
AcDbLine
 10
33.4565
 20
0
 30
-38.422
 11
33.4565
 21
0
 31
26.181
  0
LINE
  5
573
100
AcDbEntity
  8
0
  6
DASHED2
 62
     1
100
AcDbLine
 10
33.4565
 20
0
 30
26.181
 11
29.116
 21
0
 31
26.181
  0
LINE
  5
574
100
AcDbEntity
  8
0
  6
ByLayer
 62
     0
100
AcDbLine
 10
29.116
 20
0
 30
26.181
 11
29.116
 21
0
 31
-36.858
  0
ARC
  5
575
100
AcDbEntity
  8
0
100
AcDbCircle
 10
-30.516
 20
-36.8588
 30
2.17694e-013
 40
1.4
210
0
220
1
230
1.61554e-015
100
AcDbArc
 50
308.134
 51
0.0327645
  0
LINE
  5
576
100
AcDbEntity
  8
0
  6
ByLayer
 62
     0
100
AcDbLine
 10
29.6515
 20
0
 30
-37.96
 11
44.871
 21
0
 31
-49.906
  0
ARC
  5
577
100
AcDbEntity
  8
0
100
AcDbCircle
 10
-41.7835
 20
-53.8389
 30
3.08964e-013
 40
5
210
0
220
1
230
1.61554e-015
100
AcDbArc
 50
128.134
 51
180.002
  0
LINE
  5
578
100
AcDbEntity
  8
0
  6
ByLayer
 62
     0
100
AcDbLine
 10
46.7835
 20
0
 30
-53.839
 11
46.7835
 21
0
 31
-67.84
  0
ARC
  5
579
100
AcDbEntity
  8
0
100
AcDbCircle
 10
-49.1835
 20
-67.84
 30
3.78113e-013
 40
2.4
210
0
220
1
230
1.61554e-015
100
AcDbArc
 50
270
 51
360
  0
LINE
  5
580
100
AcDbEntity
  8
0
  6
ByLayer
 62
     0
100
AcDbLine
 10
49.1835
 20
0
 30
-70.24
 11
53.142
 21
0
 31
-70.24
  0
ARC
  5
581
100
AcDbEntity
  8
0
100
AcDbCircle
 10
-53.1423
 20
-74.14
 30
4.1126e-013
 40
3.9
210
0
220
1
230
1.61554e-015
100
AcDbArc
 50
89.9958
 51
138.032
  0
ARC
  5
582
100
AcDbEntity
  8
0
100
AcDbCircle
 10
-53.142
 20
-74.1397
 30
4.11258e-013
 40
3.9
210
0
220
1
230
1.61554e-015
100
AcDbArc
 50
138.038
 51
180.005
  0
LINE
  5
583
100
AcDbEntity
  8
0
  6
ByLayer
 62
     0
100
AcDbLine
 10
57.042
 20
0
 30
-74.14
 11
57.042
 21
0
 31
-99.396
  0
LINE
  5
584
100
AcDbEntity
  8
0
  6
DASHED2
 62
     1
100
AcDbLine
 10
57.042
 20
0
 30
-99.396
 11
58.4565
 21
0
 31
-97.982
  0
LINE
  5
585
100
AcDbEntity
  8
0
  6
DASHED2
 62
     1
100
AcDbLine
 10
58.4565
 20
0
 30
-97.982
 11
58.4565
 21
0
 31
5
  0
LINE
  5
586
100
AcDbEntity
  8
0
  6
DASHED2
 62
     1
100
AcDbLine
 10
58.4565
 20
0
 30
5
 11
300
 21
0
 31
5
  0
LINE
  5
587
100
AcDbEntity
  8
0
  6
DASHED2
 62
     1
100
AcDbLine
 10
300
 20
0
 30
5
 11
300
 21
0
 31
200
  0
LINE
  5
588
100
AcDbEntity
  8
0
  6
DASHED2
 62
     1
100
AcDbLine
 10
300
 20
0
 30
200
 11
29.516
 21
0
 31
200
  0
LINE
  5
589
100
AcDbEntity
  8
0
  6
DASHED2
 62
     1
100
AcDbLine
 10
29.516
 20
0
 30
200
 11
29.516
 21
0
 31
-14.108
  0
LINE
  5
590
100
AcDbEntity
  8
0
  6
DASHED2
 62
     1
100
AcDbLine
 10
29.516
 20
0
 30
-14.108
 11
28.516
 21
0
 31
-14.108
  0
LINE
  5
591
100
AcDbEntity
  8
0
  6
ByLayer
 62
     0
100
AcDbLine
 10
28.516
 20
0
 30
-14.108
 11
21.597
 21
0
 31
-14.108
  0
LINE
  5
592
100
AcDbEntity
  8
0
  6
DASHED2
 62
     1
100
AcDbLine
 10
21.597
 20
0
 30
-14.108
 11
28.516
 21
0
 31
-14.108
  0
LINE
  5
593
100
AcDbEntity
  8
0
  6
DASHED2
 62
     1
100
AcDbLine
 10
28.516
 20
0
 30
-14.108
 11
28.516
 21
0
 31
-16.108
  0
LINE
  5
594
100
AcDbEntity
  8
0
  6
ByLayer
 62
     0
100
AcDbLine
 10
28.516
 20
0
 30
-16.108
 11
21.597
 21
0
 31
-16.108
  0
LINE
  5
595
100
AcDbEntity
  8
0
  6
DASHED2
 62
     1
100
AcDbLine
 10
21.597
 20
0
 30
-16.108
 11
22.304
 21
0
 31
-15.401
  0
LINE
  5
596
100
AcDbEntity
  8
0
  6
DASHED2
 62
     1
100
AcDbLine
 10
22.304
 20
0
 30
-15.401
 11
28.516
 21
0
 31
-15.401
  0
LINE
  5
597
100
AcDbEntity
  8
0
  6
DASHED2
 62
     1
100
AcDbLine
 10
28.516
 20
0
 30
-15.401
 11
28.516
 21
0
 31
-18.108
  0
LINE
  5
598
100
AcDbEntity
  8
0
  6
ByLayer
 62
     0
100
AcDbLine
 10
28.516
 20
0
 30
-18.108
 11
21.597
 21
0
 31
-18.108
  0
LINE
  5
599
100
AcDbEntity
  8
0
  6
DASHED2
 62
     1
100
AcDbLine
 10
21.597
 20
0
 30
-18.108
 11
22.304
 21
0
 31
-17.401
  0
LINE
  5
600
100
AcDbEntity
  8
0
  6
DASHED2
 62
     1
100
AcDbLine
 10
22.304
 20
0
 30
-17.401
 11
28.516
 21
0
 31
-17.401
  0
LINE
  5
601
100
AcDbEntity
  8
0
  6
DASHED2
 62
     1
100
AcDbLine
 10
28.516
 20
0
 30
-17.401
 11
28.516
 21
0
 31
-20.108
  0
LINE
  5
602
100
AcDbEntity
  8
0
  6
ByLayer
 62
     0
100
AcDbLine
 10
28.516
 20
0
 30
-20.108
 11
21.597
 21
0
 31
-20.108
  0
LINE
  5
603
100
AcDbEntity
  8
0
  6
DASHED2
 62
     1
100
AcDbLine
 10
21.597
 20
0
 30
-20.108
 11
22.304
 21
0
 31
-19.401
  0
LINE
  5
604
100
AcDbEntity
  8
0
  6
DASHED2
 62
     1
100
AcDbLine
 10
22.304
 20
0
 30
-19.401
 11
28.516
 21
0
 31
-19.401
  0
LINE
  5
605
100
AcDbEntity
  8
0
  6
DASHED2
 62
     1
100
AcDbLine
 10
28.516
 20
0
 30
-19.401
 11
28.516
 21
0
 31
-22.108
  0
LINE
  5
606
100
AcDbEntity
  8
0
  6
ByLayer
 62
     0
100
AcDbLine
 10
28.516
 20
0
 30
-22.108
 11
21.597
 21
0
 31
-22.108
  0
LINE
  5
607
100
AcDbEntity
  8
0
  6
DASHED2
 62
     1
100
AcDbLine
 10
21.597
 20
0
 30
-22.108
 11
22.304
 21
0
 31
-21.401
  0
LINE
  5
608
100
AcDbEntity
  8
0
  6
DASHED2
 62
     1
100
AcDbLine
 10
22.304
 20
0
 30
-21.401
 11
28.516
 21
0
 31
-21.401
  0
LINE
  5
609
100
AcDbEntity
  8
0
  6
DASHED2
 62
     1
100
AcDbLine
 10
28.516
 20
0
 30
-21.401
 11
28.516
 21
0
 31
-23.807
  0
LINE
  5
610
100
AcDbEntity
  8
0
  6
ByLayer
 62
     0
100
AcDbLine
 10
28.516
 20
0
 30
-23.807
 11
21.597
 21
0
 31
-23.807
  0
LINE
  5
611
100
AcDbEntity
  8
0
  6
ByLayer
 62
     0
100
AcDbLine
 10
21.597
 20
0
 30
-23.807
 11
21.597
 21
0
 31
-22.108
  0
LINE
  5
612
100
AcDbEntity
  8
0
  6
DASHED2
 62
     1
100
AcDbLine
 10
21.597
 20
0
 30
-22.108
 11
22.304
 21
0
 31
-21.401
  0
LINE
  5
613
100
AcDbEntity
  8
0
  6
DASHED2
 62
     1
100
AcDbLine
 10
22.304
 20
0
 30
-21.401
 11
28.516
 21
0
 31
-21.401
  0
LINE
  5
614
100
AcDbEntity
  8
0
  6
DASHED2
 62
     1
100
AcDbLine
 10
28.516
 20
0
 30
-21.401
 11
28.516
 21
0
 31
5
  0
LINE
  5
615
100
AcDbEntity
  8
0
  6
DASHED2
 62
     1
100
AcDbLine
 10
28.516
 20
0
 30
5
 11
300
 21
0
 31
5
  0
LINE
  5
616
100
AcDbEntity
  8
0
  6
DASHED2
 62
     1
100
AcDbLine
 10
300
 20
0
 30
5
 11
300
 21
0
 31
200
  0
LINE
  5
617
100
AcDbEntity
  8
0
  6
DASHED2
 62
     1
100
AcDbLine
 10
300
 20
0
 30
200
 11
32.702
 21
0
 31
200
  0
LINE
  5
618
100
AcDbEntity
  8
0
  6
DASHED2
 62
     1
100
AcDbLine
 10
32.702
 20
0
 30
200
 11
32.702
 21
0
 31
15.855
  0
LINE
  5
619
100
AcDbEntity
  8
0
  6
DASHED2
 62
     1
100
AcDbLine
 10
32.702
 20
0
 30
15.855
 11
31.702
 21
0
 31
15.855
  0
LINE
  5
620
100
AcDbEntity
  8
0
  6
ByLayer
 62
     0
100
AcDbLine
 10
31.702
 20
0
 30
15.855
 11
30.9945
 21
0
 31
15.148
  0
ARC
  5
621
100
AcDbEntity
  8
0
100
AcDbCircle
 10
-33.116
 20
13.0269
 30
6.49097e-014
 40
3
210
0
220
1
230
1.61554e-015
100
AcDbArc
 50
0.0026867
 51
44.9951
  0
LINE
  5
622
100
AcDbEntity
  8
0
  6
ByLayer
 62
     0
100
AcDbLine
 10
30.116
 20
0
 30
13.027
 11
30.116
 21
0
 31
-36.058
  0
ARC
  5
623
100
AcDbEntity
  8
0
100
AcDbCircle
 10
-31.316
 20
-36.0581
 30
2.17691e-013
 40
1.2
210
0
220
1
230
1.61554e-015
100
AcDbArc
 50
308.134
 51
0.00548794
  0
LINE
  5
624
100
AcDbEntity
  8
0
  6
ByLayer
 62
     0
100
AcDbLine
 10
30.575
 20
0
 30
-37.002
 11
45.7945
 21
0
 31
-48.949
  0
ARC
  5
625
100
AcDbEntity
  8
0
100
AcDbCircle
 10
-42.5835
 20
-53.0392
 30
3.08965e-013
 40
5.2
210
0
220
1
230
1.61554e-015
100
AcDbArc
 50
128.134
 51
179.998
  0
LINE
  5
626
100
AcDbEntity
  8
0
  6
ByLayer
 62
     0
100
AcDbLine
 10
47.7835
 20
0
 30
-53.039
 11
47.7835
 21
0
 31
-67.04
  0
ARC
  5
627
100
AcDbEntity
  8
0
100
AcDbCircle
 10
-49.9835
 20
-67.04
 30
3.78113e-013
 40
2.2
210
0
220
1
230
1.61554e-015
100
AcDbArc
 50
270
 51
360
  0
LINE
  5
628
100
AcDbEntity
  8
0
  6
ByLayer
 62
     0
100
AcDbLine
 10
49.9835
 20
0
 30
-69.24
 11
53.942
 21
0
 31
-69.24
  0
ARC
  5
629
100
AcDbEntity
  8
0
100
AcDbCircle
 10
-53.942
 20
-73.34
 30
4.11259e-013
 40
4.1
210
0
220
1
230
1.61554e-015
100
AcDbArc
 50
90
 51
180
  0
LINE
  5
630
100
AcDbEntity
  8
0
  6
ByLayer
 62
     0
100
AcDbLine
 10
58.042
 20
0
 30
-73.34
 11
58.042
 21
0
 31
-99.596
  0
ARC
  5
631
100
AcDbEntity
  8
0
100
AcDbCircle
 10
-61.042
 20
-99.5954
 30
5.19033e-013
 40
3
210
0
220
1
230
1.61554e-015
100
AcDbArc
 50
314.991
 51
359.988
  0
LINE
  5
632
100
AcDbEntity
  8
0
  6
ByLayer
 62
     0
100
AcDbLine
 10
58.921
 20
0
 30
-101.717
 11
59.628
 21
0
 31
-102.425
  0
LINE
  5
633
100
AcDbEntity
  8
0
  6
DASHED2
 62
     1
100
AcDbLine
 10
59.628
 20
0
 30
-102.425
 11
59.628
 21
0
 31
5
  0
LINE
  5
634
100
AcDbEntity
  8
0
  6
DASHED2
 62
     1
100
AcDbLine
 10
59.628
 20
0
 30
5
 11
300
 21
0
 31
5
  0
LINE
  5
635
100
AcDbEntity
  8
0
  6
DASHED2
 62
     1
100
AcDbLine
 10
300
 20
0
 30
5
 11
300
 21
0
 31
200
0
ENDSEC
  0
SECTION
  2
OBJECTS
  0
DICTIONARY
  5
C
100
AcDbDictionary
  3
ACAD_GROUP
350
D
  3
ACAD_MLINESTYLE
350
1B
  0
DICTIONARY
  5
D
102
{ACAD_REACTORS
330
C
102
}
100
AcDbDictionary
  0
DICTIONARY
  5
1B
102
{ACAD_REACTORS
330
C
102
}
100
AcDbDictionary
  3
STANDARD
350
1C
  0
MLINESTYLE
  5
1C
102
{ACAD_REACTORS
330
1B
102
}
100
AcDbMlineStyle
  2
STANDARD
 70
     0
  3

 62
   256
 51
90.0
 52
90.0
 71
     2
 49
0.5
 62
   256
  6
BYLAYER
 49
-0.5
 62
   256
  6
BYLAYER
  0
ENDSEC
  0
EOF

