  0
SECTION
  2
HEADER
  9
$ACADVER
  1
AC1014
  9
$ACADMAINTVER
 70
     0
  9
$DWGCODEPAGE
  3
ANSI_1251
  9
$INSBASE
 10
0.0
 20
0.0
 30
0.0
  9
$EXTMIN
 10
-31.66312
 20
0.0
 30
-22.169604
  9
$EXTMAX
 10
100.0
 20
102.173913
 30
86.993707
  9
$LIMMIN
 10
0.0
 20
0.0
  9
$LIMMAX
 10
420.0
 20
297.0
  9
$ORTHOMODE
 70
     0
  9
$REGENMODE
 70
     1
  9
$FILLMODE
 70
     1
  9
$QTEXTMODE
 70
     0
  9
$MIRRTEXT
 70
     1
  9
$DRAGMODE
 70
     2
  9
$LTSCALE
 40
1.0
  9
$OSMODE
 70
     0
  9
$ATTMODE
 70
     1
  9
$TEXTSIZE
 40
2.5
  9
$TRACEWID
 40
1.0
  9
$TEXTSTYLE
  7
STANDARD
  9
$CLAYER
  8
0
  9
$CELTYPE
  6
DASHED2
  9
$CECOLOR
 62
     1
  9
$CELTSCALE
 40
1.0
  9
$DELOBJ
 70
     1
  9
$DISPSILH
 70
     0
  9
$DIMSCALE
 40
1.0
  9
$DIMASZ
 40
2.5
  9
$DIMEXO
 40
0.625
  9
$DIMDLI
 40
3.75
  9
$DIMRND
 40
0.0
  9
$DIMDLE
 40
0.0
  9
$DIMEXE
 40
1.25
  9
$DIMTP
 40
0.0
  9
$DIMTM
 40
0.0
  9
$DIMTXT
 40
2.5
  9
$DIMCEN
 40
2.5
  9
$DIMTSZ
 40
0.0
  9
$DIMTOL
 70
     0
  9
$DIMLIM
 70
     0
  9
$DIMTIH
 70
     0
  9
$DIMTOH
 70
     0
  9
$DIMSE1
 70
     0
  9
$DIMSE2
 70
     0
  9
$DIMTAD
 70
     1
  9
$DIMZIN
 70
     8
  9
$DIMBLK
  1

  9
$DIMASO
 70
     1
  9
$DIMSHO
 70
     1
  9
$DIMPOST
  1

  9
$DIMAPOST
  1

  9
$DIMALT
 70
     0
  9
$DIMALTD
 70
     4
  9
$DIMALTF
 40
0.0394
  9
$DIMLFAC
 40
1.0
  9
$DIMTOFL
 70
     1
  9
$DIMTVP
 40
0.0
  9
$DIMTIX
 70
     0
  9
$DIMSOXD
 70
     0
  9
$DIMSAH
 70
     0
  9
$DIMBLK1
  1

  9
$DIMBLK2
  1

  9
$DIMSTYLE
  2
STANDARD
  9
$DIMCLRD
 70
     0
  9
$DIMCLRE
 70
     0
  9
$DIMCLRT
 70
     0
  9
$DIMTFAC
 40
1.0
  9
$DIMGAP
 40
0.625
  9
$DIMJUST
 70
     0
  9
$DIMSD1
 70
     0
  9
$DIMSD2
 70
     0
  9
$DIMTOLJ
 70
     1
  9
$DIMTZIN
 70
     0
  9
$DIMALTZ
 70
     0
  9
$DIMALTTZ
 70
     0
  9
$DIMFIT
 70
     3
  9
$DIMUPT
 70
     0
  9
$DIMUNIT
 70
     8
  9
$DIMDEC
 70
     4
  9
$DIMTDEC
 70
     4
  9
$DIMALTU
 70
     8
  9
$DIMALTTD
 70
     4
  9
$DIMTXSTY
  7
STANDARD
  9
$DIMAUNIT
 70
     0
  9
$LUNITS
 70
     2
  9
$LUPREC
 70
     4
  9
$SKETCHINC
 40
1.0
  9
$FILLETRAD
 40
10.0
  9
$AUNITS
 70
     0
  9
$AUPREC
 70
     0
  9
$MENU
  1
.
  9
$ELEVATION
 40
0.0
  9
$PELEVATION
 40
0.0
  9
$THICKNESS
 40
0.0
  9
$LIMCHECK
 70
     0
  9
$BLIPMODE
 70
     0
  9
$CHAMFERA
 40
10.0
  9
$CHAMFERB
 40
10.0
  9
$CHAMFERC
 40
20.0
  9
$CHAMFERD
 40
0.0
  9
$SKPOLY
 70
     0
  9
$TDCREATE
 40
2452157.023910995
  9
$TDUPDATE
 40
2452157.023910995
  9
$TDINDWG
 40
0.0000000000
  9
$TDUSRTIMER
 40
0.0000000000
  9
$USRTIMER
 70
     1
  9
$ANGBASE
 50
0.0
  9
$ANGDIR
 70
     0
  9
$PDMODE
 70
     0
  9
$PDSIZE
 40
0.0
  9
$PLINEWID
 40
0.0
  9
$COORDS
 70
     1
  9
$SPLFRAME
 70
     0
  9
$SPLINETYPE
 70
     6
  9
$SPLINESEGS
 70
     8
  9
$ATTDIA
 70
     0
  9
$ATTREQ
 70
     1
  9
$HANDLING
 70
     1
  9
$HANDSEED
  5
4B
  9
$SURFTAB1
 70
     6
  9
$SURFTAB2
 70
     6
  9
$SURFTYPE
 70
     6
  9
$SURFU
 70
     6
  9
$SURFV
 70
     6
  9
$UCSNAME
  2

  9
$UCSORG
 10
0.0
 20
0.0
 30
0.0
  9
$UCSXDIR
 10
0.3420201433256687
 20
0.0
 30
-0.9396926207859085
  9
$UCSYDIR
 10
0.0
 20
1.0
 30
0.0
  9
$PUCSNAME
  2

  9
$PUCSORG
 10
0.0
 20
0.0
 30
0.0
  9
$PUCSXDIR
 10
1.0
 20
0.0
 30
0.0
  9
$PUCSYDIR
 10
0.0
 20
1.0
 30
0.0
  9
$USERI1
 70
     0
  9
$USERI2
 70
     0
  9
$USERI3
 70
     0
  9
$USERI4
 70
     0
  9
$USERI5
 70
     0
  9
$USERR1
 40
0.0
  9
$USERR2
 40
0.0
  9
$USERR3
 40
0.0
  9
$USERR4
 40
0.0
  9
$USERR5
 40
0.0
  9
$WORLDVIEW
 70
     1
  9
$SHADEDGE
 70
     3
  9
$SHADEDIF
 70
    70
  9
$TILEMODE
 70
     1
  9
$MAXACTVP
 70
    48
  9
$PINSBASE
 10
0.0
 20
0.0
 30
0.0
  9
$PLIMCHECK
 70
     0
  9
$PEXTMIN
 10
1.000000E+20
 20
1.000000E+20
 30
1.000000E+20
  9
$PEXTMAX
 10
-1.000000E+20
 20
-1.000000E+20
 30
-1.000000E+20
  9
$PLIMMIN
 10
0.0
 20
0.0
  9
$PLIMMAX
 10
420.0
 20
297.0
  9
$UNITMODE
 70
     0
  9
$VISRETAIN
 70
     1
  9
$PLINEGEN
 70
     0
  9
$PSLTSCALE
 70
     1
  9
$TREEDEPTH
 70
  3020
  9
$PICKSTYLE
 70
     1
  9
$CMLSTYLE
  2
STANDARD
  9
$CMLJUST
 70
     0
  9
$CMLSCALE
 40
20.0
  9
$PROXYGRAPHICS
 70
     1
  9
$MEASUREMENT
 70
     1
  0
ENDSEC
  0
SECTION
  2
CLASSES
  0
ENDSEC
  0
SECTION
  2
TABLES
  0
TABLE
  2
VPORT
  5
8
100
AcDbSymbolTable
 70
     2
  0
VPORT
  5
4A
100
AcDbSymbolTableRecord
100
AcDbViewportTableRecord
  2
*ACTIVE
 70
     0
 10
0.0
 20
0.0
 11
1.0
 21
1.0
 12
-69.592477
 22
-6.148788
 13
0.0
 23
0.0
 14
10.0
 24
10.0
 15
10.0
 25
10.0
 16
-1.0
 26
1.0
 36
1.0
 17
0.0
 27
0.0
 37
0.0
 40
136.765323
 41
1.059451
 42
50.0
 43
0.0
 44
0.0
 50
0.0
 51
0.0
 71
     0
 72
   100
 73
     1
 74
     1
 75
     0
 76
     0
 77
     0
 78
     0
  0
ENDTAB
  0
TABLE
  2
LTYPE
  5
5
100
AcDbSymbolTable
 70
     2
  0
LTYPE
  5
12
100
AcDbSymbolTableRecord
100
AcDbLinetypeTableRecord
  2
BYBLOCK
 70
     0
  3

 72
    65
 73
     0
 40
0.0
  0
LTYPE
  5
13
100
AcDbSymbolTableRecord
100
AcDbLinetypeTableRecord
  2
BYLAYER
 70
     0
  3

 72
    65
 73
     0
 40
0.0
  0
LTYPE
  5
14
100
AcDbSymbolTableRecord
100
AcDbLinetypeTableRecord
  2
CONTINUOUS
 70
     0
  3
Solid line
 72
    65
 73
     0
 40
0.0
  0
LTYPE
  5
35
100
AcDbSymbolTableRecord
100
AcDbLinetypeTableRecord
  2
DASHED2
 70
     0
  3
Dashed (.5x) _ _ _ _ _ _ _ _ _ _ _ _ _ _ _ _ _
 72
    65
 73
     2
 40
9.525
 49
6.35
 74
     0
 49
-3.175
 74
     0
  0
ENDTAB
  0
TABLE
  2
LAYER
  5
2
100
AcDbSymbolTable
 70
     1
  0
LAYER
  5
E
100
AcDbSymbolTableRecord
100
AcDbLayerTableRecord
  2
0
 70
     0
 62
     7
  6
CONTINUOUS
  0
ENDTAB
  0
TABLE
  2
STYLE
  5
3
100
AcDbSymbolTable
 70
     2
  0
STYLE
  5
F
100
AcDbSymbolTableRecord
100
AcDbTextStyleTableRecord
  2
STANDARD
 70
     0
 40
0.0
 41
1.0
 50
0.0
 71
     0
 42
2.5
  3
txt
  4

  0
STYLE
  5
34
100
AcDbSymbolTableRecord
100
AcDbTextStyleTableRecord
  2

 70
     1
 40
0.0
 41
1.0
 50
0.0
 71
     0
 42
2.5
  3
ltypeshp.shx
  4

  0
ENDTAB
  0
TABLE
  2
VIEW
  5
6
100
AcDbSymbolTable
 70
     0
  0
ENDTAB
  0
TABLE
  2
UCS
  5
7
100
AcDbSymbolTable
 70
     0
  0
ENDTAB
  0
TABLE
  2
APPID
  5
9
100
AcDbSymbolTable
 70
     1
  0
APPID
  5
10
100
AcDbSymbolTableRecord
100
AcDbRegAppTableRecord
  2
ACAD
 70
     0
  0
ENDTAB
  0
TABLE
  2
DIMSTYLE
  5
A
100
AcDbSymbolTable
 70
     1
  0
DIMSTYLE
105
1D
100
AcDbSymbolTableRecord
100
AcDbDimStyleTableRecord
  2
STANDARD
 70
     0
  3

  4

  5

  6

  7

 40
1.0
 41
0.18
 42
0.0625
 43
0.38
 44
0.18
 45
0.0
 46
0.0
 47
0.0
 48
0.0
140
0.18
141
0.09
142
0.0
143
25.4
144
1.0
145
0.0
146
1.0
147
0.09
 71
     0
 72
     0
 73
     1
 74
     1
 75
     0
 76
     0
 77
     0
 78
     0
170
     0
171
     2
172
     0
173
     0
174
     0
175
     0
176
     0
177
     0
178
     0
270
     2
271
     4
272
     4
273
     2
274
     2
340
F
275
     0
280
     0
281
     0
282
     0
283
     1
284
     0
285
     0
286
     0
287
     3
288
     0
  0
ENDTAB
  0
TABLE
  2
BLOCK_RECORD
  5
1
100
AcDbSymbolTable
 70
     0
  0
BLOCK_RECORD
  5
18
100
AcDbSymbolTableRecord
100
AcDbBlockTableRecord
  2
*MODEL_SPACE
  0
BLOCK_RECORD
  5
15
100
AcDbSymbolTableRecord
100
AcDbBlockTableRecord
  2
*PAPER_SPACE
  0
ENDTAB
  0
ENDSEC
  0
SECTION
  2
BLOCKS
  0
BLOCK
  5
19
100
AcDbEntity
  8
0
100
AcDbBlockBegin
  2
*MODEL_SPACE
 70
     0
 10
0.0
 20
0.0
 30
0.0
  3
*MODEL_SPACE
  1

  0
ENDBLK
  5
1A
100
AcDbEntity
  8
0
100
AcDbBlockEnd
  0
BLOCK
  5
16
100
AcDbEntity
 67
     1
  8
0
100
AcDbBlockBegin
  2
*PAPER_SPACE
 70
     0
 10
0.0
 20
0.0
 30
0.0
  3
*PAPER_SPACE
  1

  0
ENDBLK
  5
17
100
AcDbEntity
 67
     1
  8
0
100
AcDbBlockEnd
  0
ENDSEC
  0
SECTION
  2
ENTITIES
    0
LINE
  5
500
100
AcDbEntity
  8
0
  6
DASHED2
 62
     1
100
AcDbLine
 10
700
 20
0
 30
10
 11
398.23
 21
0
 31
2.9
  0
LINE
  5
501
100
AcDbEntity
  8
0
  6
ByLayer
 62
     0
100
AcDbLine
 10
398.23
 20
0
 30
2.9
 11
321.159
 21
0
 31
2.9
  0
ARC
  5
502
100
AcDbEntity
  8
0
100
AcDbCircle
 10
319.471
 20
0.3
 30
0
 40
3.09989
210
0
220
1
230
0
100
AcDbArc
 50
270
 51
302.993
  0
LINE
  5
503
100
AcDbEntity
  8
0
  6
ByLayer
 62
     0
100
AcDbLine
 10
319.471
 20
0
 30
3.4
 11
296.85
 21
0
 31
3.4
  0
LINE
  5
504
100
AcDbEntity
  8
0
  6
DASHED2
 62
     1
100
AcDbLine
 10
296.85
 20
0
 30
3.4
 11
296.85
 21
0
 31
4.4
  0
LINE
  5
505
100
AcDbEntity
  8
0
  6
DASHED2
 62
     1
100
AcDbLine
 10
296.85
 20
0
 30
4.4
 11
398.23
 21
0
 31
4.4
  0
LINE
  5
506
100
AcDbEntity
  8
0
  6
DASHED2
 62
     1
100
AcDbLine
 10
398.23
 20
0
 30
4.4
 11
398.23
 21
0
 31
-0.2
  0
LINE
  5
507
100
AcDbEntity
  8
0
  6
ByLayer
 62
     0
100
AcDbLine
 10
398.23
 20
0
 30
-0.2
 11
319.918
 21
0
 31
-0.2
  0
LINE
  5
508
100
AcDbEntity
  8
0
  6
ByLayer
 62
     0
100
AcDbLine
 10
319.918
 20
0
 30
-0.2
 11
319.471
 21
0
 31
0.3
  0
LINE
  5
509
100
AcDbEntity
  8
0
  6
ByLayer
 62
     0
100
AcDbLine
 10
319.471
 20
0
 30
0.3
 11
296.85
 21
0
 31
0.3
  0
LINE
  5
510
100
AcDbEntity
  8
0
  6
DASHED2
 62
     1
100
AcDbLine
 10
296.85
 20
0
 30
0.3
 11
410
 21
0
 31
3
  0
LINE
  5
511
100
AcDbEntity
  8
0
  6
DASHED2
 62
     1
100
AcDbLine
 10
410
 20
0
 30
3
 11
408.451
 21
0
 31
-60.928
  0
LINE
  5
512
100
AcDbEntity
  8
0
  6
ByLayer
 62
     0
100
AcDbLine
 10
408.451
 20
0
 30
-60.928
 11
400.3
 21
0
 31
-60.928
  0
LINE
  5
513
100
AcDbEntity
  8
0
  6
ByLayer
 62
     0
100
AcDbLine
 10
400.3
 20
0
 30
-60.928
 11
400.3
 21
0
 31
-57.042
  0
LINE
  5
514
100
AcDbEntity
  8
0
  6
ByLayer
 62
     0
100
AcDbLine
 10
400.3
 20
0
 30
-57.042
 11
401.149
 21
0
 31
-56.194
  0
LINE
  5
515
100
AcDbEntity
  8
0
  6
DASHED2
 62
     1
100
AcDbLine
 10
401.149
 20
0
 30
-56.194
 11
557
 21
0
 31
-56.194
  0
LINE
  5
516
100
AcDbEntity
  8
0
  6
DASHED2
 62
     1
100
AcDbLine
 10
557
 20
0
 30
-56.194
 11
557
 21
0
 31
-64.814
  0
LINE
  5
517
100
AcDbEntity
  8
0
  6
ByLayer
 62
     0
100
AcDbLine
 10
557
 20
0
 30
-64.814
 11
400.3
 21
0
 31
-64.814
  0
LINE
  5
518
100
AcDbEntity
  8
0
  6
ByLayer
 62
     0
100
AcDbLine
 10
400.3
 20
0
 30
-64.814
 11
400.3
 21
0
 31
-60.928
  0
LINE
  5
519
100
AcDbEntity
  8
0
  6
ByLayer
 62
     0
100
AcDbLine
 10
400.3
 20
0
 30
-60.928
 11
401.149
 21
0
 31
-60.08
  0
LINE
  5
520
100
AcDbEntity
  8
0
  6
DASHED2
 62
     1
100
AcDbLine
 10
401.149
 20
0
 30
-60.08
 11
557
 21
0
 31
-60.08
  0
LINE
  5
521
100
AcDbEntity
  8
0
  6
DASHED2
 62
     1
100
AcDbLine
 10
557
 20
0
 30
-60.08
 11
557
 21
0
 31
-68.7
  0
LINE
  5
522
100
AcDbEntity
  8
0
  6
ByLayer
 62
     0
100
AcDbLine
 10
557
 20
0
 30
-68.7
 11
400.3
 21
0
 31
-68.7
  0
LINE
  5
523
100
AcDbEntity
  8
0
  6
ByLayer
 62
     0
100
AcDbLine
 10
400.3
 20
0
 30
-68.7
 11
400.3
 21
0
 31
-64.814
  0
LINE
  5
524
100
AcDbEntity
  8
0
  6
ByLayer
 62
     0
100
AcDbLine
 10
400.3
 20
0
 30
-64.814
 11
401.149
 21
0
 31
-63.966
  0
LINE
  5
525
100
AcDbEntity
  8
0
  6
DASHED2
 62
     1
100
AcDbLine
 10
401.149
 20
0
 30
-63.966
 11
401.149
 21
0
 31
-46.311
  0
LINE
  5
526
100
AcDbEntity
  8
0
  6
DASHED2
 62
     1
100
AcDbLine
 10
401.149
 20
0
 30
-46.311
 11
396.71
 21
0
 31
-46.311
  0
LINE
  5
527
100
AcDbEntity
  8
0
  6
DASHED2
 62
     1
100
AcDbLine
 10
396.71
 20
0
 30
-46.311
 11
396.71
 21
0
 31
-48.511
  0
LINE
  5
528
100
AcDbEntity
  8
0
  6
ByLayer
 62
     0
100
AcDbLine
 10
396.71
 20
0
 30
-48.511
 11
396.71
 21
0
 31
-68.582
  0
ARC
  5
529
100
AcDbEntity
  8
0
100
AcDbCircle
 10
398.8
 20
-50.2
 30
0
 40
18.5004
210
0
220
1
230
0
100
AcDbArc
 50
270
 51
263.513
  0
LINE
  5
530
100
AcDbEntity
  8
0
  6
ByLayer
 62
     0
100
AcDbLine
 10
398.8
 20
0
 30
-68.7
 11
400.3
 21
0
 31
-68.7
  0
LINE
  5
531
100
AcDbEntity
  8
0
  6
ByLayer
 62
     0
100
AcDbLine
 10
400.3
 20
0
 30
-68.7
 11
401.149
 21
0
 31
-67.851
  0
LINE
  5
532
100
AcDbEntity
  8
0
  6
DASHED2
 62
     1
100
AcDbLine
 10
401.149
 20
0
 30
-67.851
 11
401.149
 21
0
 31
2.8
  0
LINE
  5
533
100
AcDbEntity
  8
0
  6
DASHED2
 62
     1
100
AcDbLine
 10
401.149
 20
0
 30
2.8
 11
393.12
 21
0
 31
2.8
  0
LINE
  5
534
100
AcDbEntity
  8
0
  6
ByLayer
 62
     0
100
AcDbLine
 10
393.12
 20
0
 30
2.8
 11
393.12
 21
0
 31
-67.806
  0
ARC
  5
535
100
AcDbEntity
  8
0
100
AcDbCircle
 10
398.8
 20
-50.2
 30
0
 40
18.4996
210
0
220
1
230
0
100
AcDbArc
 50
263.513
 51
252.119
  0
LINE
  5
536
100
AcDbEntity
  8
0
  6
ByLayer
 62
     0
100
AcDbLine
 10
396.71
 20
0
 30
-68.582
 11
397.559
 21
0
 31
-67.733
  0
LINE
  5
537
100
AcDbEntity
  8
0
  6
DASHED2
 62
     1
100
AcDbLine
 10
397.559
 20
0
 30
-67.733
 11
397.559
 21
0
 31
2.8
  0
LINE
  5
538
100
AcDbEntity
  8
0
  6
DASHED2
 62
     1
100
AcDbLine
 10
397.559
 20
0
 30
2.8
 11
389.53
 21
0
 31
2.8
  0
LINE
  5
539
100
AcDbEntity
  8
0
  6
ByLayer
 62
     0
100
AcDbLine
 10
389.53
 20
0
 30
2.8
 11
389.53
 21
0
 31
-66.21
  0
ARC
  5
540
100
AcDbEntity
  8
0
100
AcDbCircle
 10
398.8
 20
-50.2
 30
0
 40
18.5001
210
0
220
1
230
0
100
AcDbArc
 50
252.119
 51
239.929
  0
LINE
  5
541
100
AcDbEntity
  8
0
  6
ByLayer
 62
     0
100
AcDbLine
 10
393.12
 20
0
 30
-67.806
 11
393.969
 21
0
 31
-66.958
  0
LINE
  5
542
100
AcDbEntity
  8
0
  6
DASHED2
 62
     1
100
AcDbLine
 10
393.969
 20
0
 30
-66.958
 11
551
 21
0
 31
-65.7
  0
LINE
  5
543
100
AcDbEntity
  8
0
  6
ByLayer
 62
     0
100
AcDbLine
 10
551
 20
0
 30
-65.7
 11
551
 21
0
 31
-179.4
  0
LINE
  5
544
100
AcDbEntity
  8
0
  6
DASHED2
 62
     1
100
AcDbLine
 10
551
 20
0
 30
-179.4
 11
552
 21
0
 31
-179.4
  0
LINE
  5
545
100
AcDbEntity
  8
0
  6
DASHED2
 62
     1
100
AcDbLine
 10
552
 20
0
 30
-179.4
 11
552
 21
0
 31
-65.7
  0
LINE
  5
546
100
AcDbEntity
  8
0
  6
DASHED2
 62
     1
100
AcDbLine
 10
552
 20
0
 30
-65.7
 11
548
 21
0
 31
-65.7
  0
LINE
  5
547
100
AcDbEntity
  8
0
  6
ByLayer
 62
     0
100
AcDbLine
 10
548
 20
0
 30
-65.7
 11
548
 21
0
 31
-179.4
  0
LINE
  5
548
100
AcDbEntity
  8
0
  6
DASHED2
 62
     1
100
AcDbLine
 10
548
 20
0
 30
-179.4
 11
600
 21
0
 31
0
  0
LINE
  5
549
100
AcDbEntity
  8
0
  6
DASHED2
 62
     1
100
AcDbLine
 10
600
 20
0
 30
0
 11
306.312
 21
0
 31
2.421
  0
LINE
  5
550
100
AcDbEntity
  8
0
  6
ByLayer
 62
     0
100
AcDbLine
 10
306.312
 20
0
 30
2.421
 11
303.844
 21
0
 31
-0.047
  0
ARC
  5
551
100
AcDbEntity
  8
0
100
AcDbCircle
 10
306.5
 20
-2.703
 30
0
 40
3.75615
210
0
220
1
230
0
100
AcDbArc
 50
180
 51
225
  0
LINE
  5
552
100
AcDbEntity
  8
0
  6
ByLayer
 62
     0
100
AcDbLine
 10
302.744
 20
0
 30
-2.703
 11
302.744
 21
0
 31
-7.441
  0
ARC
  5
553
100
AcDbEntity
  8
0
100
AcDbCircle
 10
305.25
 20
-10.239
 30
0
 40
3.75617
210
0
220
1
230
0
100
AcDbArc
 50
180
 51
228.151
  0
LINE
  5
554
100
AcDbEntity
  8
0
  6
ByLayer
 62
     0
100
AcDbLine
 10
301.494
 20
0
 30
-10.239
 11
301.494
 21
0
 31
-252.9
  0
LINE
  5
555
100
AcDbEntity
  8
0
  6
DASHED2
 62
     1
100
AcDbLine
 10
301.494
 20
0
 30
-252.9
 11
300.494
 21
0
 31
-252.9
  0
LINE
  5
556
100
AcDbEntity
  8
0
  6
DASHED2
 62
     1
100
AcDbLine
 10
300.494
 20
0
 30
-252.9
 11
300.494
 21
0
 31
3.3
  0
LINE
  5
557
100
AcDbEntity
  8
0
  6
DASHED2
 62
     1
100
AcDbLine
 10
300.494
 20
0
 30
3.3
 11
308.9
 21
0
 31
3.3
  0
LINE
  5
558
100
AcDbEntity
  8
0
  6
ByLayer
 62
     0
100
AcDbLine
 10
308.9
 20
0
 30
3.3
 11
308.9
 21
0
 31
-0.306
  0
LINE
  5
559
100
AcDbEntity
  8
0
  6
ByLayer
 62
     0
100
AcDbLine
 10
308.9
 20
0
 30
-0.306
 11
308.875
 21
0
 31
-0.328
  0
LINE
  5
560
100
AcDbEntity
  8
0
  6
ByLayer
 62
     0
100
AcDbLine
 10
308.875
 20
0
 30
-0.328
 11
306.5
 21
0
 31
-2.703
  0
LINE
  5
561
100
AcDbEntity
  8
0
  6
ByLayer
 62
     0
100
AcDbLine
 10
306.5
 20
0
 30
-2.703
 11
306.5
 21
0
 31
-9.638
  0
ARC
  5
562
100
AcDbEntity
  8
0
100
AcDbCircle
 10
306.1
 20
-9.638
 30
0
 40
0.4
210
0
220
1
230
0
100
AcDbArc
 50
360
 51
282.544
  0
LINE
  5
563
100
AcDbEntity
  8
0
  6
ByLayer
 62
     0
100
AcDbLine
 10
306.187
 20
0
 30
-10.029
 11
305.25
 21
0
 31
-10.239
  0
LINE
  5
564
100
AcDbEntity
  8
0
  6
ByLayer
 62
     0
100
AcDbLine
 10
305.25
 20
0
 30
-10.239
 11
305.25
 21
0
 31
-252.9
  0
LINE
  5
565
100
AcDbEntity
  8
0
  6
DASHED2
 62
     1
100
AcDbLine
 10
305.25
 20
0
 30
-252.9
 11
300
 21
0
 31
20
  0
LINE
  5
566
100
AcDbEntity
  8
0
  6
DASHED2
 62
     1
100
AcDbLine
 10
300
 20
0
 30
20
 11
390.154
 21
0
 31
-0.5
  0
LINE
  5
567
100
AcDbEntity
  8
0
  6
ByLayer
 62
     0
100
AcDbLine
 10
390.154
 20
0
 30
-0.5
 11
389.354
 21
0
 31
-0.5
  0
LINE
  5
568
100
AcDbEntity
  8
0
  6
ByLayer
 62
     0
100
AcDbLine
 10
389.354
 20
0
 30
-0.5
 11
320.066
 21
0
 31
-0.5
  0
ARC
  5
569
100
AcDbEntity
  8
0
100
AcDbCircle
 10
320.066
 20
-0.3
 30
0
 40
0.2
210
0
220
1
230
0
100
AcDbArc
 50
270
 51
216.87
  0
ARC
  5
570
100
AcDbEntity
  8
0
100
AcDbCircle
 10
319.066
 20
-1.05
 30
0
 40
1.05
210
0
220
1
230
0
100
AcDbArc
 50
270
 51
323.13
  0
LINE
  5
571
100
AcDbEntity
  8
0
  6
ByLayer
 62
     0
100
AcDbLine
 10
319.066
 20
0
 30
0
 11
307.318
 21
0
 31
0
  0
LINE
  5
572
100
AcDbEntity
  8
0
  6
ByLayer
 62
     0
100
AcDbLine
 10
307.318
 20
0
 30
0
 11
307.318
 21
0
 31
0.8
  0
LINE
  5
573
100
AcDbEntity
  8
0
  6
DASHED2
 62
     1
100
AcDbLine
 10
307.318
 20
0
 30
0.8
 11
548
 21
0
 31
0.8
  0
LINE
  5
574
100
AcDbEntity
  8
0
  6
DASHED2
 62
     1
100
AcDbLine
 10
548
 20
0
 30
0.8
 11
548
 21
0
 31
-70.85
  0
LINE
  5
575
100
AcDbEntity
  8
0
  6
ByLayer
 62
     0
100
AcDbLine
 10
548
 20
0
 30
-70.85
 11
548
 21
0
 31
-70.05
  0
ARC
  5
576
100
AcDbEntity
  8
0
100
AcDbCircle
 10
546.95
 20
-70.05
 30
0
 40
1.05
210
0
220
1
230
0
100
AcDbArc
 50
270
 51
360
  0
LINE
  5
577
100
AcDbEntity
  8
0
  6
ByLayer
 62
     0
100
AcDbLine
 10
546.95
 20
0
 30
-69
 11
400
 21
0
 31
-69
  0
LINE
  5
578
100
AcDbEntity
  8
0
  6
ByLayer
 62
     0
100
AcDbLine
 10
400
 20
0
 30
-69
 11
400
 21
0
 31
-68.7
  0
LINE
  5
579
100
AcDbEntity
  8
0
  6
ByLayer
 62
     0
100
AcDbLine
 10
400
 20
0
 30
-68.7
 11
400.8
 21
0
 31
-68.7
  0
LINE
  5
580
100
AcDbEntity
  8
0
  6
DASHED2
 62
     1
100
AcDbLine
 10
400.8
 20
0
 30
-68.7
 11
400.8
 21
0
 31
3
  0
LINE
  5
581
100
AcDbEntity
  8
0
  6
DASHED2
 62
     1
100
AcDbLine
 10
400.8
 20
0
 30
3
 11
389.35
 21
0
 31
3
  0
LINE
  5
582
100
AcDbEntity
  8
0
  6
ByLayer
 62
     0
100
AcDbLine
 10
389.35
 20
0
 30
3
 11
389.35
 21
0
 31
-10
  0
LINE
  5
583
100
AcDbEntity
  8
0
  6
DASHED2
 62
     1
100
AcDbLine
 10
389.35
 20
0
 30
-10
 11
389.35
 21
0
 31
30
  0
LINE
  5
584
100
AcDbEntity
  8
0
  6
DASHED2
 62
     1
100
AcDbLine
 10
389.35
 20
0
 30
30
 11
389.23
 21
0
 31
0.124
  0
LINE
  5
585
100
AcDbEntity
  8
0
  6
ByLayer
 62
     0
100
AcDbLine
 10
389.23
 20
0
 30
0.124
 11
389.23
 21
0
 31
-0.676
  0
LINE
  5
586
100
AcDbEntity
  8
0
  6
ByLayer
 62
     0
100
AcDbLine
 10
389.23
 20
0
 30
-0.676
 11
389.23
 21
0
 31
-43.5
  0
LINE
  5
587
100
AcDbEntity
  8
0
  6
ByLayer
 62
     0
100
AcDbLine
 10
389.23
 20
0
 30
-43.5
 11
389.53
 21
0
 31
-43.5
  0
LINE
  5
588
100
AcDbEntity
  8
0
  6
ByLayer
 62
     0
100
AcDbLine
 10
389.53
 20
0
 30
-43.5
 11
389.53
 21
0
 31
-42.7
  0
LINE
  5
589
100
AcDbEntity
  8
0
  6
DASHED2
 62
     1
100
AcDbLine
 10
389.53
 20
0
 30
-42.7
 11
500
 21
0
 31
0
  0
LINE
  5
590
100
AcDbEntity
  8
0
  6
DASHED2
 62
     1
100
AcDbLine
 10
500
 20
0
 30
0
 11
392.23
 21
0
 31
-18.7
  0
LINE
  5
591
100
AcDbEntity
  8
0
  6
ByLayer
 62
     0
100
AcDbLine
 10
392.23
 20
0
 30
-18.7
 11
389.113
 21
0
 31
-18.7
  0
LINE
  5
592
100
AcDbEntity
  8
0
  6
DASHED2
 62
     1
100
AcDbLine
 10
389.113
 20
0
 30
-18.7
 11
392.23
 21
0
 31
-18.7
  0
LINE
  5
593
100
AcDbEntity
  8
0
  6
DASHED2
 62
     1
100
AcDbLine
 10
392.23
 20
0
 30
-18.7
 11
392.23
 21
0
 31
-18.5
  0
LINE
  5
594
100
AcDbEntity
  8
0
  6
ByLayer
 62
     0
100
AcDbLine
 10
392.23
 20
0
 30
-18.5
 11
386.03
 21
0
 31
-18.5
  0
LINE
  5
595
100
AcDbEntity
  8
0
  6
DASHED2
 62
     1
100
AcDbLine
 10
386.03
 20
0
 30
-18.5
 11
390.113
 21
0
 31
-18.5
  0
LINE
  5
596
100
AcDbEntity
  8
0
  6
DASHED2
 62
     1
100
AcDbLine
 10
390.113
 20
0
 30
-18.5
 11
390.113
 21
0
 31
-18.7
  0
LINE
  5
597
100
AcDbEntity
  8
0
  6
DASHED2
 62
     1
100
AcDbLine
 10
390.113
 20
0
 30
-18.7
 11
389.113
 21
0
 31
-18.7
  0
LINE
  5
598
100
AcDbEntity
  8
0
  6
ByLayer
 62
     0
100
AcDbLine
 10
389.113
 20
0
 30
-18.7
 11
389.059
 21
0
 31
-18.646
  0
ARC
  5
599
100
AcDbEntity
  8
0
100
AcDbCircle
 10
388.706
 20
-19
 30
0
 40
0.499925
210
0
220
1
230
0
100
AcDbArc
 50
270
 51
314.919
  0
LINE
  5
600
100
AcDbEntity
  8
0
  6
ByLayer
 62
     0
100
AcDbLine
 10
388.706
 20
0
 30
-18.5
 11
386.03
 21
0
 31
-18.5
  0
LINE
  5
601
100
AcDbEntity
  8
0
  6
DASHED2
 62
     1
100
AcDbLine
 10
386.03
 20
0
 30
-18.5
 11
392.23
 21
0
 31
-18.5
  0
LINE
  5
602
100
AcDbEntity
  8
0
  6
DASHED2
 62
     1
100
AcDbLine
 10
392.23
 20
0
 30
-18.5
 11
392.23
 21
0
 31
-15
  0
LINE
  5
603
100
AcDbEntity
  8
0
  6
ByLayer
 62
     0
100
AcDbLine
 10
392.23
 20
0
 30
-15
 11
385.73
 21
0
 31
-15
  0
LINE
  5
604
100
AcDbEntity
  8
0
  6
DASHED2
 62
     1
100
AcDbLine
 10
385.73
 20
0
 30
-15
 11
387.03
 21
0
 31
-15
  0
LINE
  5
605
100
AcDbEntity
  8
0
  6
DASHED2
 62
     1
100
AcDbLine
 10
387.03
 20
0
 30
-15
 11
387.03
 21
0
 31
-18.5
  0
LINE
  5
606
100
AcDbEntity
  8
0
  6
DASHED2
 62
     1
100
AcDbLine
 10
387.03
 20
0
 30
-18.5
 11
386.03
 21
0
 31
-18.5
  0
ARC
  5
607
100
AcDbEntity
  8
0
100
AcDbCircle
 10
386.03
 20
-18.2
 30
0
 40
0.3
210
0
220
1
230
0
100
AcDbArc
 50
270
 51
180
  0
LINE
  5
608
100
AcDbEntity
  8
0
  6
ByLayer
 62
     0
100
AcDbLine
 10
385.73
 20
0
 30
-18.2
 11
385.73
 21
0
 31
-15
  0
LINE
  5
609
100
AcDbEntity
  8
0
  6
DASHED2
 62
     1
100
AcDbLine
 10
385.73
 20
0
 30
-15
 11
392.23
 21
0
 31
-15
  0
LINE
  5
610
100
AcDbEntity
  8
0
  6
DASHED2
 62
     1
100
AcDbLine
 10
392.23
 20
0
 30
-15
 11
392.23
 21
0
 31
-11.5
  0
LINE
  5
611
100
AcDbEntity
  8
0
  6
ByLayer
 62
     0
100
AcDbLine
 10
392.23
 20
0
 30
-11.5
 11
386.03
 21
0
 31
-11.5
  0
ARC
  5
612
100
AcDbEntity
  8
0
100
AcDbCircle
 10
386.03
 20
-11.8
 30
0
 40
0.3
210
0
220
1
230
0
100
AcDbArc
 50
180
 51
270
  0
LINE
  5
613
100
AcDbEntity
  8
0
  6
ByLayer
 62
     0
100
AcDbLine
 10
385.73
 20
0
 30
-11.8
 11
385.73
 21
0
 31
-15
  0
LINE
  5
614
100
AcDbEntity
  8
0
  6
DASHED2
 62
     1
100
AcDbLine
 10
385.73
 20
0
 30
-15
 11
392.23
 21
0
 31
-15
  0
LINE
  5
615
100
AcDbEntity
  8
0
  6
DASHED2
 62
     1
100
AcDbLine
 10
392.23
 20
0
 30
-15
 11
392.23
 21
0
 31
-11.3
  0
LINE
  5
616
100
AcDbEntity
  8
0
  6
ByLayer
 62
     0
100
AcDbLine
 10
392.23
 20
0
 30
-11.3
 11
389.113
 21
0
 31
-11.3
  0
LINE
  5
617
100
AcDbEntity
  8
0
  6
ByLayer
 62
     0
100
AcDbLine
 10
389.113
 20
0
 30
-11.3
 11
389.059
 21
0
 31
-11.354
  0
ARC
  5
618
100
AcDbEntity
  8
0
100
AcDbCircle
 10
388.706
 20
-11
 30
0
 40
0.499925
210
0
220
1
230
0
100
AcDbArc
 50
314.919
 51
270
  0
LINE
  5
619
100
AcDbEntity
  8
0
  6
ByLayer
 62
     0
100
AcDbLine
 10
388.706
 20
0
 30
-11.5
 11
386.03
 21
0
 31
-11.5
  0
LINE
  5
620
100
AcDbEntity
  8
0
  6
DASHED2
 62
     1
100
AcDbLine
 10
386.03
 20
0
 30
-11.5
 11
392.23
 21
0
 31
-11.5
  0
LINE
  5
621
100
AcDbEntity
  8
0
  6
DASHED2
 62
     1
100
AcDbLine
 10
392.23
 20
0
 30
-11.5
 11
392.23
 21
0
 31
-36.7
  0
LINE
  5
622
100
AcDbEntity
  8
0
  6
ByLayer
 62
     0
100
AcDbLine
 10
392.23
 20
0
 30
-36.7
 11
389.113
 21
0
 31
-36.7
  0
LINE
  5
623
100
AcDbEntity
  8
0
  6
DASHED2
 62
     1
100
AcDbLine
 10
389.113
 20
0
 30
-36.7
 11
392.23
 21
0
 31
-36.7
  0
LINE
  5
624
100
AcDbEntity
  8
0
  6
DASHED2
 62
     1
100
AcDbLine
 10
392.23
 20
0
 30
-36.7
 11
392.23
 21
0
 31
-36.5
  0
LINE
  5
625
100
AcDbEntity
  8
0
  6
ByLayer
 62
     0
100
AcDbLine
 10
392.23
 20
0
 30
-36.5
 11
386.03
 21
0
 31
-36.5
  0
LINE
  5
626
100
AcDbEntity
  8
0
  6
DASHED2
 62
     1
100
AcDbLine
 10
386.03
 20
0
 30
-36.5
 11
390.113
 21
0
 31
-36.5
  0
LINE
  5
627
100
AcDbEntity
  8
0
  6
DASHED2
 62
     1
100
AcDbLine
 10
390.113
 20
0
 30
-36.5
 11
390.113
 21
0
 31
-36.7
  0
LINE
  5
628
100
AcDbEntity
  8
0
  6
DASHED2
 62
     1
100
AcDbLine
 10
390.113
 20
0
 30
-36.7
 11
389.113
 21
0
 31
-36.7
  0
LINE
  5
629
100
AcDbEntity
  8
0
  6
ByLayer
 62
     0
100
AcDbLine
 10
389.113
 20
0
 30
-36.7
 11
389.059
 21
0
 31
-36.646
  0
ARC
  5
630
100
AcDbEntity
  8
0
100
AcDbCircle
 10
388.706
 20
-37
 30
0
 40
0.499925
210
0
220
1
230
0
100
AcDbArc
 50
270
 51
314.919
  0
LINE
  5
631
100
AcDbEntity
  8
0
  6
ByLayer
 62
     0
100
AcDbLine
 10
388.706
 20
0
 30
-36.5
 11
386.03
 21
0
 31
-36.5
  0
LINE
  5
632
100
AcDbEntity
  8
0
  6
DASHED2
 62
     1
100
AcDbLine
 10
386.03
 20
0
 30
-36.5
 11
392.23
 21
0
 31
-36.5
  0
LINE
  5
633
100
AcDbEntity
  8
0
  6
DASHED2
 62
     1
100
AcDbLine
 10
392.23
 20
0
 30
-36.5
 11
392.23
 21
0
 31
-33
  0
LINE
  5
634
100
AcDbEntity
  8
0
  6
ByLayer
 62
     0
100
AcDbLine
 10
392.23
 20
0
 30
-33
 11
385.73
 21
0
 31
-33
  0
LINE
  5
635
100
AcDbEntity
  8
0
  6
DASHED2
 62
     1
100
AcDbLine
 10
385.73
 20
0
 30
-33
 11
387.03
 21
0
 31
-33
  0
LINE
  5
636
100
AcDbEntity
  8
0
  6
DASHED2
 62
     1
100
AcDbLine
 10
387.03
 20
0
 30
-33
 11
387.03
 21
0
 31
-36.5
  0
LINE
  5
637
100
AcDbEntity
  8
0
  6
DASHED2
 62
     1
100
AcDbLine
 10
387.03
 20
0
 30
-36.5
 11
386.03
 21
0
 31
-36.5
  0
ARC
  5
638
100
AcDbEntity
  8
0
100
AcDbCircle
 10
386.03
 20
-36.2
 30
0
 40
0.3
210
0
220
1
230
0
100
AcDbArc
 50
270
 51
180
  0
LINE
  5
639
100
AcDbEntity
  8
0
  6
ByLayer
 62
     0
100
AcDbLine
 10
385.73
 20
0
 30
-36.2
 11
385.73
 21
0
 31
-33
  0
LINE
  5
640
100
AcDbEntity
  8
0
  6
DASHED2
 62
     1
100
AcDbLine
 10
385.73
 20
0
 30
-33
 11
392.23
 21
0
 31
-33
  0
LINE
  5
641
100
AcDbEntity
  8
0
  6
DASHED2
 62
     1
100
AcDbLine
 10
392.23
 20
0
 30
-33
 11
392.23
 21
0
 31
-29.5
  0
LINE
  5
642
100
AcDbEntity
  8
0
  6
ByLayer
 62
     0
100
AcDbLine
 10
392.23
 20
0
 30
-29.5
 11
386.03
 21
0
 31
-29.5
  0
ARC
  5
643
100
AcDbEntity
  8
0
100
AcDbCircle
 10
386.03
 20
-29.8
 30
0
 40
0.3
210
0
220
1
230
0
100
AcDbArc
 50
180
 51
270
  0
LINE
  5
644
100
AcDbEntity
  8
0
  6
ByLayer
 62
     0
100
AcDbLine
 10
385.73
 20
0
 30
-29.8
 11
385.73
 21
0
 31
-33
  0
LINE
  5
645
100
AcDbEntity
  8
0
  6
DASHED2
 62
     1
100
AcDbLine
 10
385.73
 20
0
 30
-33
 11
392.23
 21
0
 31
-33
  0
LINE
  5
646
100
AcDbEntity
  8
0
  6
DASHED2
 62
     1
100
AcDbLine
 10
392.23
 20
0
 30
-33
 11
392.23
 21
0
 31
-29.3
  0
LINE
  5
647
100
AcDbEntity
  8
0
  6
ByLayer
 62
     0
100
AcDbLine
 10
392.23
 20
0
 30
-29.3
 11
389.113
 21
0
 31
-29.3
  0
LINE
  5
648
100
AcDbEntity
  8
0
  6
ByLayer
 62
     0
100
AcDbLine
 10
389.113
 20
0
 30
-29.3
 11
389.059
 21
0
 31
-29.354
  0
ARC
  5
649
100
AcDbEntity
  8
0
100
AcDbCircle
 10
388.706
 20
-29
 30
0
 40
0.499925
210
0
220
1
230
0
100
AcDbArc
 50
314.919
 51
270
  0
LINE
  5
650
100
AcDbEntity
  8
0
  6
ByLayer
 62
     0
100
AcDbLine
 10
388.706
 20
0
 30
-29.5
 11
386.03
 21
0
 31
-29.5
  0
LINE
  5
651
100
AcDbEntity
  8
0
  6
DASHED2
 62
     1
100
AcDbLine
 10
386.03
 20
0
 30
-29.5
 11
392.53
 21
0
 31
-29.5
  0
LINE
  5
652
100
AcDbEntity
  8
0
  6
DASHED2
 62
     1
100
AcDbLine
 10
392.53
 20
0
 30
-29.5
 11
392.53
 21
0
 31
-49
  0
LINE
  5
653
100
AcDbEntity
  8
0
  6
ByLayer
 62
     0
100
AcDbLine
 10
392.53
 20
0
 30
-49
 11
380.025
 21
0
 31
-49
  0
LINE
  5
654
100
AcDbEntity
  8
0
  6
DASHED2
 62
     1
100
AcDbLine
 10
380.025
 20
0
 30
-49
 11
392.53
 21
0
 31
-49
  0
LINE
  5
655
100
AcDbEntity
  8
0
  6
DASHED2
 62
     1
100
AcDbLine
 10
392.53
 20
0
 30
-49
 11
392.53
 21
0
 31
-47.5
  0
LINE
  5
656
100
AcDbEntity
  8
0
  6
ByLayer
 62
     0
100
AcDbLine
 10
392.53
 20
0
 30
-47.5
 11
381.8
 21
0
 31
-47.5
  0
ARC
  5
657
100
AcDbEntity
  8
0
100
AcDbCircle
 10
381.8
 20
-49.3
 30
0
 40
1.8
210
0
220
1
230
0
100
AcDbArc
 50
189.593
 51
270
  0
LINE
  5
658
100
AcDbEntity
  8
0
  6
DASHED2
 62
     1
100
AcDbLine
 10
380.025
 20
0
 30
-49
 11
392.53
 21
0
 31
-49
  0
LINE
  5
659
100
AcDbEntity
  8
0
  6
DASHED2
 62
     1
100
AcDbLine
 10
392.53
 20
0
 30
-49
 11
392.53
 21
0
 31
-47.3
  0
LINE
  5
660
100
AcDbEntity
  8
0
  6
ByLayer
 62
     0
100
AcDbLine
 10
392.53
 20
0
 30
-47.3
 11
389.113
 21
0
 31
-47.3
  0
LINE
  5
661
100
AcDbEntity
  8
0
  6
ByLayer
 62
     0
100
AcDbLine
 10
389.113
 20
0
 30
-47.3
 11
389.059
 21
0
 31
-47.354
  0
ARC
  5
662
100
AcDbEntity
  8
0
100
AcDbCircle
 10
388.706
 20
-47
 30
0
 40
0.499925
210
0
220
1
230
0
100
AcDbArc
 50
314.919
 51
270
  0
LINE
  5
663
100
AcDbEntity
  8
0
  6
ByLayer
 62
     0
100
AcDbLine
 10
388.706
 20
0
 30
-47.5
 11
381.8
 21
0
 31
-47.5
  0
LINE
  5
664
100
AcDbEntity
  8
0
  6
DASHED2
 62
     1
100
AcDbLine
 10
381.8
 20
0
 30
-47.5
 11
500
 21
0
 31
-47.5
  0
LINE
  5
665
100
AcDbEntity
  8
0
  6
DASHED2
 62
     1
100
AcDbLine
 10
500
 20
0
 30
-47.5
 11
396.312
 21
0
 31
-51.824
  0
LINE
  5
666
100
AcDbEntity
  8
0
  6
ByLayer
 62
     0
100
AcDbLine
 10
396.312
 20
0
 30
-51.824
 11
393.417
 21
0
 31
-52.994
  0
LINE
  5
667
100
AcDbEntity
  8
0
  6
ByLayer
 62
     0
100
AcDbLine
 10
393.417
 20
0
 30
-52.994
 11
393.53
 21
0
 31
-53.175
  0
LINE
  5
668
100
AcDbEntity
  8
0
  6
DASHED2
 62
     1
100
AcDbLine
 10
393.53
 20
0
 30
-53.175
 11
395.536
 21
0
 31
-53.175
  0
LINE
  5
669
100
AcDbEntity
  8
0
  6
DASHED2
 62
     1
100
AcDbLine
 10
395.536
 20
0
 30
-53.175
 11
395.536
 21
0
 31
-57.047
  0
LINE
  5
670
100
AcDbEntity
  8
0
  6
ByLayer
 62
     0
100
AcDbLine
 10
395.536
 20
0
 30
-57.047
 11
393.53
 21
0
 31
-54.816
  0
ARC
  5
671
100
AcDbEntity
  8
0
100
AcDbCircle
 10
400
 20
-49
 30
0
 40
8.69981
210
0
220
1
230
0
100
AcDbArc
 50
221.953
 51
203.557
  0
LINE
  5
672
100
AcDbEntity
  8
0
  6
ByLayer
 62
     0
100
AcDbLine
 10
392.025
 20
0
 30
-52.477
 11
393.53
 21
0
 31
-51.869
  0
LINE
  5
673
100
AcDbEntity
  8
0
  6
DASHED2
 62
     1
100
AcDbLine
 10
393.53
 20
0
 30
-51.869
 11
396.268
 21
0
 31
-51.869
  0
LINE
  5
674
100
AcDbEntity
  8
0
  6
DASHED2
 62
     1
100
AcDbLine
 10
396.268
 20
0
 30
-51.869
 11
396.268
 21
0
 31
-49.559
  0
LINE
  5
675
100
AcDbEntity
  8
0
  6
ByLayer
 62
     0
100
AcDbLine
 10
396.268
 20
0
 30
-49.559
 11
393.53
 21
0
 31
-50.786
  0
LINE
  5
676
100
AcDbEntity
  8
0
  6
ByLayer
 62
     0
100
AcDbLine
 10
393.53
 20
0
 30
-50.786
 11
393.324
 21
0
 31
-50.874
  0
LINE
  5
677
100
AcDbEntity
  8
0
  6
ByLayer
 62
     0
100
AcDbLine
 10
393.324
 20
0
 30
-50.874
 11
390.748
 21
0
 31
-51.915
  0
ARC
  5
678
100
AcDbEntity
  8
0
100
AcDbCircle
 10
400
 20
-49
 30
0
 40
9.70035
210
0
220
1
230
0
100
AcDbArc
 50
228.163
 51
197.488
  0
LINE
  5
679
100
AcDbEntity
  8
0
  6
DASHED2
 62
     1
100
AcDbLine
 10
393.53
 20
0
 30
-56.227
 11
395.919
 21
0
 31
-56.227
  0
LINE
  5
680
100
AcDbEntity
  8
0
  6
DASHED2
 62
     1
100
AcDbLine
 10
395.919
 20
0
 30
-56.227
 11
395.919
 21
0
 31
-59.336
  0
LINE
  5
681
100
AcDbEntity
  8
0
  6
ByLayer
 62
     0
100
AcDbLine
 10
395.919
 20
0
 30
-59.336
 11
393.53
 21
0
 31
-57.522
  0
ARC
  5
682
100
AcDbEntity
  8
0
100
AcDbCircle
 10
400
 20
-49
 30
0
 40
10.6998
210
0
220
1
230
0
100
AcDbArc
 50
232.794
 51
192.517
  0
LINE
  5
683
100
AcDbEntity
  8
0
  6
ByLayer
 62
     0
100
AcDbLine
 10
389.554
 20
0
 30
-51.319
 11
392.949
 21
0
 31
-49.947
  0
LINE
  5
684
100
AcDbEntity
  8
0
  6
ByLayer
 62
     0
100
AcDbLine
 10
392.949
 20
0
 30
-49.947
 11
393.53
 21
0
 31
-49.667
  0
LINE
  5
685
100
AcDbEntity
  8
0
  6
DASHED2
 62
     1
100
AcDbLine
 10
393.53
 20
0
 30
-49.667
 11
395.886
 21
0
 31
-49.667
  0
LINE
  5
686
100
AcDbEntity
  8
0
  6
DASHED2
 62
     1
100
AcDbLine
 10
395.886
 20
0
 30
-49.667
 11
395.886
 21
0
 31
-46.678
  0
LINE
  5
687
100
AcDbEntity
  8
0
  6
ByLayer
 62
     0
100
AcDbLine
 10
395.886
 20
0
 30
-46.678
 11
393.498
 21
0
 31
-48.495
  0
ARC
  5
688
100
AcDbEntity
  8
0
100
AcDbCircle
 10
391.076
 20
-45.311
 30
0
 40
4.00049
210
0
220
1
230
0
100
AcDbArc
 50
307.259
 51
292.006
  0
LINE
  5
689
100
AcDbEntity
  8
0
  6
ByLayer
 62
     0
100
AcDbLine
 10
392.575
 20
0
 30
-49.02
 11
388.424
 21
0
 31
-50.697
  0
ARC
  5
690
100
AcDbEntity
  8
0
100
AcDbCircle
 10
400
 20
-49
 30
0
 40
11.6997
210
0
220
1
230
0
100
AcDbArc
 50
236.427
 51
188.34
  0
LINE
  5
691
100
AcDbEntity
  8
0
  6
DASHED2
 62
     1
100
AcDbLine
 10
393.53
 20
0
 30
-58.748
 11
396.112
 21
0
 31
-58.748
  0
LINE
  5
692
100
AcDbEntity
  8
0
  6
DASHED2
 62
     1
100
AcDbLine
 10
396.112
 20
0
 30
-58.748
 11
396.112
 21
0
 31
-61.457
  0
LINE
  5
693
100
AcDbEntity
  8
0
  6
ByLayer
 62
     0
100
AcDbLine
 10
396.112
 20
0
 30
-61.457
 11
393.53
 21
0
 31
-59.928
  0
ARC
  5
694
100
AcDbEntity
  8
0
100
AcDbCircle
 10
400
 20
-49
 30
0
 40
12.6997
210
0
220
1
230
0
100
AcDbArc
 50
239.372
 51
184.765
  0
LINE
  5
695
100
AcDbEntity
  8
0
  6
ByLayer
 62
     0
100
AcDbLine
 10
387.344
 20
0
 30
-50.055
 11
392.2
 21
0
 31
-48.093
  0
ARC
  5
696
100
AcDbEntity
  8
0
100
AcDbCircle
 10
391.076
 20
-45.311
 30
0
 40
3.00048
210
0
220
1
230
0
100
AcDbArc
 50
315.23
 51
292
  0
LINE
  5
697
100
AcDbEntity
  8
0
  6
DASHED2
 62
     1
100
AcDbLine
 10
393.206
 20
0
 30
-47.424
 11
394.484
 21
0
 31
-47.424
  0
LINE
  5
698
100
AcDbEntity
  8
0
  6
DASHED2
 62
     1
100
AcDbLine
 10
394.484
 20
0
 30
-47.424
 11
394.484
 21
0
 31
-44.132
  0
LINE
  5
699
100
AcDbEntity
  8
0
  6
ByLayer
 62
     0
100
AcDbLine
 10
394.484
 20
0
 30
-44.132
 11
392.669
 21
0
 31
-46.521
  0
ARC
  5
700
100
AcDbEntity
  8
0
100
AcDbCircle
 10
391.076
 20
-45.311
 30
0
 40
2.00044
210
0
220
1
230
0
100
AcDbArc
 50
322.781
 51
291.998
  0
LINE
  5
701
100
AcDbEntity
  8
0
  6
ByLayer
 62
     0
100
AcDbLine
 10
391.825
 20
0
 30
-47.165
 11
386.306
 21
0
 31
-49.395
  0
ARC
  5
702
100
AcDbEntity
  8
0
100
AcDbCircle
 10
400
 20
-49
 30
0
 40
13.6997
210
0
220
1
230
0
100
AcDbArc
 50
241.819
 51
181.652
  0
LINE
  5
703
100
AcDbEntity
  8
0
  6
DASHED2
 62
     1
100
AcDbLine
 10
393.53
 20
0
 30
-61.076
 11
396.224
 21
0
 31
-61.076
  0
LINE
  5
704
100
AcDbEntity
  8
0
  6
DASHED2
 62
     1
100
AcDbLine
 10
396.224
 20
0
 30
-61.076
 11
396.224
 21
0
 31
-63.52
  0
LINE
  5
705
100
AcDbEntity
  8
0
  6
ByLayer
 62
     0
100
AcDbLine
 10
396.224
 20
0
 30
-63.52
 11
393.53
 21
0
 31
-62.2
  0
ARC
  5
706
100
AcDbEntity
  8
0
100
AcDbCircle
 10
400
 20
-49
 30
0
 40
14.7004
210
0
220
1
230
0
100
AcDbArc
 50
243.888
 51
180
  0
LINE
  5
707
100
AcDbEntity
  8
0
  6
ByLayer
 62
     0
100
AcDbLine
 10
385.3
 20
0
 30
-49
 11
385.3
 21
0
 31
-48.723
  0
LINE
  5
708
100
AcDbEntity
  8
0
  6
ByLayer
 62
     0
100
AcDbLine
 10
385.3
 20
0
 30
-48.723
 11
391.451
 21
0
 31
-46.238
  0
ARC
  5
709
100
AcDbEntity
  8
0
100
AcDbCircle
 10
391.076
 20
-45.311
 30
0
 40
0.999977
210
0
220
1
230
0
100
AcDbArc
 50
330.078
 51
292.025
  0
LINE
  5
710
100
AcDbEntity
  8
0
  6
DASHED2
 62
     1
100
AcDbLine
 10
391.943
 20
0
 30
-45.81
 11
393.858
 21
0
 31
-45.81
  0
LINE
  5
711
100
AcDbEntity
  8
0
  6
DASHED2
 62
     1
100
AcDbLine
 10
393.858
 20
0
 30
-45.81
 11
393.858
 21
0
 31
-44.187
  0
LINE
  5
712
100
AcDbEntity
  8
0
  6
ByLayer
 62
     0
100
AcDbLine
 10
393.858
 20
0
 30
-44.187
 11
384.3
 21
0
 31
-48.049
  0
LINE
  5
713
100
AcDbEntity
  8
0
  6
ByLayer
 62
     0
100
AcDbLine
 10
384.3
 20
0
 30
-48.049
 11
384.3
 21
0
 31
-49
  0
ARC
  5
714
100
AcDbEntity
  8
0
100
AcDbCircle
 10
400
 20
-49
 30
0
 40
15.7
210
0
220
1
230
0
100
AcDbArc
 50
245.663
 51
180
  0
LINE
  5
715
100
AcDbEntity
  8
0
  6
DASHED2
 62
     1
100
AcDbLine
 10
393.53
 20
0
 30
-63.305
 11
387.818
 21
0
 31
-46.282
  0
LINE
  5
716
100
AcDbEntity
  8
0
  6
ByLayer
 62
     0
100
AcDbLine
 10
387.818
 20
0
 30
-46.282
 11
384.109
 21
0
 31
-47.78
  0
LINE
  5
717
100
AcDbEntity
  8
0
  6
ByLayer
 62
     0
100
AcDbLine
 10
384.109
 20
0
 30
-47.78
 11
384
 21
0
 31
-47.824
  0
LINE
  5
718
100
AcDbEntity
  8
0
  6
ByLayer
 62
     0
100
AcDbLine
 10
384
 20
0
 30
-47.824
 11
384
 21
0
 31
-49
  0
ARC
  5
719
100
AcDbEntity
  8
0
100
AcDbCircle
 10
400
 20
-49
 30
0
 40
16
210
0
220
1
230
0
100
AcDbArc
 50
270
 51
180
  0
LINE
  5
720
100
AcDbEntity
  8
0
  6
ByLayer
 62
     0
100
AcDbLine
 10
400
 20
0
 30
-65
 11
401.695
 21
0
 31
-65
  0
LINE
  5
721
100
AcDbEntity
  8
0
  6
ByLayer
 62
     0
100
AcDbLine
 10
401.695
 20
0
 30
-65
 11
401.695
 21
0
 31
-61
  0
LINE
  5
722
100
AcDbEntity
  8
0
  6
DASHED2
 62
     1
100
AcDbLine
 10
401.695
 20
0
 30
-61
 11
600
 21
0
 31
0
0
ENDSEC
  0
SECTION
  2
OBJECTS
  0
DICTIONARY
  5
C
100
AcDbDictionary
  3
ACAD_GROUP
350
D
  3
ACAD_MLINESTYLE
350
1B
  0
DICTIONARY
  5
D
102
{ACAD_REACTORS
330
C
102
}
100
AcDbDictionary
  0
DICTIONARY
  5
1B
102
{ACAD_REACTORS
330
C
102
}
100
AcDbDictionary
  3
STANDARD
350
1C
  0
MLINESTYLE
  5
1C
102
{ACAD_REACTORS
330
1B
102
}
100
AcDbMlineStyle
  2
STANDARD
 70
     0
  3

 62
   256
 51
90.0
 52
90.0
 71
     2
 49
0.5
 62
   256
  6
BYLAYER
 49
-0.5
 62
   256
  6
BYLAYER
  0
ENDSEC
  0
EOF

